<?xml version="1.0" standalone="no"?>
<!DOCTYPE svg PUBLIC "-//W3C//DTD SVG 1.1//EN" "http://www.w3.org/Graphics/SVG/1.1/DTD/svg11.dtd" >
<svg xmlns="http://www.w3.org/2000/svg" xmlns:xlink="http://www.w3.org/1999/xlink" version="1.1">
<metadata>
Created by FontForge 20161116 at Thu Apr 12 10:55:39 2007
 By Jimmy Warting

</metadata>
<defs>
<font id="SpeakOT-Bold" horiz-adv-x="600" >
  <font-face 
    font-family="SpeakOT-Bold"
    font-weight="700"
    font-stretch="normal"
    units-per-em="1000"
    panose-1="2 0 5 3 3 0 0 2 0 4"
    ascent="752"
    descent="-248"
    x-height="462"
    cap-height="643"
    bbox="-144 -248 1256 941"
    underline-thickness="60"
    underline-position="-100"
    stemh="64"
    stemv="66"
    unicode-range="U+000D-FB06"
  />
<missing-glyph horiz-adv-x="552" 
d="M508 0h-463v643h463v-643zM442 64v515h-331v-515h331z" />
    <glyph glyph-name="uniFB00" unicode="ff" horiz-adv-x="650" 
d="M414 33v365h-259v-365c0 -19 -15 -33 -33 -33c-20 0 -33 14 -33 33v365h-51c-19 0 -33 13 -33 32s14 32 33 32h52c11 199 132 223 185 223c26 0 53 -4 79 -14c14 -5 21 -17 21 -31c0 -18 -14 -30 -32 -30c-3 0 -10 1 -13 2c-16 5 -34 9 -55 9c-42 0 -111 -21 -120 -159
h260c11 199 132 223 185 223c26 0 53 -4 79 -14c14 -5 21 -17 21 -31c0 -18 -14 -30 -32 -30c-2 0 -7 0 -13 2c-16 5 -34 9 -55 9c-42 0 -111 -21 -119 -159h115c19 0 33 -13 33 -32s-14 -32 -33 -32h-116v-365c0 -19 -15 -33 -33 -33c-20 0 -33 14 -33 33z" />
    <glyph glyph-name="fi" unicode="fi" horiz-adv-x="540" 
d="M400 33v396c0 19 14 33 33 33s33 -14 33 -33v-396c0 -19 -14 -33 -33 -33s-33 14 -33 33zM87 33v365h-49c-19 0 -33 13 -33 32s14 32 33 32h50c12 199 142 223 202 223c58 0 120 -14 162 -44c7 -5 14 -13 14 -25v-35c0 -19 -14 -33 -33 -33s-33 14 -33 33v18
c-26 13 -74 22 -110 22c-49 0 -128 -21 -136 -159h116c19 0 33 -13 33 -32s-14 -32 -33 -32h-117v-365c0 -19 -15 -33 -33 -33c-19 0 -33 14 -33 33z" />
    <glyph glyph-name="fl" unicode="fl" horiz-adv-x="564" 
d="M401 170v429c-26 13 -74 22 -111 22c-49 0 -127 -24 -136 -159h116c19 0 33 -12 33 -31s-14 -33 -33 -33h-117v-365c0 -19 -14 -33 -33 -33s-33 14 -33 33v365h-49c-19 0 -33 14 -33 33s14 31 33 31h50c12 199 142 223 202 223c58 0 121 -15 162 -44c3 -2 15 -12 15 -31
v-440c0 -82 10 -105 50 -105c19 0 33 -13 33 -32s-14 -33 -33 -33c-90 0 -116 39 -116 170z" />
    <glyph glyph-name="uniFB03" unicode="ffi" horiz-adv-x="865" 
d="M431 33v365h-276v-365c0 -19 -15 -33 -33 -33c-20 0 -33 14 -33 33v365h-51c-19 0 -33 13 -33 32s14 32 33 32h52c11 199 132 223 185 223c26 0 53 -4 79 -14c14 -5 21 -17 21 -31c0 -18 -14 -30 -32 -30c-3 0 -10 1 -13 2c-16 5 -34 9 -55 9c-42 0 -111 -21 -119 -159
h277c11 199 133 223 193 223c59 0 110 -15 151 -44c6 -4 14 -12 14 -25v-35c0 -19 -14 -33 -33 -33s-33 14 -33 33v18c-26 13 -62 22 -99 22c-49 0 -120 -21 -128 -159h116c19 0 33 -13 33 -32s-14 -32 -33 -32h-117v-365c0 -19 -14 -33 -33 -33s-33 14 -33 33zM725 33v396
c0 19 14 33 33 33s33 -14 33 -33v-396c0 -19 -14 -33 -33 -33s-33 14 -33 33z" />
    <glyph glyph-name=".notdef" horiz-adv-x="552" 
d="M508 0h-463v643h463v-643zM442 64v515h-331v-515h331z" />
    <glyph glyph-name=".null" horiz-adv-x="0" 
 />
    <glyph glyph-name=".null" horiz-adv-x="0" 
 />
    <glyph glyph-name="CR" unicode="&#xd;" horiz-adv-x="316" 
 />
    <glyph glyph-name="space" unicode=" " horiz-adv-x="316" 
 />
    <glyph glyph-name="exclam" unicode="!" horiz-adv-x="255" 
d="M95 179v431c0 19 14 33 33 33s33 -14 33 -33v-431c0 -19 -14 -33 -33 -33s-33 14 -33 33zM95 27v33c0 19 14 33 33 33s33 -14 33 -33v-33c0 -19 -14 -33 -33 -33s-33 14 -33 33z" />
    <glyph glyph-name="quotedbl" unicode="&#x22;" horiz-adv-x="338" 
d="M75 445v165c0 19 14 33 33 33s33 -14 33 -33v-165c0 -19 -14 -33 -33 -33s-33 14 -33 33zM197 445v165c0 19 14 33 33 33s33 -14 33 -33v-165c0 -19 -14 -33 -33 -33s-33 14 -33 33z" />
    <glyph glyph-name="numbersign" unicode="#" horiz-adv-x="591" 
d="M245 211h77l13 90h-76zM410 365h54c20 0 33 -14 33 -32c0 -20 -13 -32 -33 -32h-63l-13 -90h55c19 0 33 -10 33 -32c0 -18 -14 -32 -33 -32h-63l-18 -121c-2 -17 -13 -26 -32 -26c-21 0 -33 12 -33 32v6l16 109h-77l-16 -121c-2 -13 -12 -26 -33 -26c-19 0 -32 12 -32 32
v6l16 109h-43c-19 0 -33 14 -33 32c0 22 14 32 33 32h51l13 90h-43c-18 0 -33 12 -33 32c0 18 15 32 33 32h51l18 124c2 16 15 27 32 27c21 0 33 -12 33 -31v-6l-15 -114h76l18 125c2 17 13 26 30 26c20 0 34 -10 34 -31v-6z" />
    <glyph glyph-name="dollar" unicode="$" horiz-adv-x="490" 
d="M228 -27v21c-63 0 -112 28 -159 64c-9 7 -14 17 -14 28c0 18 15 31 32 31c3 0 13 -1 23 -9c23 -18 64 -50 125 -50c82 0 133 47 133 117c0 142 -296 119 -296 312c0 90 72 152 156 160v20c0 20 13 33 33 33c19 0 33 -13 33 -33v-21c51 -10 81 -29 112 -51
c10 -7 14 -17 14 -28c0 -18 -15 -32 -32 -32c-6 0 -13 1 -20 7c-23 19 -63 43 -112 43c-61 0 -116 -40 -116 -98c0 -143 296 -113 296 -312c0 -90 -54 -156 -142 -175v-27c0 -18 -14 -33 -33 -33c-20 0 -33 15 -33 33z" />
    <glyph glyph-name="percent" unicode="%" horiz-adv-x="763" 
d="M167 299c-76 0 -124 64 -124 172c0 106 49 175 124 175s125 -70 125 -175c0 -108 -48 -172 -125 -172zM167 347c45 0 74 48 74 124c0 67 -24 127 -74 127c-44 0 -73 -51 -73 -127s28 -124 73 -124zM582 -3c-76 0 -124 64 -124 172c0 106 49 175 124 175s125 -70 125 -175
c0 -108 -48 -172 -125 -172zM582 45c45 0 74 48 74 124c0 67 -24 127 -74 127c-44 0 -73 -51 -73 -127s28 -124 73 -124zM156 44l405 592c5 8 14 13 26 13c13 0 22 -12 22 -21c0 -11 -3 -18 -7 -23l-405 -592c-5 -8 -14 -13 -26 -13c-13 0 -22 12 -22 21c0 11 4 19 7 23z
" />
    <glyph glyph-name="ampersand" unicode="&#x26;" horiz-adv-x="742" 
d="M613 0c-16 0 -80 3 -151 67c-44 -41 -102 -73 -174 -73c-110 0 -193 81 -193 188c0 90 61 135 125 170c-26 30 -68 81 -68 136c0 89 67 155 154 155c85 0 153 -68 153 -152c0 -90 -64 -130 -134 -163l134 -162c22 33 34 66 34 88c0 19 11 33 32 33c19 0 34 -14 34 -33
c0 -34 -20 -89 -54 -139c55 -49 90 -51 108 -51c17 0 34 -9 34 -31c0 -19 -11 -33 -34 -33zM283 379c57 28 108 53 108 112c0 49 -29 88 -85 88c-57 0 -86 -38 -86 -91c0 -31 31 -70 63 -109zM417 113l-154 188c-55 -26 -100 -56 -100 -119c0 -79 64 -124 125 -124
c54 0 96 24 129 55z" />
    <glyph glyph-name="quotesingle" unicode="'" horiz-adv-x="215" 
d="M75 445v165c0 19 14 33 33 33s33 -14 33 -33v-165c0 -19 -14 -33 -33 -33s-33 14 -33 33z" />
    <glyph glyph-name="parenleft" unicode="(" horiz-adv-x="414" 
d="M286 -118c-7 0 -11 1 -17 3s-174 75 -174 375c0 288 156 405 172 417c6 4 11 6 18 6c19 0 34 -15 34 -34c0 -10 -6 -22 -18 -30c-2 -1 -138 -92 -138 -359c0 -251 129 -313 137 -317c13 -6 18 -19 18 -30c0 -19 -13 -31 -32 -31z" />
    <glyph glyph-name="parenright" unicode=")" horiz-adv-x="414" 
d="M128 -118c-19 0 -32 12 -32 31c0 11 5 24 18 30c8 4 137 66 137 317c0 267 -136 358 -138 359c-12 8 -18 20 -18 30c0 19 15 34 34 34c7 0 12 -2 18 -6c16 -12 172 -129 172 -417c0 -300 -168 -373 -174 -375s-10 -3 -17 -3z" />
    <glyph glyph-name="asterisk" unicode="*" horiz-adv-x="431" 
d="M182 517v90c0 19 13 33 33 33c19 0 32 -14 32 -33v-90l86 34c6 2 8 2 11 2c16 0 32 -14 32 -33c0 -14 -11 -26 -21 -30l-88 -33l58 -79c5 -7 7 -13 7 -19c0 -19 -16 -32 -34 -32c-9 0 -19 3 -26 13l-58 81l-58 -81c-7 -10 -16 -13 -26 -13c-18 0 -32 13 -32 32
c0 4 2 13 7 19l58 79l-87 33c-12 5 -21 18 -21 31c0 18 14 32 32 32c3 0 6 0 11 -2z" />
    <glyph glyph-name="plus" unicode="+" 
d="M477 204h-144v-146c0 -19 -14 -33 -33 -33s-33 14 -33 33v146h-144c-19 0 -33 13 -33 32s14 32 33 32h144v144c0 19 14 33 33 33s33 -14 33 -33v-144h144c19 0 33 -13 33 -32s-14 -32 -33 -32z" />
    <glyph glyph-name="comma" unicode="," horiz-adv-x="251" 
d="M163 60v-5c0 -23 -3 -104 -48 -149c-7 -7 -15 -10 -25 -10c-18 0 -32 13 -32 32c0 9 3 16 9 24c25 26 30 61 30 108c0 19 14 33 33 33s33 -14 33 -33z" />
    <glyph glyph-name="hyphen" unicode="-" horiz-adv-x="479" 
d="M351 204h-223c-19 0 -33 13 -33 32c0 18 14 32 33 32h223c19 0 33 -14 33 -32c0 -19 -14 -32 -33 -32z" />
    <glyph glyph-name="period" unicode="." horiz-adv-x="215" 
d="M75 27v33c0 19 14 33 33 33s33 -14 33 -33v-33c0 -19 -14 -33 -33 -33s-33 14 -33 33z" />
    <glyph glyph-name="slash" unicode="/" horiz-adv-x="405" 
d="M77 -91c-21 0 -32 15 -32 31c0 4 1 8 3 13l251 665c5 11 14 20 31 20c19 0 30 -16 30 -30c0 -3 0 -6 -2 -11l-251 -668c-5 -12 -15 -20 -30 -20z" />
    <glyph glyph-name="zero" unicode="0" horiz-adv-x="648" 
d="M324 -6c-142 0 -229 120 -229 324c0 202 88 331 229 331s230 -130 230 -331c0 -204 -87 -324 -230 -324zM324 58c100 0 162 99 162 260c0 150 -58 267 -162 267c-99 0 -161 -106 -161 -267s61 -260 161 -260z" />
    <glyph glyph-name="one" unicode="1" horiz-adv-x="397" 
d="M207 33v519l-56 -39c-5 -3 -9 -5 -18 -5c-19 0 -33 13 -33 32c0 11 5 22 14 28l107 70c5 3 11 5 18 5c19 0 34 -14 34 -33v-577c0 -19 -14 -33 -33 -33c-18 0 -33 14 -33 33z" />
    <glyph glyph-name="two" unicode="2" horiz-adv-x="562" 
d="M434 0h-306c-19 0 -33 13 -33 32c0 143 302 310 302 439c0 98 -72 114 -117 114c-55 0 -103 -30 -117 -40c-4 -3 -11 -5 -18 -5c-19 0 -34 14 -34 33c0 10 6 20 18 28c24 16 74 48 151 48c55 0 185 -16 185 -178c0 -158 -237 -271 -296 -407h265c19 0 33 -13 33 -32
s-14 -32 -33 -32z" />
    <glyph glyph-name="three" unicode="3" horiz-adv-x="577" 
d="M263 292h-24c-20 0 -33 13 -33 32s14 32 33 32h24c63 0 142 33 142 116c0 101 -88 113 -127 113c-55 0 -98 -30 -111 -39c-5 -4 -13 -6 -19 -6c-19 0 -33 14 -33 33c0 10 6 19 14 26c10 10 69 50 149 50c107 0 195 -58 195 -177c0 -62 -35 -125 -102 -144
c72 -12 112 -84 112 -154c0 -106 -98 -180 -202 -180c-110 0 -167 46 -173 51c-9 8 -13 15 -13 27c0 19 16 32 35 32c26 0 37 -46 151 -46c74 0 134 53 134 116c0 90 -84 118 -152 118z" />
    <glyph glyph-name="four" unicode="4" horiz-adv-x="603" 
d="M374 33v128h-266c-23 0 -33 18 -33 32c0 5 2 12 4 16c105 213 287 413 298 425c6 6 15 9 24 9c18 0 32 -14 32 -30c0 -11 -4 -19 -11 -26c-2 -2 -164 -165 -265 -362h217v204c0 19 14 33 33 33s33 -14 33 -33v-204h42c19 0 33 -13 33 -32s-14 -32 -33 -32h-42v-128
c0 -19 -14 -33 -33 -33s-33 14 -33 33z" />
    <glyph glyph-name="five" unicode="5" horiz-adv-x="567" 
d="M406 579h-230v-183c6 3 40 18 87 18c120 0 210 -85 210 -200c0 -161 -115 -220 -210 -220c-92 0 -148 44 -156 50c-9 8 -12 16 -12 26c0 18 16 34 32 34c8 0 15 -1 23 -8c6 -5 48 -38 113 -38c68 0 142 42 142 156c0 77 -60 136 -142 136c-53 0 -92 -23 -100 -28
c-5 -4 -14 -7 -20 -7c-16 0 -31 10 -33 32v265c0 19 15 31 34 31h262c19 0 33 -12 33 -31s-14 -33 -33 -33z" />
    <glyph glyph-name="six" unicode="6" horiz-adv-x="603" 
d="M308 -6c-136 0 -213 106 -213 297c0 249 71 358 230 358c101 0 145 -46 148 -50c6 -7 11 -15 11 -25c0 -17 -11 -32 -30 -32c-12 0 -21 5 -30 12s-39 31 -99 31c-76 0 -162 -33 -162 -294c0 -149 50 -233 145 -233c104 0 132 99 132 157c0 52 -29 140 -132 140
c-23 0 -41 -4 -55 -12c-4 -2 -9 -4 -15 -4c-17 0 -30 12 -30 32c0 15 16 25 24 30c19 11 46 18 76 18c156 0 200 -128 200 -204c0 -81 -44 -221 -200 -221z" />
    <glyph glyph-name="seven" unicode="7" horiz-adv-x="545" 
d="M408 579h-310c-19 0 -33 14 -33 33s14 31 33 31h350c19 0 33 -12 33 -31c0 -55 -57 -157 -105 -242c-61 -108 -138 -254 -138 -337c0 -19 -14 -33 -33 -33c-18 0 -33 14 -33 33c0 105 81 252 147 369c36 63 76 133 89 177z" />
    <glyph glyph-name="eight" unicode="8" horiz-adv-x="605" 
d="M415 326c19 -6 99 -45 99 -147c0 -119 -77 -185 -212 -185c-125 0 -212 71 -212 185c0 99 74 156 94 161c-21 8 -75 45 -75 133c0 139 123 176 193 176c96 0 196 -54 196 -176c0 -77 -66 -141 -83 -147zM289 298l-38 5c-46 -3 -93 -49 -93 -124c0 -88 76 -121 144 -121
c66 0 144 23 144 121c0 92 -98 110 -157 119zM345 352c39 4 85 60 85 121c0 88 -80 112 -128 112c-47 0 -125 -24 -125 -112c0 -86 69 -113 168 -121z" />
    <glyph glyph-name="nine" unicode="9" horiz-adv-x="602" 
d="M295 649c136 0 213 -106 213 -297c0 -249 -71 -358 -230 -358c-101 0 -145 46 -148 50c-6 7 -11 15 -11 25c0 17 11 32 30 32c12 0 21 -5 30 -12s39 -31 99 -31c76 0 162 33 162 294c0 149 -50 233 -145 233c-104 0 -132 -99 -132 -157c0 -52 29 -140 132 -140
c23 0 41 4 55 12c4 2 8 4 14 4c17 0 31 -12 31 -32c0 -15 -16 -25 -24 -30c-19 -11 -46 -18 -76 -18c-156 0 -200 128 -200 204c0 81 44 221 200 221z" />
    <glyph glyph-name="colon" unicode=":" horiz-adv-x="215" 
d="M75 27v33c0 19 14 33 33 33s33 -14 33 -33v-33c0 -19 -14 -33 -33 -33s-33 14 -33 33zM75 401v34c0 19 14 32 33 32s33 -13 33 -32v-34c0 -19 -14 -33 -33 -33s-33 14 -33 33z" />
    <glyph glyph-name="semicolon" unicode=";" horiz-adv-x="250" 
d="M109 401v34c0 19 14 32 33 32s33 -13 33 -32v-34c0 -19 -14 -33 -33 -33s-33 14 -33 33zM175 46v-5c0 -23 -4 -104 -49 -149c-7 -7 -16 -9 -24 -9c-18 0 -32 13 -32 31c0 9 2 16 9 24c26 26 30 67 30 108c0 19 14 33 33 33s33 -14 33 -33z" />
    <glyph glyph-name="less" unicode="&#x3c;" 
d="M461 21l-354 185c-13 7 -18 13 -18 29c0 15 7 22 18 28l355 181c5 3 11 5 17 5c17 0 31 -15 31 -34c0 -14 -9 -22 -20 -28l-299 -152l300 -157c10 -6 17 -18 17 -30c0 -19 -18 -31 -32 -31c-4 0 -11 2 -15 4z" />
    <glyph glyph-name="equal" unicode="=" 
d="M477 272h-355c-19 0 -33 13 -33 32s14 32 33 32h355c19 0 33 -13 33 -32s-14 -32 -33 -32zM477 143h-355c-19 0 -33 13 -33 32s14 32 33 32h355c19 0 33 -13 33 -32s-14 -32 -33 -32z" />
    <glyph glyph-name="greater" unicode="&#x3e;" 
d="M491 206l-353 -185c-5 -2 -11 -4 -16 -4c-13 0 -32 12 -32 31c0 12 8 24 18 30l299 157l-299 152c-11 6 -19 14 -19 28c0 19 13 34 30 34c7 0 12 -2 18 -5c0 0 236 -121 354 -181c11 -6 19 -13 19 -28c0 -16 -5 -22 -19 -29z" />
    <glyph glyph-name="question" unicode="?" horiz-adv-x="514" 
d="M223 144c-19 0 -33 14 -33 33c0 89 46 132 91 167l15 13c34 27 66 52 66 99c0 72 -48 123 -115 123c-54 0 -98 -29 -109 -37c-6 -4 -14 -7 -21 -7c-19 0 -32 15 -32 33c0 9 4 17 12 24c3 3 60 51 150 51c104 0 183 -77 183 -187c0 -148 -174 -145 -174 -279
c0 -19 -14 -33 -33 -33zM190 27v33c0 19 14 33 33 33s33 -14 33 -33v-33c0 -19 -14 -33 -33 -33s-33 14 -33 33z" />
    <glyph glyph-name="at" unicode="@" horiz-adv-x="746" 
d="M443 210c-13 -13 -49 -43 -100 -43c-74 0 -118 46 -118 118c0 94 70 211 183 211c33 0 80 -16 102 -33c7 -5 14 -13 14 -26c-10 -67 -31 -168 -31 -187c0 -11 4 -19 17 -19c62 0 114 69 114 133c0 129 -94 215 -245 215c-141 0 -256 -120 -256 -262
c0 -140 115 -259 256 -259c51 0 103 18 149 49c4 2 9 5 16 5c18 0 32 -15 32 -34c0 -10 -6 -20 -16 -28c-52 -36 -117 -56 -181 -56c-178 0 -324 144 -324 323s146 326 324 326c192 0 313 -107 313 -279c0 -91 -76 -197 -175 -197c-26 0 -68 12 -74 43zM456 419
c-14 8 -31 14 -48 14c-69 0 -115 -83 -115 -148c0 -23 14 -54 53 -54c30 0 59 16 85 41z" />
    <glyph glyph-name="A" unicode="A" horiz-adv-x="565" 
d="M538 45c1 -4 3 -11 3 -15c0 -17 -12 -30 -34 -30c-17 0 -24 7 -29 22c-10 29 -30 94 -56 169h-280c-25 -75 -43 -140 -53 -169c-5 -15 -15 -22 -32 -22c-22 0 -32 13 -32 30c0 4 2 11 3 15c5 17 135 443 206 575c8 17 23 23 48 23c22 0 42 -5 49 -24
c61 -125 197 -543 207 -574zM164 255h237c-35 105 -72 212 -119 321c-47 -109 -83 -216 -118 -321z" />
    <glyph glyph-name="B" unicode="B" horiz-adv-x="539" 
d="M249 0h-121c-19 0 -33 14 -33 33v579c0 19 13 31 32 31h122c60 0 208 -2 208 -174c0 -76 -61 -130 -73 -135c55 -17 101 -71 101 -155c0 -175 -175 -179 -236 -179zM161 357h105c13 0 23 0 38 -1c18 8 85 37 85 113c0 108 -99 110 -143 110h-85v-222zM161 64h88
c45 0 168 4 168 115c0 76 -48 114 -142 114h-114v-229z" />
    <glyph glyph-name="C" unicode="C" horiz-adv-x="601" 
d="M525 45c-63 -33 -121 -51 -189 -51c-161 0 -281 139 -281 327c0 187 126 328 291 328c103 0 164 -36 186 -53c8 -7 14 -17 14 -28c0 -18 -17 -32 -32 -32c-8 0 -15 3 -20 7c-6 5 -54 42 -148 42c-128 0 -223 -115 -223 -264c0 -151 89 -263 213 -263c55 0 105 15 153 42
c4 2 11 5 17 5c19 0 33 -16 33 -34c0 -11 -4 -20 -14 -26z" />
    <glyph glyph-name="D" unicode="D" horiz-adv-x="643" 
d="M300 0h-173c-19 0 -32 14 -32 33v578c0 19 13 32 32 32h173c172 0 288 -136 288 -324c0 -186 -116 -319 -288 -319zM161 64h139c136 0 220 105 220 255c0 151 -85 260 -220 260h-139v-515z" />
    <glyph glyph-name="E" unicode="E" horiz-adv-x="501" 
d="M408 0h-280c-19 0 -33 13 -33 32v580c0 19 14 31 33 31h261c19 0 33 -12 33 -31s-14 -33 -33 -33h-228v-209h211c19 0 33 -13 33 -32s-14 -32 -33 -32h-211v-242h247c19 0 33 -13 33 -32s-14 -32 -33 -32z" />
    <glyph glyph-name="F" unicode="F" horiz-adv-x="472" 
d="M95 33v579c0 19 14 31 33 31h261c19 0 33 -12 33 -31s-14 -33 -33 -33h-228v-209h211c19 0 33 -13 33 -32s-14 -32 -33 -32h-211v-273c0 -19 -14 -33 -33 -33s-33 14 -33 33z" />
    <glyph glyph-name="G" unicode="G" horiz-adv-x="624" 
d="M483 90v139c0 30 -4 34 -37 34h-76c-19 0 -32 12 -32 31s13 33 32 33h76c86 0 103 -17 103 -100v-156c0 -11 -8 -25 -18 -30c-57 -29 -125 -47 -195 -47c-161 0 -281 138 -281 326c0 187 126 329 291 329c84 0 130 -24 170 -45c11 -6 17 -17 17 -30
c0 -19 -17 -33 -34 -33c-5 0 -10 2 -14 4c-34 20 -74 40 -139 40c-128 0 -223 -116 -223 -265c0 -151 89 -262 213 -262c52 0 103 11 147 32z" />
    <glyph glyph-name="H" unicode="H" horiz-adv-x="619" 
d="M459 33v273h-298v-273c0 -19 -14 -33 -33 -33s-33 14 -33 33v577c0 19 14 33 33 33s33 -14 33 -33v-240h298v240c0 19 14 33 33 33s33 -14 33 -33v-577c0 -19 -14 -33 -33 -33s-33 14 -33 33z" />
    <glyph glyph-name="I" unicode="I" horiz-adv-x="255" 
d="M95 33v577c0 19 14 33 33 33s33 -14 33 -33v-577c0 -19 -14 -33 -33 -33s-33 14 -33 33z" />
    <glyph glyph-name="J" unicode="J" horiz-adv-x="267" 
d="M107 49v561c0 19 14 33 32 33c19 0 34 -14 34 -33v-561c0 -155 -103 -197 -164 -197c-63 0 -100 25 -106 30c-8 6 -14 15 -14 29c0 17 14 32 30 32c9 0 14 -2 21 -7c5 -4 24 -20 69 -20c37 0 98 30 98 133z" />
    <glyph glyph-name="K" unicode="K" horiz-adv-x="575" 
d="M95 33v577c0 19 14 33 33 33s33 -14 33 -33v-247l269 269c7 7 15 11 25 11c19 0 31 -15 31 -32c0 -9 -4 -17 -9 -23l-248 -247c48 -36 167 -130 285 -291c4 -5 6 -11 6 -18c0 -19 -13 -32 -32 -32c-13 0 -22 5 -28 14c-110 152 -224 244 -299 298v-279
c0 -19 -14 -33 -33 -33s-33 14 -33 33z" />
    <glyph glyph-name="L" unicode="L" horiz-adv-x="467" 
d="M409 0h-281c-19 0 -33 13 -33 32v578c0 19 14 33 33 33s33 -14 33 -33v-546h248c18 0 33 -13 33 -32s-15 -32 -33 -32z" />
    <glyph glyph-name="M" unicode="M" horiz-adv-x="804" 
d="M620 643h12c17 0 31 -11 33 -28l64 -579c0 -18 -9 -36 -31 -36c-20 0 -32 8 -34 29l-54 521c-50 -112 -155 -457 -166 -502c-5 -19 -25 -31 -40 -31h-6c-15 0 -34 13 -38 30c-17 61 -120 402 -166 503l-55 -521c-2 -17 -14 -29 -34 -29s-30 13 -30 33l64 582
c2 15 14 28 33 28h11c19 0 32 -7 44 -23c40 -57 131 -347 175 -490c42 138 127 415 172 486c12 19 28 27 46 27z" />
    <glyph glyph-name="N" unicode="N" horiz-adv-x="615" 
d="M455 97v513c0 19 14 33 34 33c18 0 32 -14 32 -33v-577c0 -20 -14 -33 -32 -33h-12c-13 0 -30 4 -41 15c-40 38 -105 175 -167 308c-51 110 -77 178 -108 223v-513c0 -20 -14 -33 -33 -33c-18 0 -33 13 -33 33v577c0 19 15 33 33 33h12c11 0 28 -2 41 -14
c43 -42 105 -175 162 -303c43 -97 81 -181 112 -229z" />
    <glyph glyph-name="O" unicode="O" horiz-adv-x="655" 
d="M328 -6c-155 0 -273 141 -273 326c0 187 118 329 273 329c158 0 272 -139 272 -329c0 -188 -114 -326 -272 -326zM328 58c120 0 204 111 204 262c0 152 -84 265 -204 265c-118 0 -205 -116 -205 -265c0 -148 87 -262 205 -262z" />
    <glyph glyph-name="P" unicode="P" horiz-adv-x="489" 
d="M95 33v577c0 19 14 33 33 33h148c107 0 188 -74 188 -173c0 -139 -99 -188 -188 -188h-39c-19 0 -33 13 -33 32s14 32 33 32h39c56 0 120 32 120 124c0 62 -50 109 -120 109h-115v-546c0 -19 -14 -33 -33 -33s-33 14 -33 33z" />
    <glyph glyph-name="Q" unicode="Q" horiz-adv-x="654" 
d="M509 -54c29 0 50 6 67 6c23 0 36 -13 36 -32c0 -23 -19 -32 -46 -35c-12 -1 -33 -2 -50 -2c-72 0 -177 15 -231 115c-133 22 -230 154 -230 322c0 187 119 329 273 329c158 0 275 -139 275 -329c0 -175 -98 -295 -235 -319c16 -30 58 -55 141 -55zM328 58
c120 0 207 111 207 262c0 152 -87 265 -207 265c-118 0 -205 -116 -205 -265c0 -148 87 -262 205 -262z" />
    <glyph glyph-name="R" unicode="R" horiz-adv-x="539" 
d="M494 30c0 -12 -11 -30 -33 -30c-15 0 -28 9 -32 24c-52 167 -121 268 -176 268h-16c-19 0 -33 13 -33 32s14 32 33 32h39c29 0 120 8 120 119c0 60 -49 104 -120 104h-115v-546c0 -19 -14 -33 -33 -33s-33 14 -33 33v577c0 19 14 33 33 33h148c109 0 188 -71 188 -168
c0 -122 -98 -164 -123 -166c54 -36 101 -122 139 -230c5 -13 14 -40 14 -49z" />
    <glyph glyph-name="S" unicode="S" horiz-adv-x="490" 
d="M69 58c-9 7 -14 17 -14 28c0 18 15 31 31 31c6 0 14 -1 24 -9c24 -19 66 -50 125 -50c82 0 133 47 133 117c0 143 -296 119 -296 312c0 101 90 162 183 162c69 0 120 -32 151 -54c10 -7 14 -16 14 -28c0 -18 -14 -32 -31 -32c-6 0 -15 2 -20 7c-23 18 -63 43 -114 43
c-60 0 -115 -40 -115 -98c0 -141 296 -113 296 -312c0 -109 -81 -181 -201 -181c-77 0 -124 32 -166 64z" />
    <glyph glyph-name="T" unicode="T" horiz-adv-x="481" 
d="M206 33v546h-159c-19 0 -32 14 -32 33s13 31 32 31h388c19 0 32 -12 32 -31s-13 -33 -32 -33h-163v-546c0 -19 -14 -33 -33 -33s-33 14 -33 33z" />
    <glyph glyph-name="U" unicode="U" horiz-adv-x="612" 
d="M454 213v397c0 19 14 33 33 33c18 0 33 -14 33 -33v-399c0 -65 -29 -217 -215 -217c-185 0 -213 152 -213 217v399c0 19 14 33 33 33c18 0 33 -14 33 -33v-397c0 -49 22 -155 148 -155c127 0 148 106 148 155z" />
    <glyph glyph-name="V" unicode="V" horiz-adv-x="564" 
d="M539 613c0 -3 -1 -7 -2 -11c-47 -147 -150 -460 -206 -577c-13 -23 -42 -25 -50 -25c-23 0 -42 9 -49 24c-64 117 -186 512 -204 573c-2 7 -3 13 -3 16c0 17 11 30 32 30c16 0 28 -8 33 -27c0 -4 120 -411 191 -547c64 126 148 408 193 549c5 16 13 26 31 26
c12 0 34 -5 34 -31z" />
    <glyph glyph-name="W" unicode="W" horiz-adv-x="776" 
d="M751 615c0 -3 0 -6 -2 -15c-9 -55 -103 -511 -139 -575c-12 -22 -39 -25 -50 -25c-9 0 -37 2 -49 25c-23 44 -111 373 -123 469c-12 -96 -101 -430 -125 -472c-9 -15 -24 -22 -47 -22c-13 0 -36 2 -49 24c-36 64 -131 521 -140 576c-2 9 -2 12 -2 15c0 17 14 28 33 28
c17 0 28 -6 32 -25c2 -8 83 -408 126 -547c53 165 117 468 130 523c3 20 22 32 42 32c23 0 38 -13 42 -32c21 -97 86 -383 130 -523c43 139 124 539 126 547c4 18 15 25 33 25s32 -11 32 -28z" />
    <glyph glyph-name="X" unicode="X" horiz-adv-x="490" 
d="M30 48l188 301c-87 137 -135 196 -173 243c-5 7 -7 14 -7 20c0 18 17 31 34 31c10 0 19 -4 26 -11c31 -38 79 -102 159 -220l135 219c5 8 16 12 26 12c19 0 33 -13 33 -30c0 -6 -1 -12 -5 -18l-150 -244c57 -91 117 -196 166 -304c3 -6 4 -11 4 -15
c0 -19 -15 -32 -33 -32c-14 0 -25 8 -29 18c-47 99 -100 193 -147 270l-172 -272c-5 -9 -17 -16 -28 -16c-22 0 -32 12 -32 32c0 5 2 11 5 16z" />
    <glyph glyph-name="Y" unicode="Y" horiz-adv-x="486" 
d="M460 613c0 -4 0 -7 -2 -12c-1 -1 -117 -287 -183 -346v-222c0 -19 -14 -33 -33 -33s-33 14 -33 33v222c-66 59 -167 308 -182 346c-1 4 -2 8 -2 12c0 17 13 30 34 30c16 0 27 -12 30 -22c8 -21 110 -256 153 -308c43 52 149 292 157 313c4 10 13 17 29 17
c21 0 32 -13 32 -30z" />
    <glyph glyph-name="Z" unicode="Z" horiz-adv-x="468" 
d="M410 0h-352c-19 0 -33 13 -33 32v11c0 12 3 22 8 31c40 80 232 379 315 505h-290c-19 0 -33 14 -33 33s14 31 33 31h337c19 0 33 -12 33 -31v-12c0 -13 -5 -27 -11 -36c-51 -72 -251 -388 -315 -500h308c19 0 33 -13 33 -32s-14 -32 -33 -32z" />
    <glyph glyph-name="bracketleft" unicode="[" horiz-adv-x="374" 
d="M247 -110h-119c-19 0 -33 12 -33 31v692c0 19 14 30 33 30h119c19 0 32 -11 32 -30s-13 -34 -32 -34h-86v-625h86c19 0 32 -14 32 -33s-13 -31 -32 -31z" />
    <glyph glyph-name="backslash" unicode="\" horiz-adv-x="415" 
d="M108 671l260 -693c2 -5 2 -8 2 -11c0 -18 -16 -32 -32 -32c-15 0 -28 9 -32 21l-259 693c-2 5 -3 8 -3 12c0 19 18 30 35 30c13 0 25 -8 29 -20z" />
    <glyph glyph-name="bracketright" unicode="]" horiz-adv-x="374" 
d="M247 -110h-119c-19 0 -33 12 -33 31s14 33 33 33h85v625h-85c-19 0 -33 15 -33 34s14 30 33 30h119c18 0 33 -11 33 -30v-692c0 -19 -14 -31 -33 -31z" />
    <glyph glyph-name="asciicircum" unicode="^" horiz-adv-x="518" 
d="M394 250l-134 284l-137 -284c-5 -9 -18 -17 -30 -17c-18 0 -33 13 -33 31c0 5 1 12 5 21l165 339c5 11 12 19 30 19c17 0 25 -8 29 -19l163 -339c4 -8 6 -14 6 -22c0 -16 -15 -31 -34 -31c-14 0 -26 8 -30 18z" />
    <glyph glyph-name="underscore" unicode="_" horiz-adv-x="512" 
d="M444 -95h-376c-19 0 -33 13 -33 32s14 32 33 32h376c19 0 33 -13 33 -32s-14 -32 -33 -32z" />
    <glyph glyph-name="grave" unicode="`" horiz-adv-x="335" 
d="M249 532c-4 0 -9 1 -15 4l-157 65c-11 5 -22 14 -22 30c0 20 13 33 30 33c3 0 7 -1 10 -2l162 -67c13 -6 22 -17 22 -31c0 -17 -12 -32 -30 -32z" />
    <glyph glyph-name="a" unicode="a" horiz-adv-x="457" 
d="M318 276v50c0 31 -25 78 -93 78c-53 0 -85 -14 -107 -26c-5 -3 -9 -5 -18 -5c-20 0 -32 16 -32 32c0 8 3 19 14 26c23 15 83 37 143 37c114 0 159 -81 159 -142v-221c0 -28 3 -35 10 -38c16 -7 28 -19 28 -35c0 -20 -14 -32 -32 -32c-6 0 -40 2 -56 35
c-23 -19 -67 -41 -125 -41c-79 0 -164 43 -164 142c0 93 67 140 194 140h79zM318 92v121h-79c-85 0 -126 -25 -126 -77c0 -53 49 -78 96 -78c52 0 99 21 109 34z" />
    <glyph glyph-name="b" unicode="b" horiz-adv-x="497" 
d="M75 63v592c0 19 14 33 33 33s33 -14 33 -33v-212c12 7 46 25 103 25c127 0 209 -94 209 -235c0 -143 -87 -239 -211 -239c-49 0 -123 16 -158 48c-5 6 -9 13 -9 21zM141 376v-296c32 -15 66 -22 101 -22c99 0 143 89 143 175c0 105 -55 171 -141 171
c-48 0 -92 -21 -103 -28z" />
    <glyph glyph-name="c" unicode="c" horiz-adv-x="469" 
d="M407 35c-44 -24 -99 -41 -151 -41c-125 0 -211 96 -211 239c0 133 101 235 230 235c44 0 90 -14 127 -38c9 -5 14 -16 14 -28c0 -18 -14 -32 -32 -32c-6 0 -12 1 -18 5c-27 19 -60 29 -91 29c-93 0 -162 -74 -162 -171c0 -86 43 -175 143 -175c39 0 83 14 119 34
c5 3 12 4 17 4c16 0 32 -13 32 -33c0 -11 -8 -22 -17 -28z" />
    <glyph glyph-name="d" unicode="d" horiz-adv-x="496" 
d="M357 443v212c0 19 15 33 33 33c19 0 33 -14 33 -33v-550c0 -28 4 -35 11 -38c16 -7 28 -17 28 -34c0 -19 -14 -33 -33 -33c-8 0 -39 4 -56 34c-25 -15 -69 -40 -117 -40c-125 0 -212 96 -212 238c0 138 88 236 217 236c52 0 83 -17 96 -25zM357 91v285
c-13 8 -52 28 -96 28c-88 0 -149 -69 -149 -171c0 -86 44 -175 144 -175c41 0 88 24 101 33z" />
    <glyph glyph-name="e" unicode="e" horiz-adv-x="468" 
d="M116 192c8 -73 55 -134 131 -134c56 0 117 31 128 35c6 3 13 4 17 4c17 0 31 -15 31 -32c0 -14 -8 -23 -16 -28c-4 -3 -81 -43 -160 -43c-120 0 -202 96 -202 236c0 144 81 238 207 238c108 0 168 -75 168 -134c0 -113 -117 -140 -304 -142zM252 404
c-79 0 -132 -54 -139 -152c172 3 239 28 239 82c0 29 -33 70 -100 70z" />
    <glyph glyph-name="f" unicode="f" horiz-adv-x="325" 
d="M89 33v365h-51c-19 0 -33 13 -33 32s14 32 33 32h52c11 199 132 223 185 223c26 0 53 -4 79 -14c14 -5 21 -17 21 -31c0 -18 -14 -30 -32 -30c-3 0 -7 0 -13 2c-16 5 -33 9 -55 9c-41 0 -112 -21 -119 -159h115c19 0 33 -13 33 -32s-14 -32 -33 -32h-116v-365
c0 -19 -14 -33 -33 -33s-33 14 -33 33z" />
    <glyph glyph-name="g" unicode="g" horiz-adv-x="489" 
d="M346 22c-16 -10 -59 -28 -103 -28c-123 0 -207 94 -207 239c0 137 87 235 216 235c65 0 124 -27 145 -40c6 -4 17 -14 17 -31v-346c0 -192 -146 -253 -254 -253c-80 0 -138 41 -146 47c-9 6 -14 18 -14 28c0 14 11 32 32 32c7 0 14 -2 21 -7c13 -9 53 -36 107 -36
c70 0 169 32 186 160zM348 94v288c-21 11 -51 22 -96 22c-90 0 -148 -72 -148 -171c0 -106 55 -175 139 -175c44 0 93 23 105 36z" />
    <glyph glyph-name="h" unicode="h" horiz-adv-x="498" 
d="M357 33v255c0 92 -26 116 -112 116c-50 0 -93 -21 -104 -27v-344c0 -19 -14 -33 -33 -33s-33 14 -33 33v622c0 19 14 33 33 33s33 -14 33 -33v-219c22 13 64 32 118 32c133 0 164 -65 164 -173v-262c0 -19 -15 -33 -33 -33c-19 0 -33 14 -33 33z" />
    <glyph glyph-name="i" unicode="i" horiz-adv-x="215" 
d="M75 33v396c0 19 14 33 33 33s33 -14 33 -33v-396c0 -19 -14 -33 -33 -33s-33 14 -33 33zM75 580v34c0 19 14 33 33 33s33 -14 33 -33v-34c0 -19 -14 -33 -33 -33s-33 14 -33 33z" />
    <glyph glyph-name="j" unicode="j" horiz-adv-x="217" 
d="M76 580v35c0 19 14 32 33 32s33 -13 33 -32v-35c0 -19 -14 -33 -33 -33s-33 15 -33 33zM76 -6v435c0 19 14 33 33 33s33 -14 33 -33v-435c0 -155 -104 -197 -165 -197c-63 0 -97 24 -106 31c-8 7 -15 18 -15 27c0 17 14 33 33 33c6 0 15 -2 24 -9c2 -2 20 -18 64 -18
c37 0 99 30 99 133z" />
    <glyph glyph-name="k" unicode="k" horiz-adv-x="433" 
d="M413 51c4 -6 6 -13 6 -19c0 -17 -14 -32 -33 -32c-11 0 -19 5 -25 14c-88 126 -174 194 -199 209h-21v-190c0 -19 -14 -33 -32 -33c-20 0 -34 14 -34 33v622c0 19 14 33 34 33c18 0 32 -14 32 -33v-368h12l164 165c8 8 16 10 25 10c19 0 33 -15 33 -32
c0 -8 -2 -16 -10 -24l-147 -145c43 -30 118 -95 195 -210z" />
    <glyph glyph-name="l" unicode="l" horiz-adv-x="239" 
d="M75 170v485c0 19 14 33 33 33s33 -14 33 -33v-485c0 -91 11 -106 51 -106c19 0 33 -13 33 -32s-14 -32 -33 -32c-90 0 -117 39 -117 170z" />
    <glyph glyph-name="m" unicode="m" horiz-adv-x="756" 
d="M615 33v255c0 92 -29 116 -108 116c-42 0 -80 -11 -107 -26c7 -22 11 -47 11 -80v-265c0 -19 -14 -33 -33 -33s-33 14 -33 33v255c0 92 -27 116 -106 116c-53 0 -87 -20 -98 -27v-344c0 -19 -14 -33 -33 -33s-33 14 -33 33v397c0 19 12 32 31 32c21 0 31 -13 31 -29
c10 7 53 35 116 35c57 0 97 -13 122 -42c41 26 91 42 146 42c110 0 160 -49 160 -170v-265c0 -19 -15 -33 -34 -33s-32 14 -32 33z" />
    <glyph glyph-name="n" unicode="n" horiz-adv-x="497" 
d="M356 33v255c0 92 -27 116 -111 116c-50 0 -93 -21 -104 -27v-344c0 -19 -14 -33 -33 -33s-33 14 -33 33v397c0 19 12 32 31 32s31 -13 31 -29c12 7 58 35 122 35c116 0 163 -50 163 -170v-265c0 -19 -14 -33 -33 -33s-33 14 -33 33z" />
    <glyph glyph-name="o" unicode="o" horiz-adv-x="493" 
d="M247 -6c-120 0 -202 96 -202 236c0 143 82 238 202 238c119 0 201 -95 201 -238c0 -145 -77 -236 -201 -236zM247 58c84 0 133 66 133 172c0 107 -51 174 -133 174s-134 -68 -134 -174c0 -103 51 -172 134 -172z" />
    <glyph glyph-name="p" unicode="p" horiz-adv-x="497" 
d="M75 -190v620c0 17 12 32 31 32s31 -15 31 -28c13 9 50 34 106 34c125 0 210 -93 210 -234c0 -139 -89 -240 -217 -240c-41 0 -87 19 -95 24v-208c0 -19 -14 -33 -33 -33s-33 14 -33 33zM141 376v-289c16 -10 55 -29 95 -29c91 0 149 78 149 176c0 103 -55 170 -142 170
c-48 0 -89 -20 -102 -28z" />
    <glyph glyph-name="q" unicode="q" horiz-adv-x="498" 
d="M357 -192v209c-28 -13 -64 -23 -104 -23c-126 0 -208 96 -208 238c0 143 87 236 212 236c54 0 109 -17 150 -41c6 -4 16 -13 16 -28v-591c0 -19 -14 -33 -33 -33s-33 14 -33 33zM357 86v295c-29 13 -64 23 -100 23c-100 0 -144 -86 -144 -172c0 -105 55 -174 140 -174
c43 0 93 20 104 28z" />
    <glyph glyph-name="r" unicode="r" horiz-adv-x="352" 
d="M75 33v397c0 19 14 32 33 32s32 -13 32 -32v-47c9 34 56 85 122 85c22 0 73 -5 73 -38c0 -19 -10 -32 -32 -32c-12 0 -28 6 -41 6c-38 0 -121 -19 -121 -190v-181c0 -19 -14 -33 -33 -33s-33 14 -33 33z" />
    <glyph glyph-name="s" unicode="s" horiz-adv-x="412" 
d="M367 126c0 -72 -65 -132 -160 -132c-79 0 -140 37 -147 42c-9 7 -15 15 -15 30c0 18 16 31 32 31c9 0 14 -2 19 -5c9 -6 55 -34 111 -34c46 0 92 13 92 68c0 93 -235 73 -235 218c0 86 81 124 156 124c54 0 97 -17 116 -28c10 -5 16 -14 16 -28c0 -19 -14 -31 -31 -31
c-6 0 -13 1 -20 4c-15 7 -44 19 -81 19c-44 0 -88 -14 -88 -60c0 -87 235 -68 235 -218z" />
    <glyph glyph-name="t" unicode="t" horiz-adv-x="354" 
d="M85 171v227h-50c-19 0 -33 14 -33 33s14 31 33 31h50v104c0 19 14 33 33 33s33 -14 33 -33v-104h118c19 0 33 -12 33 -31s-14 -33 -33 -33h-118v-227c0 -99 51 -113 95 -113c22 0 39 8 46 12c4 2 9 4 15 4c17 0 32 -12 32 -32c0 -14 -7 -24 -16 -29s-40 -19 -74 -19
c-81 0 -164 22 -164 177z" />
    <glyph glyph-name="u" unicode="u" horiz-adv-x="497" 
d="M391 0c-19 0 -31 14 -31 32v4c-15 -13 -59 -42 -122 -42c-117 0 -163 49 -163 169v266c0 19 14 33 33 33s33 -14 33 -33v-256c0 -91 25 -115 111 -115c49 0 89 25 104 39v332c0 19 14 33 33 33s33 -14 33 -33v-396c0 -19 -12 -33 -31 -33z" />
    <glyph glyph-name="v" unicode="v" horiz-adv-x="433" 
d="M217 73c50 117 113 294 138 366c5 14 16 23 31 23c19 0 33 -13 33 -31c0 -4 -1 -11 -4 -20c-9 -25 -114 -313 -154 -389c-6 -11 -23 -22 -44 -22c-25 0 -39 12 -44 22c-40 76 -145 364 -154 389c-3 9 -4 16 -4 21c0 18 15 30 33 30c16 0 27 -10 31 -23
c25 -72 88 -249 138 -366z" />
    <glyph glyph-name="w" unicode="w" horiz-adv-x="643" 
d="M628 429c0 -4 -1 -11 -2 -16c-14 -60 -90 -346 -116 -392c-9 -14 -26 -21 -44 -21c-13 0 -31 2 -41 22c-17 32 -90 247 -103 328c-13 -81 -86 -296 -103 -328c-10 -18 -27 -22 -41 -22c-17 0 -34 4 -44 21c-26 45 -103 332 -117 392c-1 5 -2 13 -2 17c0 18 11 32 33 32
c19 0 29 -11 32 -25c1 -5 58 -254 97 -359c27 76 91 300 105 354c4 16 18 30 40 30c21 0 35 -14 39 -30c14 -54 78 -278 105 -354c39 105 96 353 97 358c3 14 14 26 33 26c21 0 32 -15 32 -33z" />
    <glyph glyph-name="x" unicode="x" horiz-adv-x="395" 
d="M21 51l145 203c-55 70 -110 125 -130 146l-7 7c-5 6 -10 13 -10 23c0 19 18 32 34 32c8 0 15 -2 25 -11c18 -17 73 -72 128 -142l99 139c8 10 17 14 27 14c19 0 34 -14 34 -33c0 -10 -4 -16 -8 -21l-111 -151c53 -70 100 -145 128 -206c3 -6 5 -13 5 -19
c0 -19 -14 -32 -33 -32s-26 10 -30 19c-33 69 -74 131 -110 182l-132 -187c-6 -9 -19 -14 -27 -14c-19 0 -33 15 -33 32c0 8 1 12 6 19z" />
    <glyph glyph-name="y" unicode="y" horiz-adv-x="421" 
d="M220 104c24 67 83 224 123 336c5 12 14 22 31 22c19 0 33 -13 33 -32c0 -5 -2 -10 -4 -15l-134 -369c-71 -198 -138 -250 -231 -250c-74 0 -107 25 -135 49c-6 5 -12 14 -12 26c0 18 17 32 33 32c7 0 14 -3 19 -7c21 -17 43 -36 95 -36c59 0 100 25 152 161
c-6 4 -13 16 -19 27c-57 109 -146 356 -151 372c-1 3 -2 6 -2 12c0 20 16 30 34 30s26 -12 31 -25c14 -38 77 -219 122 -307c5 -10 10 -20 15 -26z" />
    <glyph glyph-name="z" unicode="z" horiz-adv-x="454" 
d="M79 462h280c22 0 33 -12 33 -32v-8c0 -10 -4 -22 -11 -34c-48 -71 -214 -259 -254 -324h249c20 0 33 -12 33 -31s-13 -33 -33 -33h-299c-20 0 -32 14 -32 33v7c0 10 4 18 8 25c27 54 186 248 256 333h-230c-19 0 -33 12 -33 31c0 18 14 33 33 33z" />
    <glyph glyph-name="braceleft" unicode="{" horiz-adv-x="372" 
d="M258 -47c23 0 39 -8 39 -30s-18 -34 -44 -34c-60 0 -139 18 -139 103v204c0 33 -18 38 -25 43s-14 12 -14 29s7 24 14 29s25 10 25 43v204c0 73 58 105 134 105c23 0 50 -6 50 -33c0 -22 -17 -31 -40 -31c-39 0 -78 -10 -78 -44v-201c0 -36 -12 -59 -23 -72
c11 -13 23 -34 23 -70v-202c0 -34 39 -43 78 -43z" />
    <glyph glyph-name="bar" unicode="|" horiz-adv-x="262" 
d="M98 -32v668c0 19 13 33 33 33c19 0 33 -14 33 -33v-668c0 -19 -14 -33 -33 -33s-33 14 -33 33z" />
    <glyph glyph-name="braceright" unicode="}" horiz-adv-x="372" 
d="M115 -47c39 0 78 9 78 43v202c0 36 12 57 23 70c-11 13 -23 36 -23 72v201c0 34 -39 44 -78 44c-23 0 -40 9 -40 31c0 27 27 33 50 33c76 0 134 -32 134 -105v-204c0 -33 18 -38 25 -43s14 -12 14 -29s-7 -24 -14 -29s-25 -10 -25 -43v-204c0 -85 -79 -103 -139 -103
c-26 0 -44 12 -44 34s16 30 39 30z" />
    <glyph glyph-name="asciitilde" unicode="~" horiz-adv-x="391" 
d="M331 439c-10 -16 -33 -35 -76 -35c-50 0 -68 21 -118 21c-22 0 -34 -19 -50 -19s-31 7 -31 28c0 6 1 11 5 18c10 16 33 35 76 35c50 0 68 -21 118 -21c22 0 34 19 50 19s31 -10 31 -31c0 -5 -1 -9 -5 -15z" />
    <glyph glyph-name="uni00A0" unicode="&#xa0;" horiz-adv-x="316" 
 />
    <glyph glyph-name="exclamdown" unicode="&#xa1;" horiz-adv-x="255" 
d="M95 -137v431c0 19 14 33 33 33s33 -14 33 -33v-431c0 -19 -14 -33 -33 -33s-33 14 -33 33zM95 410v34c0 18 14 32 33 32s33 -14 33 -32v-34c0 -19 -14 -33 -33 -33s-33 14 -33 33z" />
    <glyph glyph-name="cent" unicode="&#xa2;" horiz-adv-x="628" 
d="M309 -27v23c-110 12 -184 104 -184 237c0 116 77 209 184 230v30c0 19 14 33 33 33s33 -14 33 -33v-26c37 -4 75 -17 107 -37c9 -5 14 -16 14 -28c0 -18 -14 -32 -32 -32c-6 0 -12 1 -18 5c-27 19 -60 29 -91 29c-93 0 -162 -74 -162 -171c0 -86 43 -175 143 -175
c39 0 83 14 119 34c5 3 12 4 17 4c16 0 32 -13 32 -33c0 -11 -8 -22 -17 -28c-33 -18 -73 -32 -112 -38v-24c0 -19 -14 -33 -33 -33s-33 14 -33 33z" />
    <glyph glyph-name="sterling" unicode="&#xa3;" horiz-adv-x="667" 
d="M509 0h-351c-19 0 -33 13 -33 32c0 13 4 23 14 30c57 37 74 72 74 115c0 25 -4 62 -10 94h-42c-19 0 -33 14 -33 33s14 31 33 31h33c-1 16 -2 30 -2 46c0 175 96 253 188 253c23 0 59 -3 81 -17c7 -4 19 -12 19 -29c0 -15 -9 -31 -26 -31c-7 0 -11 1 -17 3
c-17 6 -36 11 -57 11c-61 0 -122 -61 -122 -190c0 -16 1 -30 3 -46h147c19 0 32 -12 32 -31s-13 -33 -32 -33h-139l5 -30c2 -22 5 -44 5 -64c0 -58 -30 -98 -51 -113h281c19 0 33 -13 33 -32s-14 -32 -33 -32z" />
    <glyph glyph-name="currency" unicode="&#xa4;" horiz-adv-x="575" 
d="M436 97c-13 0 -21 8 -38 26c-31 -22 -70 -35 -111 -35c-42 0 -79 11 -110 35c-17 -18 -25 -26 -38 -26c-19 0 -35 16 -35 33c0 8 4 17 11 24l16 15c-22 31 -37 70 -37 111c0 42 13 80 37 110l-17 17c-5 5 -10 13 -10 23c0 19 17 33 34 33c8 0 16 -2 24 -9l17 -17
c30 20 70 34 108 34c43 0 80 -11 111 -34l17 17c8 8 15 9 23 9c17 0 33 -16 33 -35c0 -10 -3 -16 -8 -21l-18 -17c21 -30 35 -70 35 -110c0 -42 -13 -78 -36 -109l16 -16c7 -7 11 -16 11 -25c0 -17 -16 -33 -35 -33zM287 152c70 0 125 59 125 128s-55 127 -125 127
c-68 0 -125 -58 -125 -127s57 -128 125 -128z" />
    <glyph glyph-name="yen" unicode="&#xa5;" horiz-adv-x="679" 
d="M510 132h-137v-99c0 -19 -14 -33 -33 -33s-33 14 -33 33v99h-153c-18 0 -32 13 -32 32s14 32 32 32h153v59h-153c-17 0 -32 13 -32 32s14 32 32 32h106c-53 99 -106 218 -132 275c-2 5 -5 10 -5 21c0 14 11 28 32 28s28 -12 34 -26c72 -150 112 -242 144 -298h12
c31 50 74 148 146 298c7 14 15 26 36 26s30 -18 30 -28c0 -11 -2 -15 -5 -21c-26 -57 -80 -176 -134 -275h92c18 0 32 -13 32 -32s-15 -32 -32 -32h-137v-59h137c18 0 32 -13 32 -32s-14 -32 -32 -32z" />
    <glyph glyph-name="brokenbar" unicode="&#xa6;" horiz-adv-x="255" 
d="M95 471v237c0 19 14 33 33 33s33 -14 33 -33v-237c0 -19 -14 -33 -33 -33s-33 14 -33 33zM95 33v237c0 19 14 33 33 33s33 -14 33 -33v-237c0 -19 -14 -33 -33 -33s-33 14 -33 33z" />
    <glyph glyph-name="section" unicode="&#xa7;" horiz-adv-x="631" 
d="M402 175c36 -25 64 -60 64 -116c0 -76 -65 -148 -165 -148c-72 0 -133 35 -142 41s-14 16 -14 28c0 18 16 31 31 31c8 0 14 -2 21 -6c12 -6 56 -33 110 -33c59 0 91 39 91 80c0 124 -250 92 -250 255c0 59 46 104 98 126c-42 26 -76 59 -76 118c0 87 81 125 156 125
c48 0 96 -18 120 -31c11 -6 19 -15 19 -30c0 -19 -14 -33 -31 -33c-11 0 -15 4 -23 8c-16 9 -51 25 -89 25c-34 0 -84 -13 -84 -60c1 -111 250 -86 250 -257c0 -55 -31 -98 -86 -123zM311 400c-44 -12 -97 -43 -97 -89c0 -56 62 -76 125 -104c45 13 83 42 83 84
c0 58 -53 83 -111 109z" />
    <glyph glyph-name="dieresis" unicode="&#xa8;" horiz-adv-x="303" 
d="M55 565v34c0 19 14 32 33 32s33 -13 33 -32v-34c0 -19 -14 -33 -33 -33s-33 14 -33 33zM182 565v34c0 19 14 32 33 32s33 -13 33 -32v-34c0 -19 -14 -33 -33 -33s-33 14 -33 33z" />
    <glyph glyph-name="copyright" unicode="&#xa9;" horiz-adv-x="842" 
d="M528 568c8 -7 11 -13 11 -21c0 -12 -12 -23 -24 -23c-3 0 -8 0 -13 3c-16 10 -39 23 -78 23c-64 0 -112 -59 -112 -135c0 -77 44 -135 106 -135c31 0 56 8 81 23c3 2 9 3 13 3c15 0 25 -10 25 -24c0 -10 -6 -17 -9 -19c-34 -22 -70 -30 -110 -30c-90 0 -156 77 -156 182
c0 104 69 182 162 182c50 0 87 -16 104 -29zM748 409c0 -180 -147 -326 -328 -326c-179 0 -325 146 -325 326c0 179 146 326 325 326c181 0 328 -147 328 -326zM699 409c0 151 -126 278 -279 278c-151 0 -276 -127 -276 -278c0 -153 125 -279 276 -279
c153 0 279 126 279 279z" />
    <glyph glyph-name="ordfeminine" unicode="&#xaa;" horiz-adv-x="554" 
d="M330 505v33c0 30 -23 50 -58 50c-52 0 -73 -23 -92 -23c-18 0 -33 15 -33 32c0 5 1 9 4 14c13 21 54 41 121 41c115 0 124 -108 124 -114v-172c0 -14 26 -18 26 -41c0 -22 -11 -35 -33 -35c-6 0 -28 4 -40 23c-24 -16 -55 -28 -88 -28c-63 0 -131 35 -131 113
c0 74 53 107 151 107h49zM330 371v77h-49c-57 0 -83 -17 -83 -50c0 -35 32 -51 63 -51s53 7 69 24z" />
    <glyph glyph-name="guillemotleft" unicode="&#xab;" horiz-adv-x="441" 
d="M169 61l-100 151c-2 4 -4 9 -4 17c0 7 1 12 5 18l99 144c7 8 16 13 27 13c19 0 33 -14 33 -32c0 -5 -2 -12 -7 -19l-87 -124l89 -131c4 -7 6 -12 6 -18c0 -18 -16 -33 -35 -33c-9 0 -19 5 -26 14zM315 61l-100 151c-2 4 -4 9 -4 17c0 7 1 12 5 18l99 144c7 8 16 13 27 13
c19 0 33 -14 33 -32c0 -5 -2 -12 -7 -19l-87 -124l89 -131c4 -7 6 -12 6 -18c0 -18 -15 -33 -34 -33c-10 0 -20 5 -27 14z" />
    <glyph glyph-name="logicalnot" unicode="&#xac;" 
d="M455 111v93h-344c-19 0 -33 14 -33 33s14 31 33 31h377c19 0 33 -12 33 -31v-126c0 -19 -14 -33 -33 -33c-18 0 -33 14 -33 33z" />
    <glyph glyph-name="uni00AD" unicode="&#xad;" horiz-adv-x="439" 
d="M331 204h-223c-19 0 -33 13 -33 32c0 18 14 32 33 32h223c19 0 33 -14 33 -32c0 -19 -14 -32 -33 -32z" />
    <glyph glyph-name="registered" unicode="&#xae;" horiz-adv-x="842" 
d="M543 269c1 -3 1 -7 1 -9c0 -13 -10 -23 -24 -23c-10 0 -20 6 -23 18c-27 87 -63 140 -95 140h-38v-134c0 -14 -7 -24 -24 -24c-14 0 -24 10 -24 24v310c0 15 11 25 24 25h80c62 0 108 -41 108 -98c0 -66 -47 -88 -59 -90c31 -27 53 -73 74 -139zM364 441h56
c14 0 58 5 58 57c0 29 -24 51 -58 51h-56v-108zM421 83c-180 0 -326 146 -326 326c0 179 146 326 326 326c181 0 327 -147 327 -326c0 -180 -146 -326 -327 -326zM699 409c0 151 -125 278 -278 278c-152 0 -277 -127 -277 -278c0 -153 125 -279 277 -279
c153 0 278 126 278 279z" />
    <glyph glyph-name="macron" unicode="&#xaf;" horiz-adv-x="399" 
d="M311 532h-223c-19 0 -33 14 -33 33s14 31 33 31h223c19 0 33 -12 33 -31s-14 -33 -33 -33z" />
    <glyph glyph-name="degree" unicode="&#xb0;" horiz-adv-x="455" 
d="M226 256c-94 0 -152 65 -152 176c0 106 60 178 152 178s156 -72 156 -178c0 -111 -61 -176 -156 -176zM226 319c54 0 88 44 88 113c0 56 -27 115 -88 115c-62 0 -84 -63 -84 -115c0 -69 32 -113 84 -113z" />
    <glyph glyph-name="plusminus" unicode="&#xb1;" 
d="M477 284h-144v-145c0 -19 -14 -33 -33 -33s-33 14 -33 33v145h-144c-19 0 -33 14 -33 33s14 31 33 31h144v145c0 19 14 33 33 33s33 -14 33 -33v-145h144c19 0 33 -12 33 -31s-14 -33 -33 -33zM477 0h-354c-19 0 -33 13 -33 32s14 32 33 32h354c19 0 33 -13 33 -32
s-14 -32 -33 -32z" />
    <glyph glyph-name="twosuperior" unicode="&#xb2;" horiz-adv-x="403" 
d="M271 302h-156c-11 0 -24 9 -24 24c0 42 41 84 80 123c37 37 73 73 73 100c0 41 -31 49 -50 49c-26 0 -47 -12 -53 -17c-3 -2 -9 -6 -18 -6c-13 0 -23 12 -23 25c0 8 5 16 12 21c10 8 38 25 82 25c30 0 101 -9 101 -97c0 -48 -43 -91 -86 -132c-25 -24 -47 -48 -59 -67
h121c15 0 25 -9 25 -24s-10 -24 -25 -24z" />
    <glyph glyph-name="threesuperior" unicode="&#xb3;" horiz-adv-x="410" 
d="M186 451h-14c-14 0 -24 8 -24 24c0 15 10 24 24 24h14c30 0 62 15 62 50c0 44 -38 49 -54 49c-24 0 -43 -11 -52 -18c-3 -2 -9 -5 -15 -5c-12 0 -24 10 -24 25c0 9 5 16 10 19c6 5 37 27 81 27c54 0 105 -25 105 -95c0 -32 -14 -63 -40 -75c26 -12 46 -45 46 -76
c0 -59 -51 -101 -110 -101c-63 0 -93 26 -95 28c-4 4 -8 9 -8 19c0 15 13 24 25 24c5 0 12 -2 20 -8s26 -15 58 -15c33 0 59 24 59 52c0 39 -35 52 -68 52z" />
    <glyph glyph-name="acute" unicode="&#xb4;" horiz-adv-x="335" 
d="M260 602l-160 -67c-5 -2 -9 -3 -13 -3c-17 0 -32 12 -32 30c0 15 6 25 21 31l159 67c6 2 8 3 13 3c19 0 33 -13 33 -31s-11 -25 -21 -30z" />
    <glyph glyph-name="uni00B5" unicode="&#xb5;" horiz-adv-x="496" 
d="M392 0c-19 0 -31 14 -31 28c-27 -17 -63 -34 -109 -34c-75 0 -107 25 -111 41v-111c0 -19 -14 -33 -33 -33s-33 14 -33 33v507c0 19 14 32 33 32s33 -13 33 -32v-265c0 -83 29 -108 111 -108c48 0 93 27 105 38v335c0 19 14 32 33 32c18 0 33 -13 33 -32v-398
c0 -19 -12 -33 -31 -33z" />
    <glyph glyph-name="paragraph" unicode="&#xb6;" horiz-adv-x="621" 
d="M429 -51v630h-51v-630c0 -19 -14 -33 -33 -33s-33 14 -33 33v332h-52c-85 0 -185 50 -185 189c0 99 80 173 185 173h253c19 0 33 -13 33 -32s-14 -32 -33 -32h-18v-630c0 -19 -15 -33 -33 -33c-19 0 -33 14 -33 33z" />
    <glyph glyph-name="periodcentered" unicode="&#xb7;" horiz-adv-x="234" 
d="M117 225c-24 0 -42 17 -42 41c0 25 18 43 42 43s42 -18 42 -43c0 -24 -18 -41 -42 -41z" />
    <glyph glyph-name="cedilla" unicode="&#xb8;" horiz-adv-x="267" 
d="M57 -65l17 77c3 13 9 16 18 16c15 0 16 -9 16 -19c0 -3 -12 -49 -14 -57c8 3 25 7 40 7c43 0 78 -32 78 -84c0 -61 -50 -91 -96 -91c-36 0 -56 14 -56 31c0 13 8 22 23 22c6 0 15 -6 36 -6c19 0 45 16 45 44c0 26 -16 39 -34 39c-38 0 -38 -13 -54 -13
c-12 0 -21 7 -21 18c0 7 1 12 2 16z" />
    <glyph glyph-name="onesuperior" unicode="&#xb9;" horiz-adv-x="310" 
d="M155 302c-15 0 -25 11 -25 26v244l-20 -12c-3 -2 -6 -3 -11 -3c-12 0 -23 9 -23 25c0 8 6 17 12 21l52 35c3 2 8 5 16 5c12 0 24 -9 24 -26v-289c0 -15 -10 -26 -25 -26z" />
    <glyph glyph-name="ordmasculine" unicode="&#xba;" horiz-adv-x="577" 
d="M289 285c-93 0 -159 74 -159 181c0 111 66 186 159 186c92 0 158 -75 158 -186c0 -112 -61 -181 -158 -181zM289 349c56 0 90 45 90 117c0 74 -35 122 -90 122s-91 -49 -91 -122c0 -70 36 -117 91 -117z" />
    <glyph glyph-name="guillemotright" unicode="&#xbb;" horiz-adv-x="441" 
d="M217 98l88 131l-87 124c-5 7 -6 14 -6 19c0 18 14 32 32 32c12 0 21 -5 28 -13l99 -144c3 -6 5 -11 5 -18c0 -8 -2 -13 -5 -17l-99 -151c-7 -9 -17 -14 -27 -14c-19 0 -34 15 -34 33c0 6 2 11 6 18zM71 98l88 131l-87 124c-5 7 -7 14 -7 19c0 18 15 32 33 32
c12 0 21 -5 27 -13l100 -144c3 -6 5 -11 5 -18c0 -8 -2 -13 -5 -17l-100 -151c-6 -9 -17 -14 -26 -14c-19 0 -34 15 -34 33c0 6 1 11 6 18z" />
    <glyph glyph-name="onequarter" unicode="&#xbc;" horiz-adv-x="755" 
d="M147 44l405 592c5 8 14 13 26 13c13 0 22 -12 22 -21c0 -11 -3 -18 -7 -23l-405 -592c-5 -8 -14 -13 -26 -13c-13 0 -22 12 -22 21c0 11 4 19 7 23zM206 302c-15 0 -25 11 -25 26v244l-20 -12c-3 -2 -6 -3 -11 -3c-12 0 -23 9 -23 25c0 8 6 17 12 21l52 35c3 2 8 5 16 5
c12 0 24 -9 24 -26v-289c0 -15 -10 -26 -25 -26zM531 26v55h-125c-18 0 -25 12 -25 24c0 3 0 4 3 12c54 118 146 212 150 216c5 6 11 8 20 8c14 0 24 -12 24 -23c0 -9 -4 -16 -8 -20c-1 -1 -79 -79 -127 -169h88v67c0 16 11 26 25 26c13 0 25 -10 25 -26v-67h13
c17 0 27 -8 27 -24c0 -14 -10 -24 -27 -24h-13v-55c0 -15 -12 -26 -25 -26c-14 0 -25 11 -25 26z" />
    <glyph glyph-name="onehalf" unicode="&#xbd;" horiz-adv-x="809" 
d="M206 302c-15 0 -25 11 -25 26v244l-20 -12c-3 -2 -6 -3 -11 -3c-12 0 -23 9 -23 25c0 8 6 17 12 21l52 35c3 2 8 5 16 5c12 0 24 -9 24 -26v-289c0 -15 -10 -26 -25 -26zM651 0h-156c-11 0 -24 9 -24 24c0 42 41 84 80 123c37 37 73 73 73 100c0 41 -31 49 -50 49
c-26 0 -47 -12 -53 -17c-3 -2 -9 -6 -18 -6c-13 0 -23 12 -23 25c0 8 5 16 12 21c10 8 38 25 82 25c30 0 101 -9 101 -97c0 -48 -43 -91 -86 -132c-25 -24 -47 -48 -59 -67h121c15 0 25 -9 25 -24s-10 -24 -25 -24zM147 44l405 592c5 8 14 13 26 13c13 0 22 -12 22 -21
c0 -11 -3 -18 -7 -23l-405 -592c-5 -8 -14 -13 -26 -13c-13 0 -22 12 -22 21c0 11 4 19 7 23z" />
    <glyph glyph-name="threequarters" unicode="&#xbe;" horiz-adv-x="816" 
d="M591 26v55h-125c-18 0 -25 12 -25 24c0 3 0 4 3 12c54 118 146 212 150 216c5 6 11 8 20 8c14 0 24 -12 24 -23c0 -9 -4 -16 -8 -20c-1 -1 -79 -79 -127 -169h88v67c0 16 11 26 25 26c13 0 25 -10 25 -26v-67h13c17 0 27 -8 27 -24c0 -14 -10 -24 -27 -24h-13v-55
c0 -15 -12 -26 -25 -26c-14 0 -25 11 -25 26zM186 451h-14c-14 0 -24 8 -24 24c0 15 10 24 24 24h14c30 0 62 15 62 50c0 44 -38 49 -54 49c-24 0 -43 -11 -52 -18c-3 -2 -9 -5 -15 -5c-12 0 -24 10 -24 25c0 9 5 16 10 19c6 5 37 27 81 27c54 0 105 -25 105 -95
c0 -32 -14 -63 -40 -75c26 -12 46 -45 46 -76c0 -59 -51 -101 -110 -101c-63 0 -93 26 -95 28c-4 4 -8 9 -8 19c0 15 13 24 25 24c5 0 12 -2 20 -8s26 -15 58 -15c33 0 59 24 59 52c0 39 -35 52 -68 52zM202 44l405 592c5 8 14 13 26 13c13 0 22 -12 22 -21
c0 -11 -3 -18 -7 -23l-405 -592c-5 -8 -14 -13 -26 -13c-13 0 -22 12 -22 21c0 11 4 19 7 23z" />
    <glyph glyph-name="questiondown" unicode="&#xbf;" horiz-adv-x="511" 
d="M414 -119c-3 -3 -59 -51 -149 -51c-104 0 -183 78 -183 188c0 152 175 134 175 278c0 19 14 33 33 33s33 -14 33 -33c0 -173 -173 -167 -173 -278c0 -72 47 -124 115 -124c54 0 97 30 108 38c7 5 14 7 22 7c18 0 32 -15 32 -34c0 -9 -4 -17 -13 -24zM257 410v34
c0 18 14 32 33 32s33 -14 33 -32v-34c0 -19 -14 -33 -33 -33s-33 14 -33 33z" />
    <glyph glyph-name="Agrave" unicode="&#xc0;" horiz-adv-x="565" 
d="M538 45c1 -4 3 -11 3 -15c0 -17 -12 -30 -34 -30c-17 0 -24 7 -29 22c-10 29 -30 94 -56 169h-280c-25 -75 -43 -140 -53 -169c-5 -15 -15 -22 -32 -22c-22 0 -32 13 -32 30c0 4 2 11 3 15c5 17 135 443 206 575c8 17 23 23 48 23c22 0 42 -5 49 -24
c61 -125 197 -543 207 -574zM164 255h237c-35 105 -72 212 -119 321c-47 -109 -83 -216 -118 -321zM333 732c-4 0 -9 1 -15 4l-157 65c-11 5 -22 14 -22 30c0 20 13 33 30 33c3 0 7 -1 10 -2l162 -67c13 -6 22 -17 22 -31c0 -17 -12 -32 -30 -32z" />
    <glyph glyph-name="Aacute" unicode="&#xc1;" horiz-adv-x="565" 
d="M538 45c1 -4 3 -11 3 -15c0 -17 -12 -30 -34 -30c-17 0 -24 7 -29 22c-10 29 -30 94 -56 169h-280c-25 -75 -43 -140 -53 -169c-5 -15 -15 -22 -32 -22c-22 0 -32 13 -32 30c0 4 2 11 3 15c5 17 135 443 206 575c8 17 23 23 48 23c22 0 42 -5 49 -24
c61 -125 197 -543 207 -574zM164 255h237c-35 105 -72 212 -119 321c-47 -109 -83 -216 -118 -321zM405 802l-160 -67c-5 -2 -9 -3 -13 -3c-17 0 -32 12 -32 30c0 15 6 25 21 31l159 67c6 2 8 3 13 3c19 0 33 -13 33 -31s-11 -25 -21 -30z" />
    <glyph glyph-name="Acircumflex" unicode="&#xc2;" horiz-adv-x="565" 
d="M538 45c1 -4 3 -11 3 -15c0 -17 -12 -30 -34 -30c-17 0 -24 7 -29 22c-10 29 -30 94 -56 169h-280c-25 -75 -43 -140 -53 -169c-5 -15 -15 -22 -32 -22c-22 0 -32 13 -32 30c0 4 2 11 3 15c5 17 135 443 206 575c8 17 23 23 48 23c22 0 42 -5 49 -24
c61 -125 197 -543 207 -574zM164 255h237c-35 105 -72 212 -119 321c-47 -109 -83 -216 -118 -321zM387 737l-104 55l-105 -55c-6 -3 -11 -5 -17 -5c-18 0 -32 14 -32 31c0 9 4 22 17 28l121 64c5 3 11 5 16 5s11 -2 16 -5l122 -65c11 -5 15 -19 15 -27
c0 -19 -15 -31 -33 -31c-6 0 -11 2 -16 5z" />
    <glyph glyph-name="Atilde" unicode="&#xc3;" horiz-adv-x="565" 
d="M538 45c1 -4 3 -11 3 -15c0 -17 -12 -30 -34 -30c-17 0 -24 7 -29 22c-10 29 -30 94 -56 169h-280c-25 -75 -43 -140 -53 -169c-5 -15 -15 -22 -32 -22c-22 0 -32 13 -32 30c0 4 2 11 3 15c5 17 135 443 206 575c8 17 23 23 48 23c22 0 42 -5 49 -24
c61 -125 197 -543 207 -574zM164 255h237c-35 105 -72 212 -119 321c-47 -109 -83 -216 -118 -321zM419 767c-10 -16 -33 -35 -76 -35c-50 0 -68 21 -118 21c-22 0 -34 -19 -50 -19s-31 7 -31 28c0 6 1 13 5 20c10 16 33 35 76 35c50 0 68 -21 118 -21c22 0 34 19 50 19
s31 -10 31 -31c0 -5 -1 -11 -5 -17z" />
    <glyph glyph-name="Adieresis" unicode="&#xc4;" horiz-adv-x="565" 
d="M538 45c1 -4 3 -11 3 -15c0 -17 -12 -30 -34 -30c-17 0 -24 7 -29 22c-10 29 -30 94 -56 169h-280c-25 -75 -43 -140 -53 -169c-5 -15 -15 -22 -32 -22c-22 0 -32 13 -32 30c0 4 2 11 3 15c5 17 135 443 206 575c8 17 23 23 48 23c22 0 42 -5 49 -24
c61 -125 197 -543 207 -574zM164 255h237c-35 105 -72 212 -119 321c-47 -109 -83 -216 -118 -321zM186 765v34c0 19 14 32 33 32s33 -13 33 -32v-34c0 -19 -14 -33 -33 -33s-33 14 -33 33zM313 765v34c0 19 14 32 33 32s33 -13 33 -32v-34c0 -19 -14 -33 -33 -33
s-33 14 -33 33z" />
    <glyph glyph-name="Aring" unicode="&#xc5;" horiz-adv-x="565" 
d="M538 45c1 -4 3 -11 3 -15c0 -17 -12 -30 -34 -30c-17 0 -24 7 -29 22c-10 29 -30 94 -56 169h-280c-25 -75 -43 -140 -53 -169c-5 -15 -15 -22 -32 -22c-22 0 -32 13 -32 30c0 4 2 11 3 15c5 17 135 443 206 575c8 17 23 23 48 23c22 0 42 -5 49 -24
c61 -125 197 -543 207 -574zM164 255h237c-35 105 -72 212 -119 321c-47 -109 -83 -216 -118 -321zM287 733c-48 0 -85 36 -85 84s37 84 85 84s85 -36 85 -84s-37 -84 -85 -84zM326 818c0 21 -18 37 -39 37s-39 -16 -39 -37s18 -39 39 -39s39 18 39 39z" />
    <glyph glyph-name="AE" unicode="&#xc6;" horiz-adv-x="788" 
d="M690 0h-236c-20 0 -33 13 -33 33c0 40 -3 145 -15 272c-91 -4 -177 -29 -229 -100l-90 -187c-6 -11 -18 -18 -30 -18c-21 0 -32 15 -32 31c0 5 1 12 4 18c16 37 214 453 287 573c7 12 25 21 44 21h311c19 0 33 -12 33 -31s-14 -33 -33 -33h-238c13 -62 25 -139 32 -209
h189c19 0 33 -13 33 -32s-14 -32 -33 -32h-182c11 -108 15 -202 15 -236v-6h203c19 0 33 -13 33 -32s-14 -32 -33 -32zM228 315c31 25 94 50 171 53c-7 67 -17 142 -33 211c-6 0 -8 -4 -9 -6c-12 -20 -84 -166 -129 -258z" />
    <glyph glyph-name="Ccedilla" unicode="&#xc7;" horiz-adv-x="601" 
d="M525 45c-63 -33 -121 -51 -189 -51h-7c-4 -15 -10 -36 -11 -42c8 3 25 7 40 7c43 0 78 -32 78 -84c0 -61 -50 -91 -96 -91c-36 0 -56 14 -56 31c0 13 8 22 23 22c6 0 15 -6 36 -6c19 0 45 16 45 44c0 26 -16 39 -34 39c-38 0 -38 -13 -54 -13c-12 0 -21 7 -21 18
c0 7 1 12 2 16l13 63c-139 21 -239 151 -239 323c0 187 126 328 291 328c103 0 164 -36 186 -53c8 -7 14 -17 14 -28c0 -18 -17 -32 -32 -32c-8 0 -15 3 -20 7c-6 5 -54 42 -148 42c-128 0 -223 -115 -223 -264c0 -151 89 -263 213 -263c55 0 105 15 153 42c4 2 11 5 17 5
c19 0 33 -16 33 -34c0 -11 -4 -20 -14 -26z" />
    <glyph glyph-name="Egrave" unicode="&#xc8;" horiz-adv-x="501" 
d="M408 0h-280c-19 0 -33 13 -33 32v580c0 19 14 31 33 31h261c19 0 33 -12 33 -31s-14 -33 -33 -33h-228v-209h211c19 0 33 -13 33 -32s-14 -32 -33 -32h-211v-242h247c19 0 33 -13 33 -32s-14 -32 -33 -32zM327 732c-4 0 -9 1 -15 4l-157 65c-11 5 -22 14 -22 30
c0 20 13 33 30 33c3 0 7 -1 10 -2l162 -67c13 -6 22 -17 22 -31c0 -17 -12 -32 -30 -32z" />
    <glyph glyph-name="Eacute" unicode="&#xc9;" horiz-adv-x="501" 
d="M408 0h-280c-19 0 -33 13 -33 32v580c0 19 14 31 33 31h261c19 0 33 -12 33 -31s-14 -33 -33 -33h-228v-209h211c19 0 33 -13 33 -32s-14 -32 -33 -32h-211v-242h247c19 0 33 -13 33 -32s-14 -32 -33 -32zM355 802l-160 -67c-5 -2 -9 -3 -13 -3c-17 0 -32 12 -32 30
c0 15 6 25 21 31l159 67c6 2 8 3 13 3c19 0 33 -13 33 -31s-11 -25 -21 -30z" />
    <glyph glyph-name="Ecircumflex" unicode="&#xca;" horiz-adv-x="501" 
d="M408 0h-280c-19 0 -33 13 -33 32v580c0 19 14 31 33 31h261c19 0 33 -12 33 -31s-14 -33 -33 -33h-228v-209h211c19 0 33 -13 33 -32s-14 -32 -33 -32h-211v-242h247c19 0 33 -13 33 -32s-14 -32 -33 -32zM360 737l-104 55l-105 -55c-6 -3 -11 -5 -17 -5
c-18 0 -32 14 -32 31c0 9 4 22 17 28l121 64c5 3 11 5 16 5s11 -2 16 -5l122 -65c11 -5 15 -19 15 -27c0 -19 -15 -31 -33 -31c-6 0 -11 2 -16 5z" />
    <glyph glyph-name="Edieresis" unicode="&#xcb;" horiz-adv-x="501" 
d="M408 0h-280c-19 0 -33 13 -33 32v580c0 19 14 31 33 31h261c19 0 33 -12 33 -31s-14 -33 -33 -33h-228v-209h211c19 0 33 -13 33 -32s-14 -32 -33 -32h-211v-242h247c19 0 33 -13 33 -32s-14 -32 -33 -32zM163 765v34c0 19 14 32 33 32s33 -13 33 -32v-34
c0 -19 -14 -33 -33 -33s-33 14 -33 33zM290 765v34c0 19 14 32 33 32s33 -13 33 -32v-34c0 -19 -14 -33 -33 -33s-33 14 -33 33z" />
    <glyph glyph-name="Igrave" unicode="&#xcc;" horiz-adv-x="255" 
d="M95 33v577c0 19 14 33 33 33s33 -14 33 -33v-577c0 -19 -14 -33 -33 -33s-33 14 -33 33zM178 732c-4 0 -9 1 -15 4l-157 65c-11 5 -22 14 -22 30c0 20 13 33 30 33c3 0 7 -1 10 -2l162 -67c13 -6 22 -17 22 -31c0 -17 -12 -32 -30 -32z" />
    <glyph glyph-name="Iacute" unicode="&#xcd;" horiz-adv-x="255" 
d="M95 33v577c0 19 14 33 33 33s33 -14 33 -33v-577c0 -19 -14 -33 -33 -33s-33 14 -33 33zM249 802l-160 -67c-5 -2 -9 -3 -13 -3c-17 0 -32 12 -32 30c0 15 6 25 21 31l159 67c6 2 8 3 13 3c19 0 33 -13 33 -31s-11 -25 -21 -30z" />
    <glyph glyph-name="Icircumflex" unicode="&#xce;" horiz-adv-x="255" 
d="M95 33v577c0 19 14 33 33 33s33 -14 33 -33v-577c0 -19 -14 -33 -33 -33s-33 14 -33 33zM232 737l-104 55l-105 -55c-6 -3 -11 -5 -17 -5c-18 0 -32 14 -32 31c0 9 4 22 17 28l121 64c5 3 11 5 16 5s11 -2 16 -5l122 -65c11 -5 15 -19 15 -27c0 -19 -15 -31 -33 -31
c-6 0 -11 2 -16 5z" />
    <glyph glyph-name="Idieresis" unicode="&#xcf;" horiz-adv-x="255" 
d="M95 33v577c0 19 14 33 33 33s33 -14 33 -33v-577c0 -19 -14 -33 -33 -33s-33 14 -33 33zM33 765v34c0 19 14 32 33 32s33 -13 33 -32v-34c0 -19 -14 -33 -33 -33s-33 14 -33 33zM160 765v34c0 19 14 32 33 32s33 -13 33 -32v-34c0 -19 -14 -33 -33 -33s-33 14 -33 33z
" />
    <glyph glyph-name="Eth" unicode="&#xd0;" horiz-adv-x="678" 
d="M338 0h-176c-19 0 -32 14 -32 33v268h-52c-19 0 -33 14 -33 33s14 31 33 31h52v245c0 19 13 33 32 33h176c168 0 285 -136 285 -324c0 -186 -115 -319 -285 -319zM196 64h142c132 0 217 105 217 255c0 151 -87 260 -217 260h-142v-214h157c19 0 33 -12 33 -31
s-14 -33 -33 -33h-157v-237z" />
    <glyph glyph-name="Ntilde" unicode="&#xd1;" horiz-adv-x="615" 
d="M455 97v513c0 19 14 33 34 33c18 0 32 -14 32 -33v-577c0 -20 -14 -33 -32 -33h-12c-13 0 -30 4 -41 15c-40 38 -105 175 -167 308c-51 110 -77 178 -108 223v-513c0 -20 -14 -33 -33 -33c-18 0 -33 13 -33 33v577c0 19 15 33 33 33h12c11 0 28 -2 41 -14
c43 -42 105 -175 162 -303c43 -97 81 -181 112 -229zM446 767c-10 -16 -33 -35 -76 -35c-50 0 -68 21 -118 21c-22 0 -34 -19 -50 -19s-31 7 -31 28c0 6 1 13 5 20c10 16 33 35 76 35c50 0 68 -21 118 -21c22 0 34 19 50 19s31 -10 31 -31c0 -5 -1 -11 -5 -17z" />
    <glyph glyph-name="Ograve" unicode="&#xd2;" horiz-adv-x="655" 
d="M328 -6c-155 0 -273 141 -273 326c0 187 118 329 273 329c158 0 272 -139 272 -329c0 -188 -114 -326 -272 -326zM328 58c120 0 204 111 204 262c0 152 -84 265 -204 265c-118 0 -205 -116 -205 -265c0 -148 87 -262 205 -262zM377 732c-4 0 -9 1 -15 4l-157 65
c-11 5 -22 14 -22 30c0 20 13 33 30 33c3 0 7 -1 10 -2l162 -67c13 -6 22 -17 22 -31c0 -17 -12 -32 -30 -32z" />
    <glyph glyph-name="Oacute" unicode="&#xd3;" horiz-adv-x="655" 
d="M328 -6c-155 0 -273 141 -273 326c0 187 118 329 273 329c158 0 272 -139 272 -329c0 -188 -114 -326 -272 -326zM328 58c120 0 204 111 204 262c0 152 -84 265 -204 265c-118 0 -205 -116 -205 -265c0 -148 87 -262 205 -262zM450 802l-160 -67c-5 -2 -9 -3 -13 -3
c-17 0 -32 12 -32 30c0 15 6 25 21 31l159 67c6 2 8 3 13 3c19 0 33 -13 33 -31s-11 -25 -21 -30z" />
    <glyph glyph-name="Ocircumflex" unicode="&#xd4;" horiz-adv-x="655" 
d="M328 -6c-155 0 -273 141 -273 326c0 187 118 329 273 329c158 0 272 -139 272 -329c0 -188 -114 -326 -272 -326zM328 58c120 0 204 111 204 262c0 152 -84 265 -204 265c-118 0 -205 -116 -205 -265c0 -148 87 -262 205 -262zM434 737l-104 55l-105 -55
c-6 -3 -11 -5 -17 -5c-18 0 -32 14 -32 31c0 9 4 22 17 28l121 64c5 3 11 5 16 5s11 -2 16 -5l122 -65c11 -5 15 -19 15 -27c0 -19 -15 -31 -33 -31c-6 0 -11 2 -16 5z" />
    <glyph glyph-name="Otilde" unicode="&#xd5;" horiz-adv-x="655" 
d="M328 -6c-155 0 -273 141 -273 326c0 187 118 329 273 329c158 0 272 -139 272 -329c0 -188 -114 -326 -272 -326zM328 58c120 0 204 111 204 262c0 152 -84 265 -204 265c-118 0 -205 -116 -205 -265c0 -148 87 -262 205 -262zM464 767c-10 -16 -33 -35 -76 -35
c-50 0 -68 21 -118 21c-22 0 -34 -19 -50 -19s-31 7 -31 28c0 6 1 13 5 20c10 16 33 35 76 35c50 0 68 -21 118 -21c22 0 34 19 50 19s31 -10 31 -31c0 -5 -1 -11 -5 -17z" />
    <glyph glyph-name="Odieresis" unicode="&#xd6;" horiz-adv-x="655" 
d="M328 -6c-155 0 -273 141 -273 326c0 187 118 329 273 329c158 0 272 -139 272 -329c0 -188 -114 -326 -272 -326zM328 58c120 0 204 111 204 262c0 152 -84 265 -204 265c-118 0 -205 -116 -205 -265c0 -148 87 -262 205 -262zM231 765v34c0 19 14 32 33 32
s33 -13 33 -32v-34c0 -19 -14 -33 -33 -33s-33 14 -33 33zM358 765v34c0 19 14 32 33 32s33 -13 33 -32v-34c0 -19 -14 -33 -33 -33s-33 14 -33 33z" />
    <glyph glyph-name="multiply" unicode="&#xd7;" 
d="M440 50l-141 141l-142 -141c-7 -7 -15 -10 -23 -10c-18 0 -33 15 -33 33c0 9 2 16 10 23l141 142l-142 142c-6 6 -9 14 -9 23c0 17 16 33 33 33c9 0 18 -3 24 -10l141 -141l140 141c9 7 17 10 25 10c18 0 33 -16 33 -33c0 -9 -1 -15 -8 -23l-144 -142l140 -140
c8 -7 13 -17 13 -26c0 -15 -17 -32 -34 -32c-8 0 -17 3 -24 10z" />
    <glyph glyph-name="Oslash" unicode="&#xd8;" horiz-adv-x="659" 
d="M120 51l20 32c-52 59 -85 142 -85 238c0 187 120 328 274 328c50 0 99 -17 138 -44l15 25c5 8 16 14 27 14c18 0 34 -11 34 -31c0 -6 -1 -13 -5 -18l-22 -32c57 -57 88 -140 88 -242c0 -188 -117 -327 -275 -327c-51 0 -98 17 -138 45l-14 -23c-6 -10 -16 -16 -29 -16
c-17 0 -34 16 -34 33c0 5 2 12 6 18zM177 143l256 406c-26 21 -66 36 -104 36c-118 0 -206 -115 -206 -264c0 -70 20 -133 54 -178zM480 502l-255 -408c30 -23 64 -36 104 -36c120 0 207 112 207 263c0 73 -21 136 -56 181z" />
    <glyph glyph-name="Ugrave" unicode="&#xd9;" horiz-adv-x="612" 
d="M454 213v397c0 19 14 33 33 33c18 0 33 -14 33 -33v-399c0 -65 -29 -217 -215 -217c-185 0 -213 152 -213 217v399c0 19 14 33 33 33c18 0 33 -14 33 -33v-397c0 -49 22 -155 148 -155c127 0 148 106 148 155zM356 732c-4 0 -9 1 -15 4l-157 65c-11 5 -22 14 -22 30
c0 20 13 33 30 33c3 0 7 -1 10 -2l162 -67c13 -6 22 -17 22 -31c0 -17 -12 -32 -30 -32z" />
    <glyph glyph-name="Uacute" unicode="&#xda;" horiz-adv-x="612" 
d="M454 213v397c0 19 14 33 33 33c18 0 33 -14 33 -33v-399c0 -65 -29 -217 -215 -217c-185 0 -213 152 -213 217v399c0 19 14 33 33 33c18 0 33 -14 33 -33v-397c0 -49 22 -155 148 -155c127 0 148 106 148 155zM427 802l-160 -67c-5 -2 -9 -3 -13 -3c-17 0 -32 12 -32 30
c0 15 6 25 21 31l159 67c6 2 8 3 13 3c19 0 33 -13 33 -31s-11 -25 -21 -30z" />
    <glyph glyph-name="Ucircumflex" unicode="&#xdb;" horiz-adv-x="612" 
d="M454 213v397c0 19 14 33 33 33c18 0 33 -14 33 -33v-399c0 -65 -29 -217 -215 -217c-185 0 -213 152 -213 217v399c0 19 14 33 33 33c18 0 33 -14 33 -33v-397c0 -49 22 -155 148 -155c127 0 148 106 148 155zM413 737l-104 55l-105 -55c-6 -3 -11 -5 -17 -5
c-18 0 -32 14 -32 31c0 9 4 22 17 28l121 64c5 3 11 5 16 5s11 -2 16 -5l122 -65c11 -5 15 -19 15 -27c0 -19 -15 -31 -33 -31c-6 0 -11 2 -16 5z" />
    <glyph glyph-name="Udieresis" unicode="&#xdc;" horiz-adv-x="612" 
d="M454 213v397c0 19 14 33 33 33c18 0 33 -14 33 -33v-399c0 -65 -29 -217 -215 -217c-185 0 -213 152 -213 217v399c0 19 14 33 33 33c18 0 33 -14 33 -33v-397c0 -49 22 -155 148 -155c127 0 148 106 148 155zM213 765v34c0 19 14 32 33 32s33 -13 33 -32v-34
c0 -19 -14 -33 -33 -33s-33 14 -33 33zM340 765v34c0 19 14 32 33 32s33 -13 33 -32v-34c0 -19 -14 -33 -33 -33s-33 14 -33 33z" />
    <glyph glyph-name="Yacute" unicode="&#xdd;" horiz-adv-x="486" 
d="M460 613c0 -4 0 -7 -2 -12c-1 -1 -117 -287 -183 -346v-222c0 -19 -14 -33 -33 -33s-33 14 -33 33v222c-66 59 -167 308 -182 346c-1 4 -2 8 -2 12c0 17 13 30 34 30c16 0 27 -12 30 -22c8 -21 110 -256 153 -308c43 52 149 292 157 313c4 10 13 17 29 17
c21 0 32 -13 32 -30zM336 802l-160 -67c-5 -2 -9 -3 -13 -3c-17 0 -32 12 -32 30c0 15 6 25 21 31l159 67c6 2 8 3 13 3c19 0 33 -13 33 -31s-11 -25 -21 -30z" />
    <glyph glyph-name="Thorn" unicode="&#xde;" horiz-adv-x="493" 
d="M242 129h-101v-96c0 -19 -14 -33 -33 -33s-33 14 -33 33v556c0 19 14 33 33 33s33 -14 33 -33v-76h101c119 0 207 -81 207 -194c0 -111 -87 -190 -207 -190zM141 192h101c82 0 139 53 139 127c0 75 -58 130 -139 130h-101v-257z" />
    <glyph glyph-name="germandbls" unicode="&#xdf;" horiz-adv-x="499" 
d="M75 33v455c0 138 88 187 161 187c84 0 171 -49 171 -161c0 -99 -103 -152 -103 -176s154 -70 154 -202c0 -95 -71 -152 -181 -152c-33 0 -66 15 -74 21c-9 7 -19 17 -19 28c0 19 11 31 30 31c5 0 13 -4 16 -6c10 -6 16 -10 47 -10c70 0 113 34 113 88
c0 109 -151 118 -151 202c0 28 15 48 32 68l18 18c23 23 50 51 50 90c0 72 -55 97 -103 97c-44 0 -95 -32 -95 -123v-455c0 -19 -14 -33 -33 -33s-33 14 -33 33z" />
    <glyph glyph-name="agrave" unicode="&#xe0;" horiz-adv-x="457" 
d="M318 276v50c0 31 -25 78 -93 78c-53 0 -85 -14 -107 -26c-5 -3 -9 -5 -18 -5c-20 0 -32 16 -32 32c0 8 3 19 14 26c23 15 83 37 143 37c114 0 159 -81 159 -142v-221c0 -28 3 -35 10 -38c16 -7 28 -19 28 -35c0 -20 -14 -32 -32 -32c-6 0 -40 2 -56 35
c-23 -19 -67 -41 -125 -41c-79 0 -164 43 -164 142c0 93 67 140 194 140h79zM318 92v121h-79c-85 0 -126 -25 -126 -77c0 -53 49 -78 96 -78c52 0 99 21 109 34zM318 546c-4 0 -9 1 -15 4l-157 65c-11 5 -22 14 -22 30c0 20 13 33 30 33c3 0 7 -1 10 -2l162 -67
c13 -6 22 -17 22 -31c0 -17 -12 -32 -30 -32z" />
    <glyph glyph-name="aacute" unicode="&#xe1;" horiz-adv-x="457" 
d="M318 276v50c0 31 -25 78 -93 78c-53 0 -85 -14 -107 -26c-5 -3 -9 -5 -18 -5c-20 0 -32 16 -32 32c0 8 3 19 14 26c23 15 83 37 143 37c114 0 159 -81 159 -142v-221c0 -28 3 -35 10 -38c16 -7 28 -19 28 -35c0 -20 -14 -32 -32 -32c-6 0 -40 2 -56 35
c-23 -19 -67 -41 -125 -41c-79 0 -164 43 -164 142c0 93 67 140 194 140h79zM318 92v121h-79c-85 0 -126 -25 -126 -77c0 -53 49 -78 96 -78c52 0 99 21 109 34zM329 616l-160 -67c-5 -2 -9 -3 -13 -3c-17 0 -32 12 -32 30c0 15 6 25 21 31l159 67c6 2 8 3 13 3
c19 0 33 -13 33 -31s-11 -25 -21 -30z" />
    <glyph glyph-name="acircumflex" unicode="&#xe2;" horiz-adv-x="457" 
d="M318 276v50c0 31 -25 78 -93 78c-53 0 -85 -14 -107 -26c-5 -3 -9 -5 -18 -5c-20 0 -32 16 -32 32c0 8 3 19 14 26c23 15 83 37 143 37c114 0 159 -81 159 -142v-221c0 -28 3 -35 10 -38c16 -7 28 -19 28 -35c0 -20 -14 -32 -32 -32c-6 0 -40 2 -56 35
c-23 -19 -67 -41 -125 -41c-79 0 -164 43 -164 142c0 93 67 140 194 140h79zM318 92v121h-79c-85 0 -126 -25 -126 -77c0 -53 49 -78 96 -78c52 0 99 21 109 34zM328 551l-104 55l-105 -55c-6 -3 -11 -5 -17 -5c-18 0 -32 14 -32 31c0 9 4 22 17 28l121 64c5 3 11 5 16 5
s11 -2 16 -5l122 -65c11 -5 15 -19 15 -27c0 -19 -15 -31 -33 -31c-6 0 -11 2 -16 5z" />
    <glyph glyph-name="atilde" unicode="&#xe3;" horiz-adv-x="457" 
d="M318 276v50c0 31 -25 78 -93 78c-53 0 -85 -14 -107 -26c-5 -3 -9 -5 -18 -5c-20 0 -32 16 -32 32c0 8 3 19 14 26c23 15 83 37 143 37c114 0 159 -81 159 -142v-221c0 -28 3 -35 10 -38c16 -7 28 -19 28 -35c0 -20 -14 -32 -32 -32c-6 0 -40 2 -56 35
c-23 -19 -67 -41 -125 -41c-79 0 -164 43 -164 142c0 93 67 140 194 140h79zM318 92v121h-79c-85 0 -126 -25 -126 -77c0 -53 49 -78 96 -78c52 0 99 21 109 34zM358 581c-10 -16 -33 -35 -76 -35c-50 0 -68 21 -118 21c-22 0 -34 -19 -50 -19s-31 7 -31 28c0 6 1 13 5 20
c10 16 33 35 76 35c50 0 68 -21 118 -21c22 0 34 19 50 19s31 -10 31 -31c0 -5 -1 -11 -5 -17z" />
    <glyph glyph-name="adieresis" unicode="&#xe4;" horiz-adv-x="457" 
d="M318 276v50c0 31 -25 78 -93 78c-53 0 -85 -14 -107 -26c-5 -3 -9 -5 -18 -5c-20 0 -32 16 -32 32c0 8 3 19 14 26c23 15 83 37 143 37c114 0 159 -81 159 -142v-221c0 -28 3 -35 10 -38c16 -7 28 -19 28 -35c0 -20 -14 -32 -32 -32c-6 0 -40 2 -56 35
c-23 -19 -67 -41 -125 -41c-79 0 -164 43 -164 142c0 93 67 140 194 140h79zM318 92v121h-79c-85 0 -126 -25 -126 -77c0 -53 49 -78 96 -78c52 0 99 21 109 34zM137 559v34c0 19 14 32 33 32s33 -13 33 -32v-34c0 -19 -14 -33 -33 -33s-33 14 -33 33zM264 559v34
c0 19 14 32 33 32s33 -13 33 -32v-34c0 -19 -14 -33 -33 -33s-33 14 -33 33z" />
    <glyph glyph-name="aring" unicode="&#xe5;" horiz-adv-x="457" 
d="M318 276v50c0 31 -25 78 -93 78c-53 0 -85 -14 -107 -26c-5 -3 -9 -5 -18 -5c-20 0 -32 16 -32 32c0 8 3 19 14 26c23 15 83 37 143 37c114 0 159 -81 159 -142v-221c0 -28 3 -35 10 -38c16 -7 28 -19 28 -35c0 -20 -14 -32 -32 -32c-6 0 -40 2 -56 35
c-23 -19 -67 -41 -125 -41c-79 0 -164 43 -164 142c0 93 67 140 194 140h79zM318 92v121h-79c-85 0 -126 -25 -126 -77c0 -53 49 -78 96 -78c52 0 99 21 109 34zM235 547c-48 0 -85 36 -85 84s37 84 85 84s85 -36 85 -84s-37 -84 -85 -84zM274 632c0 21 -18 37 -39 37
s-39 -16 -39 -37s18 -39 39 -39s39 18 39 39z" />
    <glyph glyph-name="ae" unicode="&#xe6;" horiz-adv-x="713" 
d="M383 213v-103c23 -35 62 -52 113 -52c52 0 96 25 107 32c5 3 12 6 21 6c19 0 33 -12 33 -31c0 -12 -7 -23 -15 -28c-41 -26 -94 -43 -147 -43s-116 14 -150 62c-31 -34 -77 -62 -135 -62c-80 0 -166 43 -166 142c0 93 68 140 195 140h78v49c0 39 -33 79 -92 79
c-53 0 -85 -14 -108 -27c-6 -3 -12 -4 -17 -4c-19 0 -32 15 -32 32c0 8 3 19 14 26c23 15 83 37 143 37c95 0 130 -60 133 -75c9 18 53 71 136 74c15 0 28 0 41 -2c86 -13 134 -80 134 -131c0 -108 -100 -120 -286 -121zM383 318v-42c155 0 218 9 218 58c0 29 -33 70 -96 70
c-54 0 -100 -33 -122 -86zM317 110v103h-78c-85 0 -127 -25 -127 -77c0 -53 50 -78 98 -78c37 0 78 21 107 52z" />
    <glyph glyph-name="ccedilla" unicode="&#xe7;" horiz-adv-x="469" 
d="M407 35c-44 -24 -99 -41 -151 -41l-11 -42c8 3 25 7 40 7c43 0 78 -32 78 -84c0 -61 -50 -91 -96 -91c-36 0 -56 14 -56 31c0 13 8 22 23 22c6 0 15 -6 36 -6c19 0 45 16 45 44c0 26 -16 39 -34 39c-38 0 -38 -13 -54 -13c-12 0 -21 7 -21 18c0 7 1 12 2 16l13 62
c-106 15 -176 106 -176 236c0 133 101 235 230 235c44 0 90 -14 127 -38c9 -5 14 -16 14 -28c0 -18 -14 -32 -32 -32c-6 0 -12 1 -18 5c-27 19 -60 29 -91 29c-93 0 -162 -74 -162 -171c0 -86 43 -175 143 -175c39 0 83 14 119 34c5 3 12 4 17 4c16 0 32 -13 32 -33
c0 -11 -8 -22 -17 -28z" />
    <glyph glyph-name="egrave" unicode="&#xe8;" horiz-adv-x="468" 
d="M116 192c8 -73 55 -134 131 -134c56 0 117 31 128 35c6 3 13 4 17 4c17 0 31 -15 31 -32c0 -14 -8 -23 -16 -28c-4 -3 -81 -43 -160 -43c-120 0 -202 96 -202 236c0 144 81 238 207 238c108 0 168 -75 168 -134c0 -113 -117 -140 -304 -142zM252 404
c-79 0 -132 -54 -139 -152c172 3 239 28 239 82c0 29 -33 70 -100 70zM346 546c-4 0 -9 1 -15 4l-157 65c-11 5 -22 14 -22 30c0 20 13 33 30 33c3 0 7 -1 10 -2l162 -67c13 -6 22 -17 22 -31c0 -17 -12 -32 -30 -32z" />
    <glyph glyph-name="eacute" unicode="&#xe9;" horiz-adv-x="468" 
d="M116 192c8 -73 55 -134 131 -134c56 0 117 31 128 35c6 3 13 4 17 4c17 0 31 -15 31 -32c0 -14 -8 -23 -16 -28c-4 -3 -81 -43 -160 -43c-120 0 -202 96 -202 236c0 144 81 238 207 238c108 0 168 -75 168 -134c0 -113 -117 -140 -304 -142zM252 404
c-79 0 -132 -54 -139 -152c172 3 239 28 239 82c0 29 -33 70 -100 70zM363 616l-160 -67c-5 -2 -9 -3 -13 -3c-17 0 -32 12 -32 30c0 15 6 25 21 31l159 67c6 2 8 3 13 3c19 0 33 -13 33 -31s-11 -25 -21 -30z" />
    <glyph glyph-name="ecircumflex" unicode="&#xea;" horiz-adv-x="468" 
d="M116 192c8 -73 55 -134 131 -134c56 0 117 31 128 35c6 3 13 4 17 4c17 0 31 -15 31 -32c0 -14 -8 -23 -16 -28c-4 -3 -81 -43 -160 -43c-120 0 -202 96 -202 236c0 144 81 238 207 238c108 0 168 -75 168 -134c0 -113 -117 -140 -304 -142zM252 404
c-79 0 -132 -54 -139 -152c172 3 239 28 239 82c0 29 -33 70 -100 70zM363 551l-104 55l-105 -55c-6 -3 -11 -5 -17 -5c-18 0 -32 14 -32 31c0 9 4 22 17 28l121 64c5 3 11 5 16 5s11 -2 16 -5l122 -65c11 -5 15 -19 15 -27c0 -19 -15 -31 -33 -31c-6 0 -11 2 -16 5z" />
    <glyph glyph-name="edieresis" unicode="&#xeb;" horiz-adv-x="468" 
d="M116 192c8 -73 55 -134 131 -134c56 0 117 31 128 35c6 3 13 4 17 4c17 0 31 -15 31 -32c0 -14 -8 -23 -16 -28c-4 -3 -81 -43 -160 -43c-120 0 -202 96 -202 236c0 144 81 238 207 238c108 0 168 -75 168 -134c0 -113 -117 -140 -304 -142zM252 404
c-79 0 -132 -54 -139 -152c172 3 239 28 239 82c0 29 -33 70 -100 70zM164 559v34c0 19 14 32 33 32s33 -13 33 -32v-34c0 -19 -14 -33 -33 -33s-33 14 -33 33zM291 559v34c0 19 14 32 33 32s33 -13 33 -32v-34c0 -19 -14 -33 -33 -33s-33 14 -33 33z" />
    <glyph glyph-name="igrave" unicode="&#xec;" horiz-adv-x="215" 
d="M75 33v396c0 19 14 33 33 33s33 -14 33 -33v-396c0 -19 -14 -33 -33 -33s-33 14 -33 33zM228 533c-4 0 -9 1 -15 4l-157 65c-11 5 -22 14 -22 30c0 20 13 33 30 33c3 0 7 -1 10 -2l162 -67c13 -6 22 -17 22 -31c0 -17 -12 -32 -30 -32z" />
    <glyph glyph-name="iacute" unicode="&#xed;" horiz-adv-x="215" 
d="M75 33v396c0 19 14 33 33 33s33 -14 33 -33v-396c0 -19 -14 -33 -33 -33s-33 14 -33 33zM197 616l-160 -67c-5 -2 -9 -3 -13 -3c-17 0 -32 12 -32 30c0 15 6 25 21 31l159 67c6 2 8 3 13 3c19 0 33 -13 33 -31s-11 -25 -21 -30z" />
    <glyph glyph-name="icircumflex" unicode="&#xee;" horiz-adv-x="215" 
d="M75 33v396c0 19 14 33 33 33s33 -14 33 -33v-396c0 -19 -14 -33 -33 -33s-33 14 -33 33zM210 551l-104 55l-105 -55c-6 -3 -11 -5 -17 -5c-18 0 -32 14 -32 31c0 9 4 22 17 28l121 64c5 3 11 5 16 5s11 -2 16 -5l122 -65c11 -5 15 -19 15 -27c0 -19 -15 -31 -33 -31
c-6 0 -11 2 -16 5z" />
    <glyph glyph-name="idieresis" unicode="&#xef;" horiz-adv-x="215" 
d="M75 33v396c0 19 14 33 33 33s33 -14 33 -33v-396c0 -19 -14 -33 -33 -33s-33 14 -33 33zM12 559v34c0 19 14 32 33 32s33 -13 33 -32v-34c0 -19 -14 -33 -33 -33s-33 14 -33 33zM139 559v34c0 19 14 32 33 32s33 -13 33 -32v-34c0 -19 -14 -33 -33 -33s-33 14 -33 33z
" />
    <glyph glyph-name="eth" unicode="&#xf0;" horiz-adv-x="484" 
d="M440 350v-7c0 -225 -71 -349 -200 -349c-167 0 -195 162 -195 256c0 99 55 218 199 218c63 0 112 -41 125 -54c-5 73 -38 128 -71 159l-89 -43c-4 -3 -10 -4 -16 -4c-18 0 -31 13 -31 30c0 11 6 24 19 29l60 27c-36 20 -90 21 -138 21c-25 0 -37 15 -37 33
c0 17 12 31 37 31c61 0 138 -4 203 -48l59 29c6 3 10 3 15 3c18 0 32 -15 32 -33c0 -12 -5 -22 -17 -29l-37 -19c45 -54 80 -139 82 -250zM240 58c87 0 134 98 135 279c-33 31 -80 67 -131 67c-98 0 -131 -81 -131 -154c0 -87 21 -192 127 -192z" />
    <glyph glyph-name="ntilde" unicode="&#xf1;" horiz-adv-x="497" 
d="M356 33v255c0 92 -27 116 -111 116c-50 0 -93 -21 -104 -27v-344c0 -19 -14 -33 -33 -33s-33 14 -33 33v397c0 19 12 32 31 32s31 -13 31 -29c12 7 58 35 122 35c116 0 163 -50 163 -170v-265c0 -19 -14 -33 -33 -33s-33 14 -33 33zM379 581c-10 -16 -33 -35 -76 -35
c-50 0 -68 21 -118 21c-22 0 -34 -19 -50 -19s-31 7 -31 28c0 6 1 13 5 20c10 16 33 35 76 35c50 0 68 -21 118 -21c22 0 34 19 50 19s31 -10 31 -31c0 -5 -1 -11 -5 -17z" />
    <glyph glyph-name="ograve" unicode="&#xf2;" horiz-adv-x="493" 
d="M247 -6c-120 0 -202 96 -202 236c0 143 82 238 202 238c119 0 201 -95 201 -238c0 -145 -77 -236 -201 -236zM247 58c84 0 133 66 133 172c0 107 -51 174 -133 174s-134 -68 -134 -174c0 -103 51 -172 134 -172zM334 546c-4 0 -9 1 -15 4l-157 65c-11 5 -22 14 -22 30
c0 20 13 33 30 33c3 0 7 -1 10 -2l162 -67c13 -6 22 -17 22 -31c0 -17 -12 -32 -30 -32z" />
    <glyph glyph-name="oacute" unicode="&#xf3;" horiz-adv-x="493" 
d="M247 -6c-120 0 -202 96 -202 236c0 143 82 238 202 238c119 0 201 -95 201 -238c0 -145 -77 -236 -201 -236zM247 58c84 0 133 66 133 172c0 107 -51 174 -133 174s-134 -68 -134 -174c0 -103 51 -172 134 -172zM345 616l-160 -67c-5 -2 -9 -3 -13 -3
c-17 0 -32 12 -32 30c0 15 6 25 21 31l159 67c6 2 8 3 13 3c19 0 33 -13 33 -31s-11 -25 -21 -30z" />
    <glyph glyph-name="ocircumflex" unicode="&#xf4;" horiz-adv-x="493" 
d="M247 -6c-120 0 -202 96 -202 236c0 143 82 238 202 238c119 0 201 -95 201 -238c0 -145 -77 -236 -201 -236zM247 58c84 0 133 66 133 172c0 107 -51 174 -133 174s-134 -68 -134 -174c0 -103 51 -172 134 -172zM358 551l-104 55l-105 -55c-6 -3 -11 -5 -17 -5
c-18 0 -32 14 -32 31c0 9 4 22 17 28l121 64c5 3 11 5 16 5s11 -2 16 -5l122 -65c11 -5 15 -19 15 -27c0 -19 -15 -31 -33 -31c-6 0 -11 2 -16 5z" />
    <glyph glyph-name="otilde" unicode="&#xf5;" horiz-adv-x="493" 
d="M247 -6c-120 0 -202 96 -202 236c0 143 82 238 202 238c119 0 201 -95 201 -238c0 -145 -77 -236 -201 -236zM247 58c84 0 133 66 133 172c0 107 -51 174 -133 174s-134 -68 -134 -174c0 -103 51 -172 134 -172zM387 581c-10 -16 -33 -35 -76 -35c-50 0 -68 21 -118 21
c-22 0 -34 -19 -50 -19s-31 7 -31 28c0 6 1 13 5 20c10 16 33 35 76 35c50 0 68 -21 118 -21c22 0 34 19 50 19s31 -10 31 -31c0 -5 -1 -11 -5 -17z" />
    <glyph glyph-name="odieresis" unicode="&#xf6;" horiz-adv-x="493" 
d="M247 -6c-120 0 -202 96 -202 236c0 143 82 238 202 238c119 0 201 -95 201 -238c0 -145 -77 -236 -201 -236zM247 58c84 0 133 66 133 172c0 107 -51 174 -133 174s-134 -68 -134 -174c0 -103 51 -172 134 -172zM153 559v34c0 19 14 32 33 32s33 -13 33 -32v-34
c0 -19 -14 -33 -33 -33s-33 14 -33 33zM280 559v34c0 19 14 32 33 32s33 -13 33 -32v-34c0 -19 -14 -33 -33 -33s-33 14 -33 33z" />
    <glyph glyph-name="divide" unicode="&#xf7;" 
d="M489 204h-378c-19 0 -33 13 -33 32c0 18 14 32 33 32h378c19 0 33 -14 33 -32c0 -19 -14 -32 -33 -32zM265 35v33c0 19 14 33 33 33s33 -14 33 -33v-33c0 -19 -14 -33 -33 -33s-33 14 -33 33zM265 407v33c0 18 14 33 33 33s33 -15 33 -33v-33c0 -19 -15 -33 -34 -33
s-32 14 -32 33z" />
    <glyph glyph-name="oslash" unicode="&#xf8;" horiz-adv-x="492" 
d="M153 19c-6 -11 -15 -19 -30 -19c-16 0 -31 16 -31 33c0 3 1 8 3 11l8 13c-37 41 -58 101 -58 173c0 143 81 238 201 238c38 0 70 -8 99 -26l5 7c5 7 12 13 26 13c16 0 32 -11 32 -31c0 -7 -2 -13 -7 -21l-8 -12c34 -41 55 -97 55 -168c0 -145 -78 -236 -202 -236
c-34 0 -66 10 -93 25zM142 119l167 267c-17 12 -39 18 -63 18c-82 0 -133 -68 -133 -174c0 -46 9 -84 29 -111zM354 336l-165 -262c17 -11 35 -16 57 -16c89 0 134 80 134 172c0 35 -7 73 -26 106z" />
    <glyph glyph-name="ugrave" unicode="&#xf9;" horiz-adv-x="497" 
d="M391 0c-19 0 -31 14 -31 32v4c-15 -13 -59 -42 -122 -42c-117 0 -163 49 -163 169v266c0 19 14 33 33 33s33 -14 33 -33v-256c0 -91 25 -115 111 -115c49 0 89 25 104 39v332c0 19 14 33 33 33s33 -14 33 -33v-396c0 -19 -12 -33 -31 -33zM331 546c-4 0 -9 1 -15 4
l-157 65c-11 5 -22 14 -22 30c0 20 13 33 30 33c3 0 7 -1 10 -2l162 -67c13 -6 22 -17 22 -31c0 -17 -12 -32 -30 -32z" />
    <glyph glyph-name="uacute" unicode="&#xfa;" horiz-adv-x="497" 
d="M391 0c-19 0 -31 14 -31 32v4c-15 -13 -59 -42 -122 -42c-117 0 -163 49 -163 169v266c0 19 14 33 33 33s33 -14 33 -33v-256c0 -91 25 -115 111 -115c49 0 89 25 104 39v332c0 19 14 33 33 33s33 -14 33 -33v-396c0 -19 -12 -33 -31 -33zM342 616l-160 -67
c-5 -2 -9 -3 -13 -3c-17 0 -32 12 -32 30c0 15 6 25 21 31l159 67c6 2 8 3 13 3c19 0 33 -13 33 -31s-11 -25 -21 -30z" />
    <glyph glyph-name="ucircumflex" unicode="&#xfb;" horiz-adv-x="497" 
d="M391 0c-19 0 -31 14 -31 32v4c-15 -13 -59 -42 -122 -42c-117 0 -163 49 -163 169v266c0 19 14 33 33 33s33 -14 33 -33v-256c0 -91 25 -115 111 -115c49 0 89 25 104 39v332c0 19 14 33 33 33s33 -14 33 -33v-396c0 -19 -12 -33 -31 -33zM353 551l-104 55l-105 -55
c-6 -3 -11 -5 -17 -5c-18 0 -32 14 -32 31c0 9 4 22 17 28l121 64c5 3 11 5 16 5s11 -2 16 -5l122 -65c11 -5 15 -19 15 -27c0 -19 -15 -31 -33 -31c-6 0 -11 2 -16 5z" />
    <glyph glyph-name="udieresis" unicode="&#xfc;" horiz-adv-x="497" 
d="M391 0c-19 0 -31 14 -31 32v4c-15 -13 -59 -42 -122 -42c-117 0 -163 49 -163 169v266c0 19 14 33 33 33s33 -14 33 -33v-256c0 -91 25 -115 111 -115c49 0 89 25 104 39v332c0 19 14 33 33 33s33 -14 33 -33v-396c0 -19 -12 -33 -31 -33zM157 559v34c0 19 14 32 33 32
s33 -13 33 -32v-34c0 -19 -14 -33 -33 -33s-33 14 -33 33zM284 559v34c0 19 14 32 33 32s33 -13 33 -32v-34c0 -19 -14 -33 -33 -33s-33 14 -33 33z" />
    <glyph glyph-name="yacute" unicode="&#xfd;" horiz-adv-x="421" 
d="M220 104c24 67 83 224 123 336c5 12 14 22 31 22c19 0 33 -13 33 -32c0 -5 -2 -10 -4 -15l-134 -369c-71 -198 -138 -250 -231 -250c-74 0 -107 25 -135 49c-6 5 -12 14 -12 26c0 18 17 32 33 32c7 0 14 -3 19 -7c21 -17 43 -36 95 -36c59 0 100 25 152 161
c-6 4 -13 16 -19 27c-57 109 -146 356 -151 372c-1 3 -2 6 -2 12c0 20 16 30 34 30s26 -12 31 -25c14 -38 77 -219 122 -307c5 -10 10 -20 15 -26zM306 602l-160 -67c-5 -2 -9 -3 -13 -3c-17 0 -32 12 -32 30c0 15 6 25 21 31l159 67c6 2 8 3 13 3c19 0 33 -13 33 -31
s-11 -25 -21 -30z" />
    <glyph glyph-name="thorn" unicode="&#xfe;" horiz-adv-x="496" 
d="M75 -153v793c0 19 14 32 33 32s33 -13 33 -32v-192c32 14 65 20 102 20c125 0 212 -93 212 -233c0 -136 -103 -241 -232 -241c-32 0 -60 10 -82 21v-168c0 -19 -14 -33 -33 -33s-33 14 -33 33zM141 380v-294c20 -12 52 -28 82 -28c92 0 164 79 164 177
c0 103 -57 169 -144 169c-36 0 -72 -8 -102 -24z" />
    <glyph glyph-name="ydieresis" unicode="&#xff;" horiz-adv-x="421" 
d="M220 104c24 67 83 224 123 336c5 12 14 22 31 22c19 0 33 -13 33 -32c0 -5 -2 -10 -4 -15l-134 -369c-71 -198 -138 -250 -231 -250c-74 0 -107 25 -135 49c-6 5 -12 14 -12 26c0 18 17 32 33 32c7 0 14 -3 19 -7c21 -17 43 -36 95 -36c59 0 100 25 152 161
c-6 4 -13 16 -19 27c-57 109 -146 356 -151 372c-1 3 -2 6 -2 12c0 20 16 30 34 30s26 -12 31 -25c14 -38 77 -219 122 -307c5 -10 10 -20 15 -26zM118 572v34c0 19 14 32 33 32s33 -13 33 -32v-34c0 -19 -14 -33 -33 -33s-33 14 -33 33zM245 572v34c0 19 14 32 33 32
s33 -13 33 -32v-34c0 -19 -14 -33 -33 -33s-33 14 -33 33z" />
    <glyph glyph-name="dotlessi" unicode="&#x131;" horiz-adv-x="215" 
d="M75 33v396c0 19 14 33 33 33s33 -14 33 -33v-396c0 -19 -14 -33 -33 -33s-33 14 -33 33z" />
    <glyph glyph-name="Lslash" unicode="&#x141;" horiz-adv-x="537" 
d="M479 0h-280c-19 0 -33 13 -33 32v216l-41 -29c-3 -2 -10 -5 -18 -5c-18 0 -32 15 -32 32c0 9 3 21 13 28l78 54v282c0 19 14 33 33 33s33 -14 33 -33v-236l67 46c5 4 12 6 20 6c16 0 31 -14 31 -33c0 -10 -4 -21 -12 -27l-106 -74v-228h247c19 0 33 -13 33 -32
s-14 -32 -33 -32z" />
    <glyph glyph-name="lslash" unicode="&#x142;" horiz-adv-x="239" 
d="M75 170v122l-28 -20c-5 -3 -12 -5 -19 -5c-17 0 -33 10 -33 30c0 12 5 22 14 29l66 46v283c0 19 14 33 33 33s33 -14 33 -33v-236l60 42c4 4 11 6 18 6c17 0 33 -11 33 -33c0 -10 -6 -21 -14 -26l-97 -69v-169c0 -91 11 -106 51 -106c19 0 33 -13 33 -32s-14 -32 -33 -32
c-90 0 -117 39 -117 170z" />
    <glyph glyph-name="OE" unicode="&#x152;" horiz-adv-x="831" 
d="M734 0h-437c-143 0 -242 133 -242 319c0 188 101 324 242 324h419c19 0 33 -12 33 -31s-14 -33 -33 -33h-230v-209h212c19 0 33 -14 33 -33s-14 -31 -33 -31h-212v-242h248c19 0 32 -13 32 -32s-13 -32 -32 -32zM420 64v515h-123c-104 0 -174 -109 -174 -260
c0 -150 68 -255 174 -255h123z" />
    <glyph glyph-name="oe" unicode="&#x153;" horiz-adv-x="803" 
d="M451 192c8 -73 55 -134 131 -134c56 0 117 31 128 35c6 3 13 4 17 4c17 0 31 -15 31 -32c0 -14 -8 -23 -16 -28c-4 -3 -81 -43 -160 -43c-73 0 -154 46 -169 110c-15 -64 -90 -110 -167 -110c-120 0 -202 96 -202 236c0 143 82 238 202 238c73 0 147 -41 167 -111
c20 70 96 111 174 111c108 0 168 -75 168 -134c0 -113 -117 -140 -304 -142zM246 58c84 0 134 66 134 172c0 107 -52 174 -134 174s-134 -68 -134 -174c0 -103 51 -172 134 -172zM587 404c-79 0 -132 -54 -139 -152c172 3 239 28 239 82c0 29 -33 70 -100 70z" />
    <glyph glyph-name="Scaron" unicode="&#x160;" horiz-adv-x="490" 
d="M69 58c-9 7 -14 17 -14 28c0 18 15 31 31 31c6 0 14 -1 24 -9c24 -19 66 -50 125 -50c82 0 133 47 133 117c0 143 -296 119 -296 312c0 101 90 162 183 162c69 0 120 -32 151 -54c10 -7 14 -16 14 -28c0 -18 -14 -32 -31 -32c-6 0 -15 2 -20 7c-23 18 -63 43 -114 43
c-60 0 -115 -40 -115 -98c0 -141 296 -113 296 -312c0 -109 -81 -181 -201 -181c-77 0 -124 32 -166 64zM400 802l-120 -65c-4 -2 -12 -5 -16 -5c-5 0 -13 3 -17 5l-122 64c-12 7 -17 17 -17 27c0 17 14 33 32 33c5 0 10 -1 16 -4l108 -55l102 55c5 2 11 4 17 4
c18 0 33 -14 33 -33c0 -9 -5 -20 -16 -26z" />
    <glyph glyph-name="scaron" unicode="&#x161;" horiz-adv-x="412" 
d="M367 126c0 -72 -65 -132 -160 -132c-79 0 -140 37 -147 42c-9 7 -15 15 -15 30c0 18 16 31 32 31c9 0 14 -2 19 -5c9 -6 55 -34 111 -34c46 0 92 13 92 68c0 93 -235 73 -235 218c0 86 81 124 156 124c54 0 97 -17 116 -28c10 -5 16 -14 16 -28c0 -19 -14 -31 -31 -31
c-6 0 -13 1 -20 4c-15 7 -44 19 -81 19c-44 0 -88 -14 -88 -60c0 -87 235 -68 235 -218zM344 602l-120 -65c-4 -2 -12 -5 -16 -5c-5 0 -13 3 -17 5l-122 64c-12 7 -17 17 -17 27c0 17 14 33 32 33c5 0 10 -1 16 -4l108 -55l102 55c5 2 11 4 17 4c18 0 33 -14 33 -33
c0 -9 -5 -20 -16 -26z" />
    <glyph glyph-name="Ydieresis" unicode="&#x178;" horiz-adv-x="486" 
d="M460 613c0 -4 0 -7 -2 -12c-1 -1 -117 -287 -183 -346v-222c0 -19 -14 -33 -33 -33s-33 14 -33 33v222c-66 59 -167 308 -182 346c-1 4 -2 8 -2 12c0 17 13 30 34 30c16 0 27 -12 30 -22c8 -21 110 -256 153 -308c43 52 149 292 157 313c4 10 13 17 29 17
c21 0 32 -13 32 -30zM154 765v34c0 19 14 32 33 32s33 -13 33 -32v-34c0 -19 -14 -33 -33 -33s-33 14 -33 33zM281 765v34c0 19 14 32 33 32s33 -13 33 -32v-34c0 -19 -14 -33 -33 -33s-33 14 -33 33z" />
    <glyph glyph-name="Zcaron" unicode="&#x17d;" horiz-adv-x="468" 
d="M410 0h-352c-19 0 -33 13 -33 32v11c0 12 3 22 8 31c40 80 232 379 315 505h-290c-19 0 -33 14 -33 33s14 31 33 31h337c19 0 33 -12 33 -31v-12c0 -13 -5 -27 -11 -36c-51 -72 -251 -388 -315 -500h308c19 0 33 -13 33 -32s-14 -32 -33 -32zM379 802l-120 -65
c-4 -2 -12 -5 -16 -5c-5 0 -13 3 -17 5l-122 64c-12 7 -17 17 -17 27c0 17 14 33 32 33c5 0 10 -1 16 -4l108 -55l102 55c5 2 11 4 17 4c18 0 33 -14 33 -33c0 -9 -5 -20 -16 -26z" />
    <glyph glyph-name="zcaron" unicode="&#x17e;" horiz-adv-x="454" 
d="M79 462h280c22 0 33 -12 33 -32v-8c0 -10 -4 -22 -11 -34c-48 -71 -214 -259 -254 -324h249c20 0 33 -12 33 -31s-13 -33 -33 -33h-299c-20 0 -32 14 -32 33v7c0 10 4 18 8 25c27 54 186 248 256 333h-230c-19 0 -33 12 -33 31c0 18 14 33 33 33zM369 602l-120 -65
c-4 -2 -12 -5 -16 -5c-5 0 -13 3 -17 5l-122 64c-12 7 -17 17 -17 27c0 17 14 33 32 33c5 0 10 -1 16 -4l108 -55l102 55c5 2 11 4 17 4c18 0 33 -14 33 -33c0 -9 -5 -20 -16 -26z" />
    <glyph glyph-name="florin" unicode="&#x192;" horiz-adv-x="645" 
d="M479 353h-111l-57 -283c-33 -161 -109 -189 -152 -189c-64 0 -99 28 -102 31c-7 7 -12 16 -12 26c0 20 13 34 31 34c6 0 14 -3 20 -8c2 -2 24 -19 63 -19c38 0 69 55 86 139c11 59 43 214 54 269h-75c-19 0 -33 13 -33 32s14 32 33 32h89l23 114c26 131 74 189 152 189
c60 0 94 -27 99 -31c9 -7 13 -17 13 -26c0 -18 -15 -34 -32 -34c-4 0 -10 1 -14 5s-24 22 -66 22c-41 0 -68 -43 -87 -139l-21 -100h99c19 0 33 -13 33 -32s-14 -32 -33 -32z" />
    <glyph glyph-name="circumflex" unicode="&#x2c6;" horiz-adv-x="417" 
d="M313 537l-104 55l-105 -55c-6 -3 -11 -5 -17 -5c-18 0 -32 14 -32 31c0 9 4 22 17 28l121 64c5 3 11 5 16 5s11 -2 16 -5l122 -65c11 -5 15 -19 15 -27c0 -19 -15 -31 -33 -31c-6 0 -11 2 -16 5z" />
    <glyph glyph-name="caron" unicode="&#x2c7;" horiz-adv-x="418" 
d="M347 602l-120 -65c-4 -2 -12 -5 -16 -5c-5 0 -13 3 -17 5l-122 64c-12 7 -17 17 -17 27c0 17 14 33 32 33c5 0 10 -1 16 -4l108 -55l102 55c5 2 11 4 17 4c18 0 33 -14 33 -33c0 -9 -5 -20 -16 -26z" />
    <glyph glyph-name="breve" unicode="&#x2d8;" horiz-adv-x="366" 
d="M311 628c0 -1 -12 -96 -130 -96s-126 95 -126 96c0 20 13 33 33 33c18 0 32 -11 32 -32c0 -2 5 -34 61 -34c58 0 63 32 63 34c0 21 17 32 34 32c23 0 33 -13 33 -33z" />
    <glyph glyph-name="dotaccent" unicode="&#x2d9;" horiz-adv-x="194" 
d="M97 532c-24 0 -42 18 -42 43c0 23 18 42 42 42s42 -19 42 -42c0 -25 -18 -43 -42 -43z" />
    <glyph glyph-name="ring" unicode="&#x2da;" horiz-adv-x="278" 
d="M141 533c-48 0 -85 36 -85 84s37 84 85 84s85 -36 85 -84s-37 -84 -85 -84zM180 618c0 21 -18 37 -39 37s-39 -16 -39 -37s18 -39 39 -39s39 18 39 39z" />
    <glyph glyph-name="ogonek" unicode="&#x2db;" horiz-adv-x="303" 
d="M235 -141c-3 -2 -40 -21 -78 -21c-62 0 -102 38 -102 99c0 69 40 95 60 107c5 3 10 5 14 5c14 0 24 -13 24 -25c0 -9 -5 -16 -11 -20c-13 -9 -39 -27 -39 -67c0 -47 41 -52 55 -52c20 0 42 10 54 17c5 3 9 3 12 3c14 0 24 -11 24 -24c0 -9 -5 -17 -13 -22z" />
    <glyph glyph-name="tilde" unicode="&#x2dc;" horiz-adv-x="390" 
d="M330 567c-10 -16 -33 -35 -76 -35c-50 0 -68 21 -118 21c-22 0 -34 -19 -50 -19s-31 7 -31 28c0 6 1 13 5 20c10 16 33 35 76 35c50 0 68 -21 118 -21c22 0 34 19 50 19s31 -10 31 -31c0 -5 -1 -11 -5 -17z" />
    <glyph glyph-name="hungarumlaut" unicode="&#x2dd;" horiz-adv-x="354" 
d="M176 712c0 -6 -3 -14 -5 -19l-53 -138c-5 -13 -14 -23 -31 -23c-16 0 -33 9 -33 29c0 7 3 13 5 19l53 138c5 12 13 23 31 23c19 0 33 -11 33 -29zM299 712c0 -6 -3 -14 -5 -19l-53 -138c-5 -13 -14 -23 -31 -23c-16 0 -33 9 -33 29c0 7 3 13 5 19l53 138
c5 12 13 23 31 23c19 0 33 -11 33 -29z" />
    <glyph glyph-name="Delta" unicode="&#x394;" horiz-adv-x="594" 
d="M494 0h-393c-16 0 -33 13 -33 32c0 5 1 9 3 15l197 483c5 10 12 20 30 20c20 0 25 -9 29 -17l197 -489c1 -4 2 -7 2 -12c0 -18 -16 -32 -32 -32zM446 64l-148 365l-149 -365h297z" />
    <glyph glyph-name="Omega" unicode="&#x3a9;" horiz-adv-x="710" 
d="M609 0h-184c-18 0 -32 13 -32 32c0 18 7 31 30 32c14 0 137 84 137 247c0 149 -85 259 -205 259s-206 -110 -206 -259c0 -158 123 -247 135 -247c21 0 33 -13 33 -32s-12 -32 -33 -32h-183c-19 0 -33 13 -33 32s14 32 33 32h89c-46 48 -109 139 -109 247
c0 186 117 323 274 323s273 -137 273 -323c0 -120 -62 -202 -107 -247h88c19 0 33 -13 33 -32s-14 -32 -33 -32z" />
    <glyph glyph-name="mu" unicode="&#x3bc;" horiz-adv-x="497" 
d="M392 0c-19 0 -31 14 -31 28c-27 -17 -63 -34 -109 -34c-75 0 -107 25 -111 41v-111c0 -19 -14 -33 -33 -33s-33 14 -33 33v507c0 19 14 32 33 32s33 -13 33 -32v-265c0 -83 29 -108 111 -108c48 0 93 27 105 38v335c0 19 14 32 33 32c18 0 33 -13 33 -32v-398
c0 -19 -12 -33 -31 -33z" />
    <glyph glyph-name="pi" unicode="&#x3c0;" horiz-adv-x="621" 
d="M352 171v227h-162v-365c0 -19 -14 -33 -33 -33s-33 14 -33 33v365h-26c-19 0 -33 14 -33 33s14 31 33 31h367c19 0 33 -12 33 -31s-14 -33 -33 -33h-47v-227c0 -102 33 -113 63 -113c11 0 20 4 22 6c6 5 13 10 21 10c17 0 32 -9 32 -29c0 -11 -5 -23 -14 -30
c-9 -6 -33 -21 -61 -21c-64 0 -129 21 -129 177z" />
    <glyph glyph-name="endash" unicode="&#x2013;" horiz-adv-x="509" 
d="M394 203h-280c-19 0 -33 13 -33 32s14 32 33 32h280c19 0 33 -13 33 -32s-14 -32 -33 -32z" />
    <glyph glyph-name="emdash" unicode="&#x2014;" horiz-adv-x="619" 
d="M505 203h-391c-19 0 -33 13 -33 32c0 18 14 32 33 32h391c19 0 33 -14 33 -32c0 -19 -14 -32 -33 -32z" />
    <glyph glyph-name="quoteleft" unicode="&#x2018;" horiz-adv-x="234" 
d="M98 643c19 0 33 -14 33 -33c0 -31 5 -82 25 -105c6 -8 11 -15 11 -25c0 -19 -14 -31 -33 -31c-57 0 -69 116 -69 156v5c0 19 14 33 33 33z" />
    <glyph glyph-name="quoteright" unicode="&#x2019;" horiz-adv-x="234" 
d="M134 643c19 0 33 -14 33 -33v-5c0 -40 -12 -156 -69 -156c-19 0 -33 12 -33 31c0 10 5 17 11 25c20 23 25 74 25 105c0 19 14 33 33 33z" />
    <glyph glyph-name="quotesinglbase" unicode="&#x201a;" horiz-adv-x="235" 
d="M134 78c19 0 33 -14 33 -33v-5c0 -40 -12 -156 -69 -156c-19 0 -33 12 -33 31c0 10 5 17 11 25c20 23 25 74 25 105c0 19 14 33 33 33z" />
    <glyph glyph-name="quotedblleft" unicode="&#x201c;" horiz-adv-x="362" 
d="M98 643c19 0 33 -14 33 -33c0 -31 5 -82 25 -105c6 -8 11 -15 11 -25c0 -19 -14 -31 -33 -31c-57 0 -69 116 -69 156v5c0 19 14 33 33 33zM226 643c19 0 33 -14 33 -33c0 -31 5 -82 25 -105c6 -8 11 -15 11 -25c0 -19 -14 -31 -33 -31c-57 0 -69 116 -69 156v5
c0 19 14 33 33 33z" />
    <glyph glyph-name="quotedblright" unicode="&#x201d;" horiz-adv-x="362" 
d="M262 643c19 0 33 -14 33 -33v-5c0 -40 -12 -156 -69 -156c-19 0 -33 12 -33 31c0 10 5 17 11 25c20 23 25 74 25 105c0 19 14 33 33 33zM134 643c19 0 33 -14 33 -33v-5c0 -40 -12 -156 -69 -156c-19 0 -33 12 -33 31c0 10 5 17 11 25c20 23 25 74 25 105
c0 19 14 33 33 33z" />
    <glyph glyph-name="quotedblbase" unicode="&#x201e;" horiz-adv-x="362" 
d="M262 78c19 0 33 -14 33 -33v-5c0 -40 -12 -156 -69 -156c-19 0 -33 12 -33 31c0 10 5 17 11 25c20 23 25 74 25 105c0 19 14 33 33 33zM134 78c19 0 33 -14 33 -33v-5c0 -40 -12 -156 -69 -156c-19 0 -33 12 -33 31c0 10 5 17 11 25c20 23 25 74 25 105c0 19 14 33 33 33
z" />
    <glyph glyph-name="dagger" unicode="&#x2020;" horiz-adv-x="549" 
d="M242 -32v430h-144c-19 0 -33 13 -33 32s14 32 33 32h144v169c0 19 13 33 32 33s34 -14 34 -33v-169h143c19 0 33 -12 33 -31s-14 -33 -33 -33h-143v-430c0 -19 -15 -33 -34 -33s-32 14 -32 33z" />
    <glyph glyph-name="daggerdbl" unicode="&#x2021;" horiz-adv-x="549" 
d="M242 -32v296h-144c-19 0 -33 14 -33 33s14 31 33 31h144v70h-145c-19 0 -32 14 -32 33s13 31 32 31h145v169c0 19 14 33 33 33s33 -14 33 -33v-169h142c19 0 33 -12 33 -31s-14 -33 -33 -33h-142v-70h142c19 0 34 -12 34 -31s-15 -33 -34 -33h-142v-296
c0 -19 -14 -33 -33 -33s-33 14 -33 33z" />
    <glyph glyph-name="bullet" unicode="&#x2022;" horiz-adv-x="260" 
d="M130 203c-32 0 -58 25 -58 57c0 33 26 59 58 59c33 0 58 -26 58 -59c0 -32 -25 -57 -58 -57z" />
    <glyph glyph-name="ellipsis" unicode="&#x2026;" horiz-adv-x="403" 
d="M72 27v33c0 19 14 33 33 33s33 -14 33 -33v-33c0 -19 -14 -33 -33 -33s-33 14 -33 33zM169 27v33c0 19 14 33 33 33s33 -14 33 -33v-33c0 -19 -14 -33 -33 -33s-33 14 -33 33zM266 27v33c0 19 14 33 33 33s33 -14 33 -33v-33c0 -19 -14 -33 -33 -33s-33 14 -33 33z" />
    <glyph glyph-name="perthousand" unicode="&#x2030;" horiz-adv-x="1068" 
d="M167 299c-76 0 -124 64 -124 172c0 106 49 175 124 175s125 -70 125 -175c0 -108 -48 -172 -125 -172zM167 347c45 0 74 48 74 124c0 67 -24 127 -74 127c-44 0 -73 -51 -73 -127s28 -124 73 -124zM582 -3c-76 0 -124 64 -124 172c0 106 49 175 124 175s125 -70 125 -175
c0 -108 -48 -172 -125 -172zM582 45c45 0 74 48 74 124c0 67 -24 127 -74 127c-44 0 -73 -51 -73 -127s28 -124 73 -124zM156 44l405 592c5 8 14 13 26 13c13 0 22 -12 22 -21c0 -11 -3 -18 -7 -23l-405 -592c-5 -8 -14 -13 -26 -13c-13 0 -22 12 -22 21c0 11 4 19 7 23z
M887 -3c-76 0 -124 64 -124 172c0 106 49 175 124 175s125 -70 125 -175c0 -108 -48 -172 -125 -172zM887 45c45 0 74 48 74 124c0 67 -24 127 -74 127c-44 0 -73 -51 -73 -127s28 -124 73 -124z" />
    <glyph glyph-name="guilsinglleft" unicode="&#x2039;" horiz-adv-x="293" 
d="M169 61l-100 151c-2 4 -4 8 -4 17c0 5 1 12 5 18l99 144c6 8 16 13 27 13c19 0 33 -14 33 -32c0 -5 -2 -12 -7 -19l-87 -124l89 -131c4 -7 5 -11 5 -18c0 -18 -15 -32 -34 -32c-9 0 -19 4 -26 13z" />
    <glyph glyph-name="guilsinglright" unicode="&#x203a;" horiz-adv-x="294" 
d="M225 212l-100 -151c-7 -9 -17 -13 -27 -13c-18 0 -33 14 -33 32c0 7 1 11 5 18l89 131l-87 124c-5 7 -7 14 -7 19c0 17 14 32 33 32c12 0 21 -5 27 -14l99 -143c4 -6 5 -13 5 -18c0 -9 -2 -13 -4 -17z" />
    <glyph glyph-name="fraction" unicode="&#x2044;" horiz-adv-x="175" 
d="M-123 44l405 592c5 8 14 13 26 13c13 0 22 -12 22 -21c0 -11 -3 -18 -7 -23l-405 -592c-5 -8 -14 -13 -26 -13c-13 0 -22 12 -22 21c0 11 4 19 7 23z" />
    <glyph glyph-name="uni2070" unicode="&#x2070;" horiz-adv-x="377" 
d="M188 299c-76 0 -124 64 -124 172c0 106 49 175 124 175s125 -70 125 -175c0 -108 -48 -172 -125 -172zM188 347c45 0 74 48 74 124c0 67 -24 127 -74 127c-44 0 -73 -51 -73 -127s28 -124 73 -124z" />
    <glyph glyph-name="uni2074" unicode="&#x2074;" horiz-adv-x="377" 
d="M218 328v55h-125c-18 0 -25 12 -25 24c0 3 0 4 3 12c54 118 146 212 150 216c5 6 11 8 20 8c14 0 24 -12 24 -23c0 -9 -4 -16 -8 -20c-1 -1 -79 -79 -127 -169h88v67c0 16 11 26 25 26c13 0 25 -10 25 -26v-67h13c17 0 27 -8 27 -24c0 -14 -10 -24 -27 -24h-13v-55
c0 -15 -12 -26 -25 -26c-14 0 -25 11 -25 26z" />
    <glyph glyph-name="uni2075" unicode="&#x2075;" horiz-adv-x="377" 
d="M249 595h-107v-73c9 5 22 6 35 6c67 0 115 -47 115 -110c0 -87 -62 -119 -115 -119c-52 0 -81 25 -83 27c-6 6 -10 13 -10 21c0 15 12 25 24 25c7 0 14 -2 20 -8c4 -4 21 -17 49 -17c31 0 64 20 64 71c0 34 -28 62 -64 62c-20 0 -38 -10 -45 -15c-4 -3 -11 -4 -15 -4
c-13 0 -25 7 -25 24v134c0 17 11 24 25 24h132c14 0 26 -10 26 -24c0 -16 -12 -24 -26 -24z" />
    <glyph glyph-name="uni2076" unicode="&#x2076;" horiz-adv-x="377" 
d="M191 299c-72 0 -115 56 -115 158c0 132 38 189 124 189c52 0 78 -23 82 -27s8 -11 8 -20c0 -11 -9 -24 -23 -24c-8 0 -14 3 -21 8c-5 3 -17 15 -46 15c-34 0 -73 -16 -73 -141c0 -70 22 -110 64 -110c48 0 59 46 59 72c0 22 -11 64 -59 64c-10 0 -17 -7 -29 -7
c-13 0 -22 7 -22 23c0 9 5 15 9 18c8 6 20 14 42 14c85 0 110 -71 110 -112c0 -44 -25 -120 -110 -120z" />
    <glyph glyph-name="uni2077" unicode="&#x2077;" horiz-adv-x="377" 
d="M246 595h-145c-14 0 -26 8 -26 24c0 13 12 24 26 24h175c14 0 26 -9 26 -24c0 -30 -28 -80 -54 -126c-30 -56 -69 -128 -69 -167c0 -15 -12 -24 -24 -24c-17 0 -26 9 -26 24c0 53 43 132 76 191c15 25 28 50 41 78z" />
    <glyph glyph-name="uni2078" unicode="&#x2078;" horiz-adv-x="377" 
d="M295 549c0 -31 -16 -61 -36 -72c24 -8 44 -35 44 -77c0 -64 -41 -101 -116 -101c-68 0 -114 40 -114 101c0 42 18 73 42 82c-20 9 -33 35 -33 67c0 76 68 97 105 97c54 0 108 -29 108 -97zM162 455c-19 -2 -38 -23 -38 -55c0 -38 34 -53 63 -53s65 11 65 53
c0 43 -48 50 -90 55zM212 496c15 3 32 25 32 53c0 39 -35 49 -57 49c-20 0 -54 -10 -54 -49c0 -40 37 -47 79 -53z" />
    <glyph glyph-name="uni2079" unicode="&#x2079;" horiz-adv-x="377" 
d="M186 646c72 0 115 -56 115 -158c0 -132 -38 -189 -124 -189c-52 0 -78 23 -82 27s-8 11 -8 20c0 11 9 24 23 24c8 0 14 -3 21 -8c5 -3 17 -15 46 -15c34 0 73 16 73 141c0 70 -22 110 -64 110c-48 0 -59 -46 -59 -72c0 -22 11 -64 59 -64c10 0 17 7 29 7
c13 0 22 -7 22 -23c0 -9 -5 -15 -9 -18c-8 -6 -20 -14 -42 -14c-85 0 -110 71 -110 112c0 44 25 120 110 120z" />
    <glyph glyph-name="uni2080" unicode="&#x2080;" horiz-adv-x="377" 
d="M188 -141c-76 0 -124 64 -124 172c0 106 49 175 124 175s125 -70 125 -175c0 -108 -48 -172 -125 -172zM188 -93c45 0 74 48 74 124c0 67 -24 127 -74 127c-44 0 -73 -51 -73 -127s28 -124 73 -124z" />
    <glyph glyph-name="uni2081" unicode="&#x2081;" horiz-adv-x="310" 
d="M155 -138c-15 0 -25 11 -25 26v244l-20 -12c-3 -2 -6 -3 -11 -3c-12 0 -23 9 -23 25c0 8 6 17 12 21l52 35c3 2 8 5 16 5c12 0 24 -9 24 -26v-289c0 -15 -10 -26 -25 -26z" />
    <glyph glyph-name="uni2082" unicode="&#x2082;" horiz-adv-x="403" 
d="M271 -138h-156c-11 0 -24 9 -24 24c0 42 41 84 80 123c37 37 73 73 73 100c0 41 -31 49 -50 49c-26 0 -47 -12 -53 -17c-3 -2 -9 -6 -18 -6c-13 0 -23 12 -23 25c0 8 5 16 12 21c10 8 38 25 82 25c30 0 101 -9 101 -97c0 -48 -43 -91 -86 -132c-25 -24 -47 -48 -59 -67
h121c15 0 25 -9 25 -24s-10 -24 -25 -24z" />
    <glyph glyph-name="uni2083" unicode="&#x2083;" horiz-adv-x="410" 
d="M186 11h-14c-14 0 -24 8 -24 24c0 15 10 24 24 24h14c30 0 62 15 62 50c0 44 -38 49 -54 49c-24 0 -43 -11 -52 -18c-3 -2 -9 -5 -15 -5c-12 0 -24 10 -24 25c0 9 5 16 10 19c6 5 37 27 81 27c54 0 105 -25 105 -95c0 -32 -14 -63 -40 -75c26 -12 46 -45 46 -76
c0 -59 -51 -101 -110 -101c-63 0 -93 26 -95 28c-4 4 -8 9 -8 19c0 15 13 24 25 24c5 0 12 -2 20 -8s26 -15 58 -15c33 0 59 24 59 52c0 39 -35 52 -68 52z" />
    <glyph glyph-name="uni2084" unicode="&#x2084;" horiz-adv-x="377" 
d="M218 -112v55h-125c-18 0 -25 12 -25 24c0 3 0 4 3 12c54 118 146 212 150 216c5 6 11 8 20 8c14 0 24 -12 24 -23c0 -9 -4 -16 -8 -20c-1 -1 -79 -79 -127 -169h88v67c0 16 11 26 25 26c13 0 25 -10 25 -26v-67h13c17 0 27 -8 27 -24c0 -14 -10 -24 -27 -24h-13v-55
c0 -15 -12 -26 -25 -26c-14 0 -25 11 -25 26z" />
    <glyph glyph-name="uni2085" unicode="&#x2085;" horiz-adv-x="377" 
d="M249 155h-107v-73c9 5 22 6 35 6c67 0 115 -47 115 -110c0 -87 -62 -119 -115 -119c-52 0 -81 25 -83 27c-6 6 -10 13 -10 21c0 15 12 25 24 25c7 0 14 -2 20 -8c4 -4 21 -17 49 -17c31 0 64 20 64 71c0 34 -28 62 -64 62c-20 0 -38 -10 -45 -15c-4 -3 -11 -4 -15 -4
c-13 0 -25 7 -25 24v134c0 17 11 24 25 24h132c14 0 26 -10 26 -24c0 -16 -12 -24 -26 -24z" />
    <glyph glyph-name="uni2086" unicode="&#x2086;" horiz-adv-x="377" 
d="M191 -141c-72 0 -115 56 -115 158c0 132 38 189 124 189c52 0 78 -23 82 -27s8 -11 8 -20c0 -11 -9 -24 -23 -24c-8 0 -14 3 -21 8c-5 3 -17 15 -46 15c-34 0 -73 -16 -73 -141c0 -70 22 -110 64 -110c48 0 59 46 59 72c0 22 -11 64 -59 64c-10 0 -17 -7 -29 -7
c-13 0 -22 7 -22 23c0 9 5 15 9 18c8 6 20 14 42 14c85 0 110 -71 110 -112c0 -44 -25 -120 -110 -120z" />
    <glyph glyph-name="uni2087" unicode="&#x2087;" horiz-adv-x="377" 
d="M246 155h-145c-14 0 -26 8 -26 24c0 13 12 24 26 24h175c14 0 26 -9 26 -24c0 -30 -28 -80 -54 -126c-30 -56 -69 -128 -69 -167c0 -15 -12 -24 -24 -24c-17 0 -26 9 -26 24c0 53 43 132 76 191c15 25 28 50 41 78z" />
    <glyph glyph-name="uni2088" unicode="&#x2088;" horiz-adv-x="377" 
d="M295 109c0 -31 -16 -61 -36 -72c24 -8 44 -35 44 -77c0 -64 -41 -101 -116 -101c-68 0 -114 40 -114 101c0 42 18 73 42 82c-20 9 -33 35 -33 67c0 76 68 97 105 97c54 0 108 -29 108 -97zM162 15c-19 -2 -38 -23 -38 -55c0 -38 34 -53 63 -53s65 11 65 53
c0 43 -48 50 -90 55zM212 56c15 3 32 25 32 53c0 39 -35 49 -57 49c-20 0 -54 -10 -54 -49c0 -40 37 -47 79 -53z" />
    <glyph glyph-name="uni2089" unicode="&#x2089;" horiz-adv-x="377" 
d="M186 206c72 0 115 -56 115 -158c0 -132 -38 -189 -124 -189c-52 0 -78 23 -82 27s-8 11 -8 20c0 11 9 24 23 24c8 0 14 -3 21 -8c5 -3 17 -15 46 -15c34 0 73 16 73 141c0 70 -22 110 -64 110c-48 0 -59 -46 -59 -72c0 -22 11 -64 59 -64c10 0 17 7 29 7
c13 0 22 -7 22 -23c0 -9 -5 -15 -9 -18c-8 -6 -20 -14 -42 -14c-85 0 -110 71 -110 112c0 44 25 120 110 120z" />
    <glyph glyph-name="Euro" unicode="&#x20ac;" horiz-adv-x="576" 
d="M403 222h-210c20 -94 75 -164 155 -164c52 0 74 14 112 39c7 4 13 5 19 5c21 0 33 -15 33 -34c0 -10 -5 -19 -12 -24c-44 -31 -88 -50 -152 -50c-116 0 -200 96 -225 228h-25c-19 0 -33 13 -33 32s14 32 33 32h17c-1 10 -1 14 -1 30c0 18 0 25 1 35h-17
c-19 0 -33 13 -33 32s14 32 33 32h25c28 131 119 234 234 234c63 0 102 -21 124 -35c9 -5 14 -17 14 -27c0 -20 -18 -33 -34 -33c-7 0 -13 2 -19 6c-15 10 -46 25 -85 25c-85 0 -144 -73 -165 -170h211c19 0 33 -13 33 -32s-14 -32 -33 -32h-219c-1 -10 -2 -17 -2 -35
c0 -16 0 -20 1 -30h220c19 0 33 -13 33 -32s-14 -32 -33 -32z" />
    <glyph glyph-name="trademark" unicode="&#x2122;" horiz-adv-x="744" 
d="M165 407v282h-76c-13 0 -24 9 -24 24s11 24 24 24h205c13 0 24 -9 24 -24s-11 -24 -24 -24h-79v-282c0 -14 -11 -24 -25 -24s-25 10 -25 24zM656 383c-12 0 -25 7 -26 21l-25 247l-77 -251c-4 -11 -9 -17 -23 -17h-14c-13 0 -20 6 -23 17l-74 251l-26 -247
c-1 -14 -13 -21 -25 -21c-15 0 -24 8 -24 25l35 307c2 13 14 22 24 22h19c14 0 20 -8 23 -18l78 -263l81 263c3 10 12 18 24 18h18c13 0 23 -11 24 -23l34 -306c0 -14 -9 -25 -23 -25z" />
    <glyph glyph-name="uni2126" unicode="&#x2126;" horiz-adv-x="710" 
d="M609 0h-184c-18 0 -32 13 -32 32c0 18 7 31 30 32c14 0 137 84 137 247c0 149 -85 259 -205 259s-206 -110 -206 -259c0 -158 123 -247 135 -247c21 0 33 -13 33 -32s-12 -32 -33 -32h-183c-19 0 -33 13 -33 32s14 32 33 32h89c-46 48 -109 139 -109 247
c0 186 117 323 274 323s273 -137 273 -323c0 -120 -62 -202 -107 -247h88c19 0 33 -13 33 -32s-14 -32 -33 -32z" />
    <glyph glyph-name="partialdiff" unicode="&#x2202;" horiz-adv-x="486" 
d="M369 414c-17 134 -96 207 -150 207c-62 0 -94 -16 -100 -18c-10 -5 -16 -7 -22 -7c-19 0 -34 14 -34 32s11 26 21 32c26 13 65 25 135 25c91 0 223 -103 223 -338c0 -229 -73 -353 -202 -353c-168 0 -195 162 -195 256c0 99 54 218 199 218c44 0 90 -24 125 -54zM374 334
c-31 33 -78 70 -130 70c-99 0 -131 -81 -131 -154c0 -87 21 -192 127 -192c85 0 132 96 134 276z" />
    <glyph glyph-name="uni2206" unicode="&#x2206;" horiz-adv-x="594" 
d="M494 0h-393c-16 0 -33 13 -33 32c0 5 1 9 3 15l197 483c5 10 12 20 30 20c20 0 25 -9 29 -17l197 -489c1 -4 2 -7 2 -12c0 -18 -16 -32 -32 -32zM446 64l-148 365l-149 -365h297z" />
    <glyph glyph-name="product" unicode="&#x220f;" horiz-adv-x="707" 
d="M570 579v-794c0 -18 -14 -33 -33 -33c-21 0 -33 15 -33 33v794h-301v-794c0 -18 -14 -33 -33 -33c-21 0 -33 15 -33 33v794h-39c-20 0 -33 15 -33 33c0 21 13 31 33 31h509c18 0 33 -10 33 -31c0 -18 -15 -33 -33 -33h-37z" />
    <glyph glyph-name="summation" unicode="&#x2211;" horiz-adv-x="500" 
d="M98 643h308c19 0 34 -15 34 -33c0 -22 -15 -31 -34 -31h-253l177 -364c3 -5 4 -12 4 -18c0 -7 -1 -12 -4 -17l-178 -364h254c19 0 34 -13 34 -32c0 -20 -15 -32 -34 -32h-308c-21 0 -33 14 -33 33c0 5 1 11 5 18l196 394l-195 394c-3 5 -5 13 -5 18c0 18 12 34 32 34z
" />
    <glyph glyph-name="minus" unicode="&#x2212;" 
d="M489 204h-378c-19 0 -33 13 -33 32s14 32 33 32h378c19 0 33 -13 33 -32s-14 -32 -33 -32z" />
    <glyph glyph-name="uni2219" unicode="&#x2219;" horiz-adv-x="228" 
d="M114 225c-24 0 -42 17 -42 41c0 25 18 43 42 43s42 -18 42 -43c0 -24 -18 -41 -42 -41z" />
    <glyph glyph-name="radical" unicode="&#x221a;" horiz-adv-x="677" 
d="M610 632l-230 -610c-4 -13 -18 -22 -30 -22c-16 0 -27 11 -30 23l-129 359l-82 -30c-3 -1 -8 -2 -12 -2c-19 0 -32 14 -32 34c0 14 9 25 22 30l113 38c4 1 8 2 12 2c13 0 25 -9 29 -20l111 -305l197 527c5 12 18 20 31 20c21 0 32 -15 32 -32c0 -5 -1 -9 -2 -12z" />
    <glyph glyph-name="infinity" unicode="&#x221e;" horiz-adv-x="811" 
d="M408 217c-33 -31 -102 -91 -174 -91c-76 0 -139 62 -139 140c0 80 61 140 139 140c72 0 143 -61 175 -93c32 30 103 92 165 92c79 0 142 -61 142 -139c0 -79 -62 -139 -142 -139c-72 0 -136 59 -166 90zM365 266c-23 22 -78 76 -131 76c-41 0 -71 -33 -71 -76
c0 -41 32 -77 71 -77c52 0 106 52 131 77zM453 265c23 -23 76 -75 121 -75c43 0 74 34 74 76c0 41 -32 75 -74 75c-44 0 -99 -54 -121 -76z" />
    <glyph glyph-name="uni2224" unicode="&#x2224;" horiz-adv-x="214" 
d="M107 225c-24 0 -42 17 -42 41c0 25 18 43 42 43s42 -18 42 -43c0 -24 -18 -41 -42 -41z" />
    <glyph glyph-name="logicaland" unicode="&#x2227;" horiz-adv-x="214" 
d="M107 225c-24 0 -42 17 -42 41c0 25 18 43 42 43s42 -18 42 -43c0 -24 -18 -41 -42 -41z" />
    <glyph glyph-name="integral" unicode="&#x222b;" horiz-adv-x="596" 
d="M265 83v500c0 155 96 197 153 197c60 0 94 -26 100 -32c8 -6 13 -16 13 -27c0 -18 -12 -31 -31 -31c-6 0 -15 1 -21 7c-11 10 -34 19 -61 19c-33 0 -87 -30 -87 -133v-500c0 -155 -95 -196 -152 -196c-62 0 -95 25 -101 30c-8 7 -13 18 -13 28c0 19 15 33 31 33
c7 0 15 -4 20 -8c12 -10 33 -19 63 -19c32 0 86 29 86 132z" />
    <glyph glyph-name="approxequal" unicode="&#x2248;" 
d="M114 344c1 1 39 38 89 38c74 0 125 -53 190 -53c19 0 36 14 44 22c7 7 15 10 24 10c19 0 34 -15 34 -33c0 -9 -3 -17 -10 -24c-1 -1 -40 -39 -92 -39c-76 0 -124 53 -190 53c-17 0 -37 -12 -44 -19s-14 -10 -23 -10c-19 0 -32 13 -32 32c0 9 3 16 10 23zM114 209
c1 1 39 38 89 38c74 0 125 -53 190 -53c19 0 36 14 44 22c7 7 15 10 24 10c19 0 34 -15 34 -33c0 -9 -3 -17 -10 -24c-1 -1 -40 -39 -92 -39c-76 0 -124 53 -190 53c-17 0 -37 -12 -44 -19s-14 -10 -23 -10c-19 0 -32 13 -32 32c0 9 3 16 10 23z" />
    <glyph glyph-name="notequal" unicode="&#x2260;" 
d="M434 383l-30 -47h73c19 0 33 -13 33 -32s-14 -32 -33 -32h-114l-41 -65h155c19 0 33 -13 33 -32s-14 -32 -33 -32h-196l-57 -89c-7 -10 -17 -15 -27 -15c-18 0 -34 12 -34 31c0 8 2 13 6 19l34 54h-81c-19 0 -33 13 -33 32s14 32 33 32h122l42 65h-164
c-19 0 -33 13 -33 32s14 32 33 32h205l53 82c6 10 16 16 27 16c17 0 34 -12 34 -29c0 -9 -3 -16 -7 -22z" />
    <glyph glyph-name="lessequal" unicode="&#x2264;" 
d="M476 0h-354c-19 0 -33 13 -33 32s14 32 33 32h354c19 0 33 -13 33 -32s-14 -32 -33 -32zM460 106l-353 184c-13 7 -18 14 -18 29c0 14 7 22 18 28l355 182c6 3 11 4 17 4c17 0 31 -15 31 -33c0 -15 -9 -23 -20 -29l-299 -152l300 -157c10 -6 17 -17 17 -30
c0 -19 -18 -31 -32 -31c-5 0 -11 2 -16 5z" />
    <glyph glyph-name="greaterequal" unicode="&#x2265;" 
d="M476 0h-354c-19 0 -33 13 -33 32s14 32 33 32h354c19 0 33 -13 33 -32s-14 -32 -33 -32zM491 290l-352 -184c-5 -3 -12 -5 -16 -5c-14 0 -33 12 -33 31c0 13 8 24 18 30l299 157l-298 152c-12 6 -20 14 -20 29c0 18 14 33 31 33c6 0 11 -1 17 -4l354 -182
c12 -6 19 -13 19 -28s-5 -22 -19 -29z" />
    <glyph glyph-name="dotmath" unicode="&#x22c5;" horiz-adv-x="214" 
d="M107 225c-24 0 -42 17 -42 41c0 25 18 43 42 43s42 -18 42 -43c0 -24 -18 -41 -42 -41z" />
    <glyph glyph-name="lozenge" unicode="&#x25ca;" horiz-adv-x="625" 
d="M280 15l-182 290c-2 4 -3 7 -3 14s2 13 5 18l181 276c6 8 17 14 26 14c11 0 22 -4 29 -14l190 -276c3 -5 4 -12 4 -19c0 -6 -2 -13 -5 -18l-189 -286c-7 -10 -16 -14 -29 -14c-10 0 -20 6 -27 15zM309 93l148 224l-149 217l-141 -217z" />
    <glyph glyph-name="uniFB06" unicode="&#xfb06;" horiz-adv-x="766" 
d="M497 170v228h-277c-44 0 -88 -14 -88 -54c0 -87 235 -68 235 -218c0 -72 -65 -132 -160 -132c-81 0 -140 37 -148 43s-14 14 -14 29c0 18 16 31 32 31c9 0 14 -2 19 -5c9 -6 55 -34 111 -34c46 0 92 13 92 68c0 93 -235 73 -235 218c0 87 80 118 156 118h277v104
c0 19 14 33 33 33s33 -14 33 -33v-104h118c21 0 33 -13 33 -31c0 -19 -12 -33 -33 -33h-118v-228c0 -102 54 -112 98 -112c19 0 34 8 43 12c4 2 9 4 15 4c18 0 32 -12 32 -32c0 -10 -5 -23 -16 -29c-17 -10 -46 -19 -74 -19c-80 0 -164 21 -164 176z" />
    <glyph glyph-name="parenleft.case" horiz-adv-x="414" 
d="M286 -80c-7 0 -11 1 -17 3s-174 75 -174 375c0 288 156 405 172 417c6 4 11 6 18 6c19 0 34 -15 34 -34c0 -10 -6 -22 -18 -30c-2 -1 -138 -92 -138 -359c0 -251 129 -313 137 -317c13 -6 18 -19 18 -30c0 -19 -13 -31 -32 -31z" />
    <glyph glyph-name="parenright.case" horiz-adv-x="414" 
d="M128 -80c-19 0 -32 12 -32 31c0 11 5 24 18 30c8 4 137 66 137 317c0 267 -136 358 -138 359c-12 8 -18 20 -18 30c0 19 15 34 34 34c7 0 12 -2 18 -6c16 -12 172 -129 172 -417c0 -300 -168 -373 -174 -375s-10 -3 -17 -3z" />
    <glyph glyph-name="hyphen.case" horiz-adv-x="479" 
d="M351 289h-223c-19 0 -33 13 -33 32c0 18 14 32 33 32h223c19 0 33 -14 33 -32c0 -19 -14 -32 -33 -32z" />
    <glyph glyph-name="bracketleft.case" horiz-adv-x="374" 
d="M247 -56h-119c-19 0 -33 12 -33 31v692c0 19 14 30 33 30h119c19 0 32 -11 32 -30s-13 -34 -32 -34h-86v-625h86c19 0 32 -14 32 -33s-13 -31 -32 -31z" />
    <glyph glyph-name="bracketright.case" horiz-adv-x="374" 
d="M247 -56h-119c-19 0 -33 12 -33 31s14 33 33 33h85v625h-85c-19 0 -33 15 -33 34s14 30 33 30h119c18 0 33 -11 33 -30v-692c0 -19 -14 -31 -33 -31z" />
    <glyph glyph-name="braceleft.case" horiz-adv-x="372" 
d="M258 5c23 0 39 -8 39 -30s-18 -34 -44 -34c-60 0 -139 18 -139 103v204c0 33 -18 38 -25 43s-14 12 -14 29s7 24 14 29s25 10 25 43v204c0 73 58 105 134 105c23 0 50 -6 50 -33c0 -22 -17 -31 -40 -31c-39 0 -78 -10 -78 -44v-201c0 -36 -12 -59 -23 -72
c11 -13 23 -34 23 -70v-202c0 -34 39 -43 78 -43z" />
    <glyph glyph-name="braceright.case" horiz-adv-x="372" 
d="M115 5c39 0 78 9 78 43v202c0 36 12 57 23 70c-11 13 -23 36 -23 72v201c0 34 -39 44 -78 44c-23 0 -40 9 -40 31c0 27 27 33 50 33c76 0 134 -32 134 -105v-204c0 -33 18 -38 25 -43s14 -12 14 -29s-7 -24 -14 -29s-25 -10 -25 -43v-204c0 -85 -79 -103 -139 -103
c-26 0 -44 12 -44 34s16 30 39 30z" />
    <glyph glyph-name="guillemotleft.case" horiz-adv-x="441" 
d="M169 156l-100 151c-2 4 -4 9 -4 17c0 7 1 12 5 18l99 144c7 8 16 13 27 13c19 0 33 -14 33 -32c0 -5 -2 -12 -7 -19l-87 -124l89 -131c4 -7 6 -12 6 -18c0 -18 -16 -33 -35 -33c-9 0 -19 5 -26 14zM315 156l-100 151c-2 4 -4 9 -4 17c0 7 1 12 5 18l99 144
c7 8 16 13 27 13c19 0 33 -14 33 -32c0 -5 -2 -12 -7 -19l-87 -124l89 -131c4 -7 6 -12 6 -18c0 -18 -15 -33 -34 -33c-10 0 -20 5 -27 14z" />
    <glyph glyph-name="uni00AD.case" horiz-adv-x="439" 
d="M331 289h-223c-19 0 -33 13 -33 32c0 18 14 32 33 32h223c19 0 33 -14 33 -32c0 -19 -14 -32 -33 -32z" />
    <glyph glyph-name="guillemotright.case" horiz-adv-x="441" 
d="M217 193l88 131l-87 124c-5 7 -6 14 -6 19c0 18 14 32 32 32c12 0 21 -5 28 -13l99 -144c3 -6 5 -11 5 -18c0 -8 -2 -13 -5 -17l-99 -151c-7 -9 -17 -14 -27 -14c-19 0 -34 15 -34 33c0 6 2 11 6 18zM71 193l88 131l-87 124c-5 7 -7 14 -7 19c0 18 15 32 33 32
c12 0 21 -5 27 -13l100 -144c3 -6 5 -11 5 -18c0 -8 -2 -13 -5 -17l-100 -151c-6 -9 -17 -14 -26 -14c-19 0 -34 15 -34 33c0 6 1 11 6 18z" />
    <glyph glyph-name="endash.case" horiz-adv-x="509" 
d="M394 289h-280c-19 0 -33 13 -33 32s14 32 33 32h280c19 0 33 -13 33 -32s-14 -32 -33 -32z" />
    <glyph glyph-name="emdash.case" horiz-adv-x="619" 
d="M505 289h-391c-19 0 -33 13 -33 32c0 18 14 32 33 32h391c19 0 33 -14 33 -32c0 -19 -14 -32 -33 -32z" />
    <glyph glyph-name="guilsinglleft.case" horiz-adv-x="293" 
d="M169 156l-100 151c-2 4 -4 8 -4 17c0 5 1 12 5 18l99 144c6 8 16 13 27 13c19 0 33 -14 33 -32c0 -5 -2 -12 -7 -19l-87 -124l89 -131c4 -7 5 -11 5 -18c0 -18 -15 -32 -34 -32c-9 0 -19 4 -26 13z" />
    <glyph glyph-name="guilsinglright.case" horiz-adv-x="294" 
d="M225 307l-100 -151c-7 -9 -17 -13 -27 -13c-18 0 -33 14 -33 32c0 7 1 11 5 18l89 131l-87 124c-5 7 -7 14 -7 19c0 17 14 32 33 32c12 0 21 -5 27 -14l99 -143c4 -6 5 -13 5 -18c0 -9 -2 -13 -4 -17z" />
    <glyph glyph-name="zero.dnom" horiz-adv-x="377" 
d="M188 -3c-76 0 -124 64 -124 172c0 106 49 175 124 175s125 -70 125 -175c0 -108 -48 -172 -125 -172zM188 45c45 0 74 48 74 124c0 67 -24 127 -74 127c-44 0 -73 -51 -73 -127s28 -124 73 -124z" />
    <glyph glyph-name="one.dnom" horiz-adv-x="310" 
d="M155 0c-15 0 -25 11 -25 26v244l-20 -12c-3 -2 -6 -3 -11 -3c-12 0 -23 9 -23 25c0 8 6 17 12 21l52 35c3 2 8 5 16 5c12 0 24 -9 24 -26v-289c0 -15 -10 -26 -25 -26z" />
    <glyph glyph-name="two.dnom" horiz-adv-x="403" 
d="M271 0h-156c-11 0 -24 9 -24 24c0 42 41 84 80 123c37 37 73 73 73 100c0 41 -31 49 -50 49c-26 0 -47 -12 -53 -17c-3 -2 -9 -6 -18 -6c-13 0 -23 12 -23 25c0 8 5 16 12 21c10 8 38 25 82 25c30 0 101 -9 101 -97c0 -48 -43 -91 -86 -132c-25 -24 -47 -48 -59 -67h121
c15 0 25 -9 25 -24s-10 -24 -25 -24z" />
    <glyph glyph-name="three.dnom" horiz-adv-x="410" 
d="M186 149h-14c-14 0 -24 8 -24 24c0 15 10 24 24 24h14c30 0 62 15 62 50c0 44 -38 49 -54 49c-24 0 -43 -11 -52 -18c-3 -2 -9 -5 -15 -5c-12 0 -24 10 -24 25c0 9 5 16 10 19c6 5 37 27 81 27c54 0 105 -25 105 -95c0 -32 -14 -63 -40 -75c26 -12 46 -45 46 -76
c0 -59 -51 -101 -110 -101c-63 0 -93 26 -95 28c-4 4 -8 9 -8 19c0 15 13 24 25 24c5 0 12 -2 20 -8s26 -15 58 -15c33 0 59 24 59 52c0 39 -35 52 -68 52z" />
    <glyph glyph-name="four.dnom" horiz-adv-x="377" 
d="M218 26v55h-125c-18 0 -25 12 -25 24c0 3 0 4 3 12c54 118 146 212 150 216c5 6 11 8 20 8c14 0 24 -12 24 -23c0 -9 -4 -16 -8 -20c-1 -1 -79 -79 -127 -169h88v67c0 16 11 26 25 26c13 0 25 -10 25 -26v-67h13c17 0 27 -8 27 -24c0 -14 -10 -24 -27 -24h-13v-55
c0 -15 -12 -26 -25 -26c-14 0 -25 11 -25 26z" />
    <glyph glyph-name="five.dnom" horiz-adv-x="377" 
d="M249 293h-107v-73c9 5 22 6 35 6c67 0 115 -47 115 -110c0 -87 -62 -119 -115 -119c-52 0 -81 25 -83 27c-6 6 -10 13 -10 21c0 15 12 25 24 25c7 0 14 -2 20 -8c4 -4 21 -17 49 -17c31 0 64 20 64 71c0 34 -28 62 -64 62c-20 0 -38 -10 -45 -15c-4 -3 -11 -4 -15 -4
c-13 0 -25 7 -25 24v134c0 17 11 24 25 24h132c14 0 26 -10 26 -24c0 -16 -12 -24 -26 -24z" />
    <glyph glyph-name="six.dnom" horiz-adv-x="377" 
d="M191 -3c-72 0 -115 56 -115 158c0 132 38 189 124 189c52 0 78 -23 82 -27s8 -11 8 -20c0 -11 -9 -24 -23 -24c-8 0 -14 3 -21 8c-5 3 -17 15 -46 15c-34 0 -73 -16 -73 -141c0 -70 22 -110 64 -110c48 0 59 46 59 72c0 22 -11 64 -59 64c-10 0 -17 -7 -29 -7
c-13 0 -22 7 -22 23c0 9 5 15 9 18c8 6 20 14 42 14c85 0 110 -71 110 -112c0 -44 -25 -120 -110 -120z" />
    <glyph glyph-name="seven.dnom" horiz-adv-x="377" 
d="M246 293h-145c-14 0 -26 8 -26 24c0 13 12 24 26 24h175c14 0 26 -9 26 -24c0 -30 -28 -80 -54 -126c-30 -56 -69 -128 -69 -167c0 -15 -12 -24 -24 -24c-17 0 -26 9 -26 24c0 53 43 132 76 191c15 25 28 50 41 78z" />
    <glyph glyph-name="eight.dnom" horiz-adv-x="377" 
d="M295 247c0 -31 -16 -61 -36 -72c24 -8 44 -35 44 -77c0 -64 -41 -101 -116 -101c-68 0 -114 40 -114 101c0 42 18 73 42 82c-20 9 -33 35 -33 67c0 76 68 97 105 97c54 0 108 -29 108 -97zM162 153c-19 -2 -38 -23 -38 -55c0 -38 34 -53 63 -53s65 11 65 53
c0 43 -48 50 -90 55zM212 194c15 3 32 25 32 53c0 39 -35 49 -57 49c-20 0 -54 -10 -54 -49c0 -40 37 -47 79 -53z" />
    <glyph glyph-name="nine.dnom" horiz-adv-x="377" 
d="M186 344c72 0 115 -56 115 -158c0 -132 -38 -189 -124 -189c-52 0 -78 23 -82 27s-8 11 -8 20c0 11 9 24 23 24c8 0 14 -3 21 -8c5 -3 17 -15 46 -15c34 0 73 16 73 141c0 70 -22 110 -64 110c-48 0 -59 -46 -59 -72c0 -22 11 -64 59 -64c10 0 17 7 29 7
c13 0 22 -7 22 -23c0 -9 -5 -15 -9 -18c-8 -6 -20 -14 -42 -14c-85 0 -110 71 -110 112c0 44 25 120 110 120z" />
    <glyph glyph-name="zero.numr" horiz-adv-x="377" 
d="M188 299c-76 0 -124 64 -124 172c0 106 49 175 124 175s125 -70 125 -175c0 -108 -48 -172 -125 -172zM188 347c45 0 74 48 74 124c0 67 -24 127 -74 127c-44 0 -73 -51 -73 -127s28 -124 73 -124z" />
    <glyph glyph-name="one.numr" horiz-adv-x="310" 
d="M155 302c-15 0 -25 11 -25 26v244l-20 -12c-3 -2 -6 -3 -11 -3c-12 0 -23 9 -23 25c0 8 6 17 12 21l52 35c3 2 8 5 16 5c12 0 24 -9 24 -26v-289c0 -15 -10 -26 -25 -26z" />
    <glyph glyph-name="two.numr" horiz-adv-x="403" 
d="M271 302h-156c-11 0 -24 9 -24 24c0 42 41 84 80 123c37 37 73 73 73 100c0 41 -31 49 -50 49c-26 0 -47 -12 -53 -17c-3 -2 -9 -6 -18 -6c-13 0 -23 12 -23 25c0 8 5 16 12 21c10 8 38 25 82 25c30 0 101 -9 101 -97c0 -48 -43 -91 -86 -132c-25 -24 -47 -48 -59 -67
h121c15 0 25 -9 25 -24s-10 -24 -25 -24z" />
    <glyph glyph-name="three.numr" horiz-adv-x="410" 
d="M186 451h-14c-14 0 -24 8 -24 24c0 15 10 24 24 24h14c30 0 62 15 62 50c0 44 -38 49 -54 49c-24 0 -43 -11 -52 -18c-3 -2 -9 -5 -15 -5c-12 0 -24 10 -24 25c0 9 5 16 10 19c6 5 37 27 81 27c54 0 105 -25 105 -95c0 -32 -14 -63 -40 -75c26 -12 46 -45 46 -76
c0 -59 -51 -101 -110 -101c-63 0 -93 26 -95 28c-4 4 -8 9 -8 19c0 15 13 24 25 24c5 0 12 -2 20 -8s26 -15 58 -15c33 0 59 24 59 52c0 39 -35 52 -68 52z" />
    <glyph glyph-name="four.numr" horiz-adv-x="377" 
d="M218 328v55h-125c-18 0 -25 12 -25 24c0 3 0 4 3 12c54 118 146 212 150 216c5 6 11 8 20 8c14 0 24 -12 24 -23c0 -9 -4 -16 -8 -20c-1 -1 -79 -79 -127 -169h88v67c0 16 11 26 25 26c13 0 25 -10 25 -26v-67h13c17 0 27 -8 27 -24c0 -14 -10 -24 -27 -24h-13v-55
c0 -15 -12 -26 -25 -26c-14 0 -25 11 -25 26z" />
    <glyph glyph-name="five.numr" horiz-adv-x="377" 
d="M249 595h-107v-73c9 5 22 6 35 6c67 0 115 -47 115 -110c0 -87 -62 -119 -115 -119c-52 0 -81 25 -83 27c-6 6 -10 13 -10 21c0 15 12 25 24 25c7 0 14 -2 20 -8c4 -4 21 -17 49 -17c31 0 64 20 64 71c0 34 -28 62 -64 62c-20 0 -38 -10 -45 -15c-4 -3 -11 -4 -15 -4
c-13 0 -25 7 -25 24v134c0 17 11 24 25 24h132c14 0 26 -10 26 -24c0 -16 -12 -24 -26 -24z" />
    <glyph glyph-name="six.numr" horiz-adv-x="377" 
d="M191 299c-72 0 -115 56 -115 158c0 132 38 189 124 189c52 0 78 -23 82 -27s8 -11 8 -20c0 -11 -9 -24 -23 -24c-8 0 -14 3 -21 8c-5 3 -17 15 -46 15c-34 0 -73 -16 -73 -141c0 -70 22 -110 64 -110c48 0 59 46 59 72c0 22 -11 64 -59 64c-10 0 -17 -7 -29 -7
c-13 0 -22 7 -22 23c0 9 5 15 9 18c8 6 20 14 42 14c85 0 110 -71 110 -112c0 -44 -25 -120 -110 -120z" />
    <glyph glyph-name="seven.numr" horiz-adv-x="377" 
d="M246 595h-145c-14 0 -26 8 -26 24c0 13 12 24 26 24h175c14 0 26 -9 26 -24c0 -30 -28 -80 -54 -126c-30 -56 -69 -128 -69 -167c0 -15 -12 -24 -24 -24c-17 0 -26 9 -26 24c0 53 43 132 76 191c15 25 28 50 41 78z" />
    <glyph glyph-name="eight.numr" horiz-adv-x="377" 
d="M295 549c0 -31 -16 -61 -36 -72c24 -8 44 -35 44 -77c0 -64 -41 -101 -116 -101c-68 0 -114 40 -114 101c0 42 18 73 42 82c-20 9 -33 35 -33 67c0 76 68 97 105 97c54 0 108 -29 108 -97zM162 455c-19 -2 -38 -23 -38 -55c0 -38 34 -53 63 -53s65 11 65 53
c0 43 -48 50 -90 55zM212 496c15 3 32 25 32 53c0 39 -35 49 -57 49c-20 0 -54 -10 -54 -49c0 -40 37 -47 79 -53z" />
    <glyph glyph-name="nine.numr" horiz-adv-x="377" 
d="M186 646c72 0 115 -56 115 -158c0 -132 -38 -189 -124 -189c-52 0 -78 23 -82 27s-8 11 -8 20c0 11 9 24 23 24c8 0 14 -3 21 -8c5 -3 17 -15 46 -15c34 0 73 16 73 141c0 70 -22 110 -64 110c-48 0 -59 -46 -59 -72c0 -22 11 -64 59 -64c10 0 17 7 29 7
c13 0 22 -7 22 -23c0 -9 -5 -15 -9 -18c-8 -6 -20 -14 -42 -14c-85 0 -110 71 -110 112c0 44 25 120 110 120z" />
    <glyph glyph-name="J.ss01" horiz-adv-x="393" 
d="M232 191v419c0 19 14 33 32 33c19 0 34 -14 34 -33v-419c0 -155 -103 -197 -164 -197c-63 0 -100 25 -106 30c-8 6 -14 15 -14 29c0 17 14 32 30 32c9 0 14 -2 21 -7c5 -4 24 -20 69 -20c37 0 98 30 98 133z" />
    <glyph glyph-name="dollar.tf" 
d="M282 -27v21c-63 0 -112 28 -159 64c-9 7 -14 17 -14 28c0 18 15 31 32 31c3 0 13 -1 23 -9c23 -18 64 -50 125 -50c82 0 133 47 133 117c0 142 -296 119 -296 312c0 90 72 152 156 160v20c0 20 13 33 33 33c19 0 33 -13 33 -33v-21c51 -10 81 -29 112 -51
c10 -7 14 -17 14 -28c0 -18 -15 -32 -32 -32c-6 0 -13 1 -20 7c-23 19 -63 43 -112 43c-61 0 -116 -40 -116 -98c0 -143 296 -113 296 -312c0 -90 -54 -156 -142 -175v-27c0 -18 -14 -33 -33 -33c-20 0 -33 15 -33 33z" />
    <glyph glyph-name="percent.tf" 
d="M266 476c0 -107 -40 -170 -118 -170c-77 0 -118 63 -118 170s41 170 118 170c78 0 118 -63 118 -170zM467 608l-286 -591c-4 -8 -10 -17 -23 -17c-15 0 -25 10 -25 23c0 4 1 11 3 14l286 591c4 8 11 18 23 18c18 0 26 -11 26 -24c0 -5 -3 -11 -4 -14zM212 476
c0 75 -18 120 -64 120c-44 0 -64 -45 -64 -120c0 -76 20 -120 64 -120c46 0 64 44 64 120zM570 164c0 -107 -41 -170 -118 -170c-78 0 -118 63 -118 170c0 108 40 170 118 170c77 0 118 -62 118 -170zM516 164c0 76 -19 120 -64 120s-64 -44 -64 -120c0 -75 19 -120 64 -120
s64 45 64 120z" />
    <glyph glyph-name="zero.tf" 
d="M299 -6c-142 0 -229 120 -229 324c0 202 88 331 229 331s230 -130 230 -331c0 -204 -87 -324 -230 -324zM299 58c100 0 162 99 162 260c0 150 -58 267 -162 267c-99 0 -161 -106 -161 -267s61 -260 161 -260z" />
    <glyph glyph-name="one.tf" 
d="M489 0h-308c-19 0 -33 13 -33 32s14 32 33 32h129v488l-107 -72c-5 -3 -9 -5 -18 -5c-19 0 -33 13 -33 32c0 11 5 22 14 28l158 103c5 3 11 5 18 5c19 0 34 -14 34 -33v-546h113c19 0 33 -13 33 -32s-14 -32 -33 -32z" />
    <glyph glyph-name="two.tf" 
d="M445 0h-306c-19 0 -33 13 -33 32c0 143 302 310 302 439c0 98 -72 114 -117 114c-55 0 -103 -30 -117 -40c-4 -3 -11 -5 -18 -5c-19 0 -34 14 -34 33c0 10 6 20 18 28c24 16 74 48 151 48c55 0 185 -16 185 -178c0 -158 -237 -271 -296 -407h265c19 0 33 -13 33 -32
s-14 -32 -33 -32z" />
    <glyph glyph-name="three.tf" 
d="M266 292h-24c-20 0 -33 13 -33 32s14 32 33 32h24c63 0 142 33 142 116c0 101 -88 113 -127 113c-55 0 -98 -30 -111 -39c-5 -4 -13 -6 -19 -6c-19 0 -33 14 -33 33c0 10 6 19 14 26c10 10 69 50 149 50c107 0 195 -58 195 -177c0 -62 -35 -125 -102 -144
c72 -12 112 -84 112 -154c0 -106 -98 -180 -202 -180c-110 0 -167 46 -173 51c-9 8 -13 15 -13 27c0 19 16 32 35 32c26 0 37 -46 151 -46c74 0 134 53 134 116c0 90 -84 118 -152 118z" />
    <glyph glyph-name="four.tf" 
d="M362 33v128h-266c-23 0 -33 18 -33 32c0 5 2 12 4 16c105 213 287 413 298 425c6 6 15 9 24 9c18 0 32 -14 32 -30c0 -11 -4 -19 -11 -26c-2 -2 -164 -165 -265 -362h217v204c0 19 14 33 33 33s33 -14 33 -33v-204h42c19 0 33 -13 33 -32s-14 -32 -33 -32h-42v-128
c0 -19 -14 -33 -33 -33s-33 14 -33 33z" />
    <glyph glyph-name="five.tf" 
d="M417 579h-230v-183c6 3 40 18 87 18c120 0 210 -85 210 -200c0 -161 -115 -220 -210 -220c-92 0 -148 44 -156 50c-9 8 -12 16 -12 26c0 18 16 34 32 34c8 0 15 -1 23 -8c6 -5 48 -38 113 -38c68 0 142 42 142 156c0 77 -60 136 -142 136c-53 0 -92 -23 -100 -28
c-5 -4 -14 -7 -20 -7c-16 0 -31 10 -33 32v265c0 19 15 31 34 31h262c19 0 33 -12 33 -31s-14 -33 -33 -33z" />
    <glyph glyph-name="six.tf" 
d="M307 -6c-136 0 -213 106 -213 297c0 249 71 358 230 358c101 0 145 -46 148 -50c6 -7 11 -15 11 -25c0 -17 -11 -32 -30 -32c-12 0 -21 5 -30 12s-39 31 -99 31c-76 0 -162 -33 -162 -294c0 -149 50 -233 145 -233c104 0 132 99 132 157c0 52 -29 140 -132 140
c-23 0 -41 -4 -55 -12c-4 -2 -9 -4 -15 -4c-17 0 -30 12 -30 32c0 15 16 25 24 30c19 11 46 18 76 18c156 0 200 -128 200 -204c0 -81 -44 -221 -200 -221z" />
    <glyph glyph-name="seven.tf" 
d="M429 579h-310c-19 0 -33 14 -33 33s14 31 33 31h350c19 0 33 -12 33 -31c0 -55 -57 -157 -105 -242c-61 -108 -138 -254 -138 -337c0 -19 -14 -33 -33 -33c-18 0 -33 14 -33 33c0 105 81 252 147 369c36 63 76 133 89 177z" />
    <glyph glyph-name="eight.tf" 
d="M413 326c19 -6 99 -45 99 -147c0 -119 -77 -185 -212 -185c-125 0 -212 71 -212 185c0 99 74 156 94 161c-21 8 -75 45 -75 133c0 139 123 176 193 176c96 0 196 -54 196 -176c0 -77 -66 -141 -83 -147zM287 298l-38 5c-46 -3 -93 -49 -93 -124c0 -88 76 -121 144 -121
c66 0 144 23 144 121c0 92 -98 110 -157 119zM343 352c39 4 85 60 85 121c0 88 -80 112 -128 112c-47 0 -125 -24 -125 -112c0 -86 69 -113 168 -121z" />
    <glyph glyph-name="nine.tf" 
d="M292 649c136 0 213 -106 213 -297c0 -249 -71 -358 -230 -358c-101 0 -145 46 -148 50c-6 7 -11 15 -11 25c0 17 11 32 30 32c12 0 21 -5 30 -12s39 -31 99 -31c76 0 162 33 162 294c0 149 -50 233 -145 233c-104 0 -132 -99 -132 -157c0 -52 29 -140 132 -140
c23 0 41 4 55 12c4 2 8 4 14 4c17 0 31 -12 31 -32c0 -15 -16 -25 -24 -30c-19 -11 -46 -18 -76 -18c-156 0 -200 128 -200 204c0 81 44 221 200 221z" />
    <glyph glyph-name="cent.tf" 
d="M301 -27v23c-110 12 -184 104 -184 237c0 116 77 209 184 230v30c0 19 14 33 33 33s33 -14 33 -33v-26c37 -4 75 -17 107 -37c9 -5 14 -16 14 -28c0 -18 -14 -32 -32 -32c-6 0 -12 1 -18 5c-27 19 -60 29 -91 29c-93 0 -162 -74 -162 -171c0 -86 43 -175 143 -175
c39 0 83 14 119 34c5 3 12 4 17 4c16 0 32 -13 32 -33c0 -11 -8 -22 -17 -28c-33 -18 -73 -32 -112 -38v-24c0 -19 -14 -33 -33 -33s-33 14 -33 33z" />
    <glyph glyph-name="sterling.tf" 
d="M481 0h-351c-19 0 -33 13 -33 32c0 13 4 23 14 30c57 37 74 72 74 115c0 25 -4 62 -10 94h-42c-19 0 -33 14 -33 33s14 31 33 31h33c-1 16 -2 30 -2 46c0 175 96 253 188 253c23 0 59 -3 81 -17c7 -4 19 -12 19 -29c0 -15 -9 -31 -26 -31c-7 0 -11 1 -17 3
c-17 6 -36 11 -57 11c-61 0 -122 -61 -122 -190c0 -16 1 -30 3 -46h147c19 0 32 -12 32 -31s-13 -33 -32 -33h-139l5 -30c2 -22 5 -44 5 -64c0 -58 -30 -98 -51 -113h281c19 0 33 -13 33 -32s-14 -32 -33 -32z" />
    <glyph glyph-name="yen.tf" 
d="M471 132h-137v-99c0 -19 -14 -33 -33 -33s-33 14 -33 33v99h-153c-18 0 -32 13 -32 32s14 32 32 32h153v59h-153c-17 0 -32 13 -32 32s14 32 32 32h106c-53 99 -106 218 -132 275c-2 5 -5 10 -5 21c0 14 11 28 32 28s28 -12 34 -26c72 -150 112 -242 144 -298h12
c31 50 74 148 146 298c7 14 15 26 36 26s30 -18 30 -28c0 -11 -2 -15 -5 -21c-26 -57 -80 -176 -134 -275h92c18 0 32 -13 32 -32s-15 -32 -32 -32h-137v-59h137c18 0 32 -13 32 -32s-14 -32 -32 -32z" />
    <glyph glyph-name="section.tf" 
d="M383 175c36 -25 64 -60 64 -116c0 -76 -65 -148 -165 -148c-72 0 -133 35 -142 41s-14 16 -14 28c0 18 16 31 31 31c8 0 14 -2 21 -6c12 -6 56 -33 110 -33c59 0 91 39 91 80c0 124 -250 92 -250 255c0 59 46 104 98 126c-42 26 -76 59 -76 118c0 87 81 125 156 125
c48 0 96 -18 120 -31c11 -6 19 -15 19 -30c0 -19 -14 -33 -31 -33c-11 0 -15 4 -23 8c-16 9 -51 25 -89 25c-34 0 -84 -13 -84 -60c1 -111 250 -86 250 -257c0 -55 -31 -98 -86 -123zM292 400c-44 -12 -97 -43 -97 -89c0 -56 62 -76 125 -104c45 13 83 42 83 84
c0 58 -53 83 -111 109z" />
    <glyph glyph-name="perthousand.tf" 
d="M377 131c0 -83 -32 -131 -90 -131c-60 0 -91 48 -91 131s31 130 91 130c58 0 90 -47 90 -130zM333 131c0 56 -14 89 -46 89c-33 0 -47 -33 -47 -89c0 -57 14 -89 47 -89c32 0 46 32 46 89zM573 131c0 -83 -32 -131 -91 -131c-60 0 -91 48 -91 131s31 130 91 130
c59 0 91 -47 91 -130zM528 131c0 56 -13 89 -46 89s-47 -33 -47 -89c0 -57 14 -89 47 -89s46 32 46 89zM215 516c0 -83 -32 -130 -91 -130c-60 0 -91 47 -91 130s31 131 91 131c59 0 91 -48 91 -131zM171 516c0 56 -14 89 -47 89s-46 -33 -46 -89c0 -57 13 -89 46 -89
s47 32 47 89zM371 608l-286 -591c-4 -8 -10 -17 -23 -17c-15 0 -25 10 -25 23c0 4 1 11 3 14l286 591c4 8 11 18 23 18c18 0 26 -11 26 -24c0 -5 -3 -11 -4 -14z" />
    <glyph glyph-name="Euro.tf" 
d="M415 222h-210c20 -94 75 -164 155 -164c52 0 74 14 112 39c7 4 13 5 19 5c21 0 33 -15 33 -34c0 -10 -5 -19 -12 -24c-44 -31 -88 -50 -152 -50c-116 0 -200 96 -225 228h-25c-19 0 -33 13 -33 32s14 32 33 32h17c-1 10 -1 14 -1 30c0 18 0 25 1 35h-17
c-19 0 -33 13 -33 32s14 32 33 32h25c28 131 119 234 234 234c63 0 102 -21 124 -35c9 -5 14 -17 14 -27c0 -20 -18 -33 -34 -33c-7 0 -13 2 -19 6c-15 10 -46 25 -85 25c-85 0 -144 -73 -165 -170h211c19 0 33 -13 33 -32s-14 -32 -33 -32h-219c-1 -10 -2 -17 -2 -35
c0 -16 0 -20 1 -30h220c19 0 33 -13 33 -32s-14 -32 -33 -32z" />
    <glyph glyph-name="grave.uc" horiz-adv-x="335" 
d="M249 732c-4 0 -9 1 -15 4l-157 65c-11 5 -22 14 -22 30c0 20 13 33 30 33c3 0 7 -1 10 -2l162 -67c13 -6 22 -17 22 -31c0 -17 -12 -32 -30 -32z" />
    <glyph glyph-name="dieresis.uc" horiz-adv-x="303" 
d="M55 765v34c0 19 14 32 33 32s33 -13 33 -32v-34c0 -19 -14 -33 -33 -33s-33 14 -33 33zM182 765v34c0 19 14 32 33 32s33 -13 33 -32v-34c0 -19 -14 -33 -33 -33s-33 14 -33 33z" />
    <glyph glyph-name="macron.uc" horiz-adv-x="399" 
d="M311 732h-223c-19 0 -33 14 -33 33s14 31 33 31h223c19 0 33 -12 33 -31s-14 -33 -33 -33z" />
    <glyph glyph-name="acute.uc" horiz-adv-x="335" 
d="M260 802l-160 -67c-5 -2 -9 -3 -13 -3c-17 0 -32 12 -32 30c0 15 6 25 21 31l159 67c6 2 8 3 13 3c19 0 33 -13 33 -31s-11 -25 -21 -30z" />
    <glyph glyph-name="circumflex.uc" horiz-adv-x="417" 
d="M312 737l-103 55l-105 -55c-7 -3 -11 -5 -16 -5c-19 0 -33 13 -33 31c0 9 5 22 17 28l121 64c5 3 11 5 16 5s11 -2 16 -5l122 -65c11 -5 15 -18 15 -27c0 -20 -15 -31 -33 -31c-6 0 -12 3 -17 5z" />
    <glyph glyph-name="caron.uc" horiz-adv-x="417" 
d="M347 802l-121 -65c-4 -3 -11 -5 -16 -5c-4 0 -11 2 -16 5l-122 64c-12 7 -17 17 -17 27c0 17 14 33 33 33c5 0 9 -1 16 -5l106 -54l102 54c5 3 11 5 17 5c18 0 33 -14 33 -33c0 -9 -4 -20 -15 -26z" />
    <glyph glyph-name="breve.uc" horiz-adv-x="366" 
d="M311 828c0 -1 -12 -96 -130 -96s-126 95 -126 96c0 20 13 33 33 33c18 0 32 -11 32 -32c0 -2 5 -34 61 -34c58 0 63 32 63 34c0 21 17 32 34 32c23 0 33 -13 33 -33z" />
    <glyph glyph-name="dotaccent.uc" horiz-adv-x="194" 
d="M97 732c-24 0 -42 18 -42 43c0 23 18 42 42 42s42 -19 42 -42c0 -25 -18 -43 -42 -43z" />
    <glyph glyph-name="ring.uc" horiz-adv-x="278" 
d="M141 732c-48 0 -85 36 -85 84s37 84 85 84s85 -36 85 -84s-37 -84 -85 -84zM180 817c0 21 -18 37 -39 37s-39 -16 -39 -37s18 -39 39 -39s39 18 39 39z" />
    <glyph glyph-name="tilde.uc" horiz-adv-x="390" 
d="M330 767c-10 -16 -33 -35 -76 -35c-50 0 -68 21 -118 21c-22 0 -34 -19 -50 -19s-31 7 -31 28c0 6 1 13 5 20c10 16 33 35 76 35c50 0 68 -21 118 -21c22 0 34 19 50 19s31 -10 31 -31c0 -5 -1 -11 -5 -17z" />
    <glyph glyph-name="hungarumlaut.uc" horiz-adv-x="354" 
d="M176 912c0 -6 -3 -14 -5 -19l-53 -138c-5 -13 -14 -23 -31 -23c-16 0 -33 9 -33 29c0 7 3 13 5 19l53 138c5 12 13 23 31 23c19 0 33 -11 33 -29zM299 912c0 -6 -3 -14 -5 -19l-53 -138c-5 -13 -14 -23 -31 -23c-16 0 -33 9 -33 29c0 7 3 13 5 19l53 138
c5 12 13 23 31 23c19 0 33 -11 33 -29z" />
    <glyph glyph-name="A_i" horiz-adv-x="790" 
d="M164 255h237c-35 105 -72 212 -119 321c-47 -109 -79 -208 -118 -321zM650 45v384c0 18 12 33 33 33c20 0 33 -15 33 -33v-399c0 -10 -6 -18 -11 -24c-22 -26 -42 -45 -103 -45c-45 0 -114 15 -146 127c-8 27 -22 66 -34 103h-280c-25 -75 -43 -140 -53 -169
c-5 -13 -12 -22 -32 -22c-22 0 -32 13 -32 30c0 4 1 9 3 15c5 17 135 443 206 575c9 17 21 23 48 23s40 -6 49 -24c51 -104 161 -432 185 -510c22 -72 53 -85 86 -85c30 0 41 13 48 21zM650 580v34c0 19 14 33 33 33s33 -14 33 -33v-34c0 -19 -14 -33 -33 -33s-33 14 -33 33
z" />
    <glyph glyph-name="A_m" horiz-adv-x="1331" 
d="M1190 33v255c0 92 -29 116 -108 116c-42 0 -80 -11 -107 -26c7 -22 11 -47 11 -80v-265c0 -19 -14 -33 -33 -33s-33 14 -33 33v255c0 92 -27 116 -106 116c-53 0 -87 -20 -98 -27v-347c0 -10 -6 -18 -11 -24c-22 -26 -42 -45 -103 -45c-45 0 -114 15 -146 127
c-8 27 -22 66 -34 103h-280c-25 -75 -43 -140 -53 -169c-5 -13 -12 -22 -32 -22c-22 0 -32 13 -32 30c0 4 1 9 3 15c5 17 135 443 206 575c9 17 21 23 48 23s40 -6 49 -24c51 -104 161 -432 185 -510c22 -72 53 -85 86 -85c30 0 41 13 48 21v385c0 19 12 32 31 32
c21 0 31 -13 31 -29c10 7 53 35 116 35c57 0 97 -13 122 -42c41 26 91 42 146 42c110 0 160 -49 160 -170v-265c0 -19 -15 -33 -34 -33s-32 14 -32 33zM164 255h237c-35 105 -72 212 -119 321c-47 -109 -79 -208 -118 -321z" />
    <glyph glyph-name="A_n" horiz-adv-x="1072" 
d="M931 33v255c0 92 -27 116 -111 116c-50 0 -93 -21 -104 -27v-347c0 -10 -6 -18 -11 -24c-22 -26 -42 -45 -103 -45c-45 0 -114 15 -146 127c-8 27 -22 66 -34 103h-280c-25 -75 -43 -140 -53 -169c-5 -13 -12 -22 -32 -22c-22 0 -32 13 -32 30c0 4 1 9 3 15
c5 17 135 443 206 575c9 17 21 23 48 23s40 -6 49 -24c51 -104 161 -432 185 -510c22 -72 53 -85 86 -85c30 0 41 13 48 21v385c0 19 12 32 31 32s31 -13 31 -29c12 7 58 35 122 35c116 0 163 -50 163 -170v-265c0 -19 -14 -33 -33 -33s-33 14 -33 33zM164 255h237
c-35 105 -72 212 -119 321c-47 -109 -79 -208 -118 -321z" />
    <glyph glyph-name="H_i" horiz-adv-x="848" 
d="M708 580v34c0 19 14 33 33 33s33 -14 33 -33v-34c0 -19 -14 -33 -33 -33s-33 14 -33 33zM708 46v383c0 19 14 33 33 33s33 -14 33 -33v-398c0 -12 -7 -22 -14 -27c-33 -28 -54 -44 -111 -44c-80 0 -190 61 -190 241v105h-298v-273c0 -19 -14 -33 -33 -33s-33 14 -33 33
v577c0 19 14 33 33 33s33 -14 33 -33v-240h298v240c0 19 14 33 33 33s33 -14 33 -33v-418c0 -126 71 -168 124 -168c32 0 45 8 59 22z" />
    <glyph glyph-name="M_i" horiz-adv-x="1039" 
d="M620 643h12c17 0 31 -11 33 -28l48 -419c15 -130 74 -172 126 -172c32 0 46 8 60 21v384c0 19 14 33 33 33s33 -14 33 -33v-396c0 -16 -6 -23 -9 -26c-36 -31 -58 -47 -117 -47c-68 0 -172 52 -191 227l-38 363c-50 -112 -155 -457 -166 -502c-5 -19 -25 -31 -40 -31h-6
c-15 0 -34 13 -38 30c-17 61 -120 402 -166 503l-55 -521c-2 -17 -14 -29 -34 -29s-30 13 -30 33l64 582c2 15 14 28 33 28h11c19 0 32 -7 44 -23c40 -57 131 -347 175 -490c42 138 127 415 172 486c12 19 28 27 46 27zM899 580v34c0 19 14 33 33 33s33 -14 33 -33v-34
c0 -19 -14 -33 -33 -33s-33 14 -33 33z" />
    <glyph glyph-name="M_r" horiz-adv-x="1176" 
d="M620 643h12c17 0 31 -11 33 -28l48 -419c15 -130 74 -172 126 -172c32 0 46 8 60 21v385c0 19 14 32 33 32s32 -13 32 -32v-47c9 34 56 85 122 85c22 0 73 -5 73 -38c0 -19 -10 -32 -32 -32c-12 0 -28 6 -41 6c-38 0 -121 -19 -121 -190v-181c0 -16 -6 -23 -9 -26
c-36 -31 -58 -47 -117 -47c-68 0 -172 52 -191 227l-38 363c-50 -112 -155 -457 -166 -502c-5 -19 -25 -31 -40 -31h-6c-15 0 -34 13 -38 30c-17 61 -120 402 -166 503l-55 -521c-2 -17 -14 -29 -34 -29s-30 13 -30 33l64 582c2 15 14 28 33 28h11c19 0 32 -7 44 -23
c40 -57 131 -347 175 -490c42 138 127 415 172 486c12 19 28 27 46 27z" />
    <glyph glyph-name="R_i" horiz-adv-x="764" 
d="M625 580v34c0 19 13 33 32 33s33 -14 33 -33v-34c0 -19 -14 -33 -33 -33s-32 14 -32 33zM624 46v383c0 19 14 33 33 33s33 -14 33 -33v-399c0 -11 -7 -20 -14 -26c-39 -32 -59 -44 -118 -44c-46 0 -107 16 -149 125c-48 121 -104 207 -156 207h-16c-19 0 -33 13 -33 32
s14 32 33 32h39c29 0 120 8 120 119c0 60 -49 104 -120 104h-115v-546c0 -19 -14 -33 -33 -33s-33 14 -33 33v577c0 19 14 33 33 33h148c109 0 188 -74 188 -168c0 -122 -98 -164 -123 -166c52 -32 93 -113 128 -201c28 -69 56 -84 89 -84c32 0 49 9 66 22z" />
    <glyph glyph-name="W_h" horiz-adv-x="1273" 
d="M1133 33v255c0 92 -26 116 -112 116c-50 0 -93 -21 -104 -27v-344c0 -19 -14 -33 -33 -33s-33 14 -33 33v591c-51 0 -103 -37 -128 -156c-33 -157 -88 -398 -113 -443c-12 -22 -39 -25 -50 -25c-9 0 -37 2 -49 25c-23 44 -111 373 -123 469c-12 -96 -101 -430 -125 -472
c-9 -15 -24 -22 -47 -22c-13 0 -36 2 -49 24c-36 64 -131 521 -140 576c-2 9 -2 12 -2 15c0 17 14 28 33 28c17 0 28 -6 32 -25c2 -8 83 -408 126 -547c53 165 117 468 130 523c3 20 22 32 42 32c23 0 38 -13 42 -32c21 -97 86 -383 130 -523c26 87 68 274 95 406
c35 172 116 211 229 211c20 0 33 -15 33 -33v-219c22 13 64 32 118 32c133 0 164 -65 164 -173v-262c0 -19 -15 -33 -33 -33c-19 0 -33 14 -33 33z" />
    <glyph glyph-name="W_i" horiz-adv-x="991" 
d="M851 580v17c0 8 -1 19 -14 19c-31 0 -89 -29 -114 -148c-33 -157 -88 -398 -113 -443c-12 -22 -39 -25 -50 -25c-9 0 -37 2 -49 25c-23 44 -111 373 -123 469c-12 -96 -101 -430 -125 -472c-9 -15 -24 -22 -47 -22c-13 0 -36 2 -49 24c-36 64 -131 521 -140 576
c-2 9 -2 12 -2 15c0 17 14 28 33 28c17 0 28 -6 32 -25c2 -8 83 -408 126 -547c53 165 117 468 130 523c3 20 22 32 42 32c23 0 38 -13 42 -32c21 -97 86 -383 130 -523c26 87 68 274 95 406c35 172 134 203 184 203c55 0 78 -35 78 -65v-35c0 -19 -15 -33 -33 -33
c-19 0 -33 15 -33 33zM851 33v396c0 19 14 33 33 33s33 -14 33 -33v-396c0 -19 -14 -33 -33 -33s-33 14 -33 33z" />
    <glyph glyph-name="c_e" horiz-adv-x="972" 
d="M620 281c23 -9 61 -23 110 -23c91 0 126 35 126 76c0 29 -34 70 -100 70c-68 0 -122 -43 -136 -123zM619 215c0 -8 1 -26 5 -41c12 -64 58 -116 127 -116c48 0 106 25 128 35c7 3 10 4 17 4c17 0 31 -15 31 -32c0 -13 -7 -22 -16 -28c-4 -3 -81 -43 -160 -43
c-119 0 -203 96 -203 233c0 5 0 8 1 18c-56 30 -119 97 -182 132c-30 17 -61 27 -91 27c-93 0 -163 -74 -163 -171c0 -86 44 -175 143 -175c39 0 83 14 119 34c6 3 11 4 17 4c16 0 32 -13 32 -33c0 -11 -7 -22 -17 -28c-44 -24 -99 -41 -151 -41c-125 0 -211 96 -211 239
c0 133 102 235 231 235c43 0 87 -14 129 -37c55 -31 105 -85 155 -118c26 98 98 155 196 155c107 0 168 -75 168 -134c0 -101 -102 -137 -193 -137c-38 0 -74 5 -112 18z" />
    <glyph glyph-name="f_j" horiz-adv-x="542" 
d="M87 33v365h-49c-19 0 -33 13 -33 32s14 32 33 32h50c12 199 142 223 202 223c58 0 121 -14 163 -44c7 -5 14 -12 14 -25v-35c0 -19 -14 -33 -33 -33s-33 14 -33 33v18c-26 13 -75 22 -111 22c-49 0 -128 -21 -136 -159h116c19 0 33 -13 33 -32s-14 -32 -33 -32h-117v-365
c0 -19 -15 -33 -33 -33c-19 0 -33 14 -33 33zM401 -6v435c0 19 14 33 33 33s33 -14 33 -33v-435c0 -155 -104 -197 -165 -197c-63 0 -97 24 -106 31c-8 7 -15 18 -15 27c0 17 14 33 33 33c6 0 15 -2 24 -9c2 -2 20 -18 64 -18c37 0 99 30 99 133z" />
    <glyph glyph-name="i_k" horiz-adv-x="648" 
d="M75 33v396c0 18 14 33 33 33c20 0 33 -15 33 -33v-396c0 -19 -14 -33 -33 -33s-33 14 -33 33zM290 33v411c0 155 -55 177 -102 177c-20 0 -37 -8 -47 -18v-22c0 -19 -14 -33 -33 -33s-33 14 -33 33v33c0 46 75 71 113 71c70 0 168 -25 168 -237v-161h12l164 165
c7 6 12 10 25 10c19 0 33 -15 33 -32c0 -9 -3 -17 -10 -24l-147 -145c40 -28 114 -89 195 -210c4 -6 6 -13 6 -19c0 -18 -15 -32 -34 -32c-9 0 -18 4 -24 14c-91 131 -174 193 -199 209h-21v-190c0 -19 -14 -33 -33 -33s-33 14 -33 33z" />
    <glyph glyph-name="j_k" horiz-adv-x="650" 
d="M292 33v411c0 155 -56 177 -103 177c-20 0 -37 -8 -47 -18v-22c0 -19 -14 -33 -33 -33s-33 14 -33 33v33c0 46 75 71 113 71c70 0 169 -25 169 -237v-161h12l164 165c7 6 12 10 25 10c19 0 33 -15 33 -32c0 -9 -3 -17 -10 -24l-147 -145c40 -28 114 -89 195 -210
c4 -6 6 -13 6 -19c0 -18 -15 -32 -34 -32c-9 0 -18 4 -24 14c-91 131 -174 193 -199 209h-21v-190c0 -19 -14 -33 -33 -33s-33 14 -33 33zM76 -6v435c0 19 14 33 33 33s33 -14 33 -33v-435c0 -155 -104 -197 -165 -197c-63 0 -97 24 -106 31c-8 7 -15 18 -15 27
c0 17 14 33 33 33c6 0 15 -2 24 -9c2 -2 20 -18 64 -18c37 0 99 30 99 133z" />
    <glyph glyph-name="k_y" horiz-adv-x="894" 
d="M693 104l123 336c5 12 14 22 30 22c20 0 34 -13 34 -32c0 -5 -2 -10 -4 -15l-134 -368c-72 -198 -138 -251 -231 -251c-74 0 -107 25 -135 49c-6 5 -12 14 -12 26c0 18 16 32 33 32c8 0 14 -3 19 -7c21 -17 43 -36 95 -36c59 0 99 25 152 161c-6 4 -14 18 -19 27
c-41 78 -100 233 -131 315c-17 44 -42 67 -72 67c-42 0 -64 -13 -85 -33l-138 -136c40 -27 118 -95 195 -210c3 -5 6 -11 6 -19c0 -17 -14 -32 -33 -32c-11 0 -20 4 -27 14c-87 128 -171 192 -197 209h-21v-190c0 -19 -14 -33 -33 -33s-33 14 -33 33v622c0 19 14 33 33 33
s33 -14 33 -33v-368h12l151 152c38 38 79 55 137 55s106 -36 139 -122c34 -92 71 -192 100 -247c4 -7 8 -15 13 -21z" />
    <glyph glyph-name="r_t" horiz-adv-x="706" 
d="M437 171v227h-176c-55 0 -120 -33 -120 -184v-181c0 -19 -14 -33 -33 -33s-33 14 -33 33v397c0 19 14 32 33 32s32 -13 32 -32v-47c10 35 56 79 121 79h176v104c0 19 14 33 33 33s33 -14 33 -33v-104h118c19 0 33 -12 33 -31s-14 -33 -33 -33h-118v-227
c0 -99 51 -113 95 -113c22 0 39 8 46 12c4 2 8 4 15 4c17 0 32 -12 32 -31c0 -15 -7 -25 -16 -30s-40 -19 -74 -19c-81 0 -164 22 -164 177z" />
    <glyph glyph-name="r_y" horiz-adv-x="797" 
d="M596 104l123 336c5 14 16 22 31 22c19 0 33 -13 33 -32c0 -6 -3 -12 -4 -15l-134 -369c-72 -198 -138 -250 -231 -250c-71 0 -104 22 -135 49c-6 6 -12 14 -12 26c0 16 15 32 33 32c7 0 13 -2 19 -7c24 -18 41 -36 95 -36c59 0 99 25 152 161c-6 4 -13 16 -19 27
c-57 109 -102 248 -138 311c-19 33 -46 52 -113 52c-47 0 -155 -23 -155 -196v-182c0 -19 -14 -33 -33 -33s-33 14 -33 33v397c0 19 14 32 33 32c18 0 32 -13 32 -32v-47c11 38 75 91 156 91c84 0 128 -22 161 -73c51 -79 82 -189 127 -277c5 -10 7 -14 12 -20z" />
    <glyph glyph-name="s_h" horiz-adv-x="909" 
d="M769 33v255c0 92 -27 116 -111 116c-51 0 -95 -21 -105 -27v-344c0 -19 -14 -33 -33 -33s-33 14 -33 33v589c-102 0 -135 -53 -135 -210c0 -18 -12 -31 -30 -31c-7 0 -14 1 -21 4c-16 8 -44 19 -81 19c-45 0 -88 -14 -88 -60c0 -86 235 -68 235 -218
c0 -71 -64 -132 -160 -132c-78 0 -140 37 -147 42c-6 5 -15 12 -15 30s16 31 32 31c5 0 14 -1 19 -5c7 -5 54 -34 111 -34c53 0 92 18 92 68c0 94 -235 72 -235 218c0 86 81 124 156 124c31 0 56 -4 74 -11c10 182 91 231 226 231c19 0 33 -13 33 -31v-221
c11 7 57 32 118 32c117 0 164 -50 164 -170v-265c0 -19 -14 -33 -33 -33s-33 14 -33 33z" />
    <glyph glyph-name="s_k" horiz-adv-x="845" 
d="M487 33v589c-101 0 -135 -57 -135 -210c0 -19 -14 -31 -31 -31c-6 0 -12 1 -19 4c-16 7 -45 19 -85 19c-41 0 -85 -14 -85 -60c0 -87 235 -68 235 -218c0 -72 -65 -132 -160 -132c-79 0 -140 37 -147 42c-9 7 -15 15 -15 29c0 19 15 32 32 32c7 0 14 -2 19 -5
c9 -6 55 -34 111 -34c46 0 92 13 92 68c0 93 -235 73 -235 218c0 86 81 124 156 124c24 0 49 -2 74 -11c11 178 93 231 227 231c16 0 32 -14 32 -33v-368h12s77 78 163 164c7 7 14 11 26 11c18 0 33 -14 33 -32c0 -15 -10 -25 -21 -35l-136 -134c39 -27 112 -86 194 -209
c4 -6 7 -14 7 -20c0 -18 -14 -32 -33 -32c-11 0 -18 4 -25 14c-81 118 -167 189 -199 209h-21v-190c0 -19 -14 -33 -33 -33s-33 14 -33 33z" />
    <glyph glyph-name="s_l" horiz-adv-x="651" 
d="M486 170v452c-101 0 -134 -51 -134 -210c0 -19 -14 -31 -31 -31c-6 0 -13 1 -20 4c-15 7 -44 19 -81 19c-44 0 -88 -14 -88 -60c0 -87 235 -68 235 -218c0 -72 -65 -132 -160 -132c-79 0 -140 37 -147 42c-9 7 -15 15 -15 30c0 18 16 31 32 31c9 0 14 -2 19 -5
c9 -6 55 -34 111 -34c46 0 92 13 92 68c0 93 -235 73 -235 218c0 86 81 124 156 124c32 0 56 -6 74 -11c10 181 92 231 226 231c18 0 32 -14 32 -33v-485c0 -81 13 -106 52 -106c19 0 33 -13 33 -32c0 -18 -14 -32 -33 -32c-90 0 -118 39 -118 170z" />
    <glyph glyph-name="t_t" horiz-adv-x="708" 
d="M439 171v227h-288v-227c0 -99 51 -113 95 -113c22 0 39 8 46 12c4 2 9 4 15 4c17 0 32 -12 32 -32c0 -14 -7 -24 -16 -29s-40 -19 -74 -19c-81 0 -164 22 -164 177v227h-50c-19 0 -33 14 -33 33s14 31 33 31h50v104c0 19 14 33 33 33s33 -14 33 -33v-104h288v104
c0 19 14 33 33 33s33 -14 33 -33v-104h118c19 0 33 -12 33 -31s-14 -33 -33 -33h-118v-227c0 -99 51 -113 95 -113c22 0 39 8 46 12c4 2 9 4 15 4c17 0 32 -12 32 -32c0 -14 -7 -24 -16 -29s-40 -19 -74 -19c-81 0 -164 22 -164 177z" />
    <glyph glyph-name="x_y" horiz-adv-x="876" 
d="M675 104l123 336c4 12 16 22 31 22c20 0 33 -14 33 -32c0 -5 -2 -10 -4 -15l-134 -369c-71 -198 -138 -250 -231 -250c-74 0 -106 24 -135 49c-7 6 -12 15 -12 26c0 16 15 32 33 32c8 0 14 -3 19 -7c20 -16 44 -36 95 -36c59 0 99 25 152 161c-6 4 -13 16 -19 27
c-57 109 -99 233 -130 315c-18 45 -34 67 -75 67c-38 0 -63 -21 -76 -39l-98 -134c53 -69 100 -145 128 -206c3 -6 5 -13 5 -19c0 -19 -14 -32 -33 -32s-26 10 -30 19c-33 69 -74 131 -110 182l-132 -187c-6 -9 -19 -14 -27 -14c-19 0 -33 15 -33 32c0 8 1 12 7 20l144 202
c-55 70 -110 125 -130 146c-12 13 -17 16 -17 30c0 19 17 32 34 32c8 0 15 -1 25 -11c19 -18 73 -72 128 -142l85 119c27 38 74 65 130 65c67 0 107 -36 140 -121c34 -89 54 -154 99 -242c5 -10 10 -20 15 -26z" />
    </font>
</defs>
</svg>
